AtkinsonHyperlegibleNext-SemiBoldItalic.sfdir
StartChar: exclam
Encoding: 33 33 263
Width: 302
GlyphClass: 1
Flags: W
LayerCount: 2
Fore
SplineSet
135 495 m 1,0,-1
 172 668 l 1,1,-1
 307 668 l 1,2,-1
 270 495 l 1,3,-1
 187 224 l 1,4,-1
 104 224 l 1,5,-1
 135 495 l 1,0,-1
54 13 m 128,-1,7
 29 38 29 38 29 73 c 256,8,9
 29 108 29 108 54 133 c 128,-1,10
 79 158 79 158 114 158 c 256,11,12
 149 158 149 158 173.5 133 c 128,-1,13
 198 108 198 108 198 73 c 256,14,15
 198 38 198 38 173.5 13 c 128,-1,16
 149 -12 149 -12 114 -12 c 256,17,6
 79 -12 79 -12 54 13 c 128,-1,7
EndSplineSet
EndChar
StartChar: quotedbl
Encoding: 34 34 293
Width: 367
GlyphClass: 1
Flags: W
LayerCount: 2
Fore
SplineSet
298 668 m 1,0,-1
 416 668 l 1,1,-1
 354 439 l 1,2,-1
 263 439 l 1,3,-1
 298 668 l 1,0,-1
129 668 m 1,4,-1
 247 668 l 1,5,-1
 185 439 l 1,6,-1
 94 439 l 1,7,-1
 129 668 l 1,4,-1
EndSplineSet
EndChar
StartChar: numbersign
Encoding: 35 35 270
Width: 731
GlyphClass: 1
Flags: W
LayerCount: 2
Fore
SplineSet
134 147 m 1,0,-1
 9 147 l 1,1,-1
 49 260 l 1,2,-1
 173 260 l 1,3,-1
 227 408 l 1,4,-1
 103 408 l 1,5,-1
 143 521 l 1,6,-1
 267 521 l 1,7,-1
 320 668 l 1,8,-1
 437 668 l 1,9,-1
 385 521 l 1,10,-1
 517 521 l 1,11,-1
 569 668 l 1,12,-1
 687 668 l 1,13,-1
 635 521 l 1,14,-1
 758 521 l 1,15,-1
 719 408 l 1,16,-1
 595 408 l 1,17,-1
 542 260 l 1,18,-1
 665 260 l 1,19,-1
 625 147 l 1,20,-1
 501 147 l 1,21,-1
 450 0 l 1,22,-1
 331 0 l 1,23,-1
 382 147 l 1,24,-1
 252 147 l 1,25,-1
 201 0 l 1,26,-1
 82 0 l 1,27,-1
 134 147 l 1,0,-1
424 260 m 1,28,-1
 476 408 l 1,29,-1
 344 408 l 1,30,-1
 292 260 l 1,31,-1
 424 260 l 1,28,-1
EndSplineSet
EndChar
StartChar: dollar
Encoding: 36 36 313
Width: 604
GlyphClass: 1
Flags: W
LayerCount: 2
Fore
SplineSet
89.5 48.5 m 128,-1,1
 37 89 37 89 19 157 c 1,2,-1
 138 198 l 1,3,4
 144 161 144 161 171 136.5 c 128,-1,5
 198 112 198 112 238 101 c 1,6,-1
 279 297 l 1,7,-1
 247 308 l 2,8,9
 175 333 175 333 134 372.5 c 128,-1,10
 93 412 93 412 93 471 c 0,11,12
 93 534 93 534 130 581.5 c 128,-1,13
 167 629 167 629 228 654 c 128,-1,14
 289 679 289 679 360 680 c 1,15,-1
 377 758 l 1,16,-1
 441 758 l 1,17,-1
 423 676 l 1,18,19
 489 665 489 665 537.5 631 c 128,-1,20
 586 597 586 597 605 539 c 1,21,-1
 488 497 l 1,22,23
 469 551 469 551 400 568 c 1,24,-1
 364 393 l 1,25,-1
 385 386 l 2,26,27
 471 356 471 356 518.5 318 c 128,-1,28
 566 280 566 280 566 214 c 0,29,30
 566 149 566 149 528.5 97.5 c 128,-1,31
 491 46 491 46 425.5 17 c 128,-1,32
 360 -12 360 -12 278 -12 c 1,33,-1
 261 -90 l 1,34,-1
 197 -90 l 1,35,-1
 215 -6 l 1,36,0
 142 8 142 8 89.5 48.5 c 128,-1,1
398 119 m 128,-1,38
 437 145 437 145 437 186 c 0,39,40
 437 216 437 216 417 235.5 c 128,-1,41
 397 255 397 255 348 274 c 2,42,-1
 339 277 l 1,43,-1
 300 93 l 1,44,37
 359 93 359 93 398 119 c 128,-1,38
255.5 551 m 128,-1,46
 222 529 222 529 222 492 c 0,47,48
 222 466 222 466 240 447.5 c 128,-1,49
 258 429 258 429 295 416 c 2,50,-1
 304 413 l 1,51,-1
 338 575 l 1,52,45
 289 573 289 573 255.5 551 c 128,-1,46
EndSplineSet
EndChar
StartChar: percent
Encoding: 37 37 341
Width: 1007
GlyphClass: 1
Flags: W
LayerCount: 2
Fore
SplineSet
764 668 m 1,0,-1
 882 668 l 1,1,-1
 278 0 l 1,2,-1
 160 0 l 1,3,-1
 764 668 l 1,0,-1
181.5 322.5 m 128,-1,5
 138 348 138 348 112 392 c 128,-1,6
 86 436 86 436 86 488 c 256,7,8
 86 540 86 540 112 584 c 128,-1,9
 138 628 138 628 181.5 654 c 128,-1,10
 225 680 225 680 277 680 c 256,11,12
 329 680 329 680 372.5 654 c 128,-1,13
 416 628 416 628 441.5 584 c 128,-1,14
 467 540 467 540 467 488 c 256,15,16
 467 436 467 436 441.5 392 c 128,-1,17
 416 348 416 348 372.5 322.5 c 128,-1,18
 329 297 329 297 277 297 c 256,19,4
 225 297 225 297 181.5 322.5 c 128,-1,5
340 424.5 m 128,-1,21
 366 451 366 451 366 488 c 0,22,23
 366 526 366 526 340 552.5 c 128,-1,24
 314 579 314 579 277 579 c 256,25,26
 240 579 240 579 214 552.5 c 128,-1,27
 188 526 188 526 188 488 c 0,28,29
 188 451 188 451 214 424.5 c 128,-1,30
 240 398 240 398 277 398 c 256,31,20
 314 398 314 398 340 424.5 c 128,-1,21
670.5 14 m 128,-1,33
 627 40 627 40 601.5 84 c 128,-1,34
 576 128 576 128 576 180 c 256,35,36
 576 232 576 232 601.5 276 c 128,-1,37
 627 320 627 320 670.5 346 c 128,-1,38
 714 372 714 372 766 372 c 256,39,40
 818 372 818 372 862 346 c 128,-1,41
 906 320 906 320 931.5 276 c 128,-1,42
 957 232 957 232 957 180 c 256,43,44
 957 128 957 128 931.5 84 c 128,-1,45
 906 40 906 40 862 14 c 128,-1,46
 818 -12 818 -12 766 -12 c 256,47,32
 714 -12 714 -12 670.5 14 c 128,-1,33
829.5 116 m 128,-1,49
 856 143 856 143 856 180 c 256,50,51
 856 217 856 217 829.5 243.5 c 128,-1,52
 803 270 803 270 766 270 c 256,53,54
 729 270 729 270 703 243.5 c 128,-1,55
 677 217 677 217 677 180 c 0,56,57
 677 142 677 142 703 115.5 c 128,-1,58
 729 89 729 89 766 89 c 256,59,48
 803 89 803 89 829.5 116 c 128,-1,49
EndSplineSet
EndChar
StartChar: ampersand
Encoding: 38 38 298
Width: 727
GlyphClass: 1
Flags: W
LayerCount: 2
Fore
SplineSet
150 8 m 128,-1,1
 97 29 97 29 66 69.5 c 128,-1,2
 35 110 35 110 35 165 c 0,3,4
 35 249 35 249 95.5 308 c 128,-1,5
 156 367 156 367 250 392 c 1,6,7
 209 463 209 463 209 518 c 256,8,9
 209 573 209 573 237 613 c 128,-1,10
 265 653 265 653 312 674.5 c 128,-1,11
 359 696 359 696 414 696 c 0,12,13
 462 696 462 696 503 678 c 128,-1,14
 544 660 544 660 568 625.5 c 128,-1,15
 592 591 592 591 592 546 c 0,16,17
 592 480 592 480 545.5 430.5 c 128,-1,18
 499 381 499 381 422 353 c 1,19,-1
 509 221 l 1,20,21
 556 285 556 285 580 360 c 1,22,-1
 695 360 l 1,23,24
 678 297 678 297 644.5 238 c 128,-1,25
 611 179 611 179 567 132 c 1,26,-1
 655 0 l 1,27,-1
 514 0 l 1,28,-1
 477 55 l 1,29,30
 380 -13 380 -13 268 -13 c 0,31,0
 203 -13 203 -13 150 8 c 128,-1,1
420 138 m 1,33,-1
 301 311 l 1,34,35
 241 295 241 295 204 262 c 128,-1,36
 167 229 167 229 167 181 c 0,37,38
 167 140 167 140 200 116 c 128,-1,39
 233 92 233 92 283 92 c 0,40,32
 360 92 360 92 420 138 c 1,33,-1
448.5 471.5 m 128,-1,42
 480 499 480 499 480 537 c 0,43,44
 480 565 480 565 459.5 582 c 128,-1,45
 439 599 439 599 408 599 c 0,46,47
 373 599 373 599 349.5 579.5 c 128,-1,48
 326 560 326 560 326 527 c 0,49,50
 326 508 326 508 337 484.5 c 128,-1,51
 348 461 348 461 370 429 c 1,52,41
 417 444 417 444 448.5 471.5 c 128,-1,42
EndSplineSet
EndChar
StartChar: quotesingle
Encoding: 39 39 294
Width: 198
GlyphClass: 1
Flags: W
LayerCount: 2
Fore
SplineSet
129 668 m 1,0,-1
 247 668 l 1,1,-1
 185 439 l 1,2,-1
 94 439 l 1,3,-1
 129 668 l 1,0,-1
EndSplineSet
EndChar
StartChar: parenleft
Encoding: 40 40 277
Width: 325
GlyphClass: 1
Flags: W
LayerCount: 2
Fore
SplineSet
44 129 m 0,1,2
 44 282 44 282 103 430 c 128,-1,3
 162 578 162 578 276 708 c 1,4,-1
 411 708 l 1,5,6
 290 582 290 582 225.5 430 c 128,-1,7
 161 278 161 278 161 122 c 0,8,9
 161 -29 161 -29 214 -162 c 1,10,-1
 96 -162 l 1,11,0
 44 -26 44 -26 44 129 c 0,1,2
EndSplineSet
EndChar
StartChar: parenright
Encoding: 41 41 278
Width: 325
GlyphClass: 1
Flags: W
LayerCount: 2
Fore
SplineSet
109.5 116 m 128,-1,1
 174 268 174 268 174 425 c 0,2,3
 174 576 174 576 121 709 c 1,4,-1
 240 709 l 1,5,6
 291 576 291 576 291 418 c 0,7,8
 291 265 291 265 232 117 c 128,-1,9
 173 -31 173 -31 59 -161 c 1,10,-1
 -76 -161 l 1,11,0
 45 -36 45 -36 109.5 116 c 128,-1,1
EndSplineSet
EndChar
StartChar: asterisk
Encoding: 42 42 269
Width: 486
GlyphClass: 1
Flags: W
LayerCount: 2
Fore
SplineSet
134 382 m 1,0,-1
 228 475 l 1,1,-1
 117 525 l 1,2,-1
 158 597 l 1,3,-1
 266 546 l 1,4,-1
 292 668 l 1,5,-1
 370 668 l 1,6,-1
 342 538 l 1,7,-1
 468 564 l 1,8,-1
 477 488 l 1,9,-1
 350 462 l 1,10,-1
 402 353 l 1,11,-1
 333 316 l 1,12,-1
 281 423 l 1,13,-1
 187 329 l 1,14,-1
 134 382 l 1,0,-1
EndSplineSet
EndChar
StartChar: plus
Encoding: 43 43 320
Width: 597
GlyphClass: 1
Flags: W
LayerCount: 2
Fore
SplineSet
232 193 m 1,0,-1
 34 193 l 1,1,-1
 58 303 l 1,2,-1
 256 303 l 1,3,-1
 297 496 l 1,4,-1
 406 496 l 1,5,-1
 365 303 l 1,6,-1
 564 303 l 1,7,-1
 540 193 l 1,8,-1
 341 193 l 1,9,-1
 300 0 l 1,10,-1
 191 0 l 1,11,-1
 232 193 l 1,0,-1
EndSplineSet
EndChar
StartChar: comma
Encoding: 44 44 259
Width: 254
GlyphClass: 1
Flags: W
LayerCount: 2
Fore
SplineSet
21 23 m 128,-1,1
 6 45 6 45 6 73 c 0,2,3
 6 108 6 108 30.5 133 c 128,-1,4
 55 158 55 158 89 158 c 0,5,6
 125 158 125 158 149.5 134 c 128,-1,7
 174 110 174 110 174 76 c 0,8,9
 174 47 174 47 154 16 c 2,10,-1
 55 -141 l 1,11,-1
 -22 -141 l 1,12,-1
 59 -8 l 1,13,0
 36 1 36 1 21 23 c 128,-1,1
EndSplineSet
EndChar
StartChar: period
Encoding: 46 46 258
Width: 255
GlyphClass: 1
Flags: W
LayerCount: 2
Fore
SplineSet
31 13 m 128,-1,1
 6 38 6 38 6 73 c 256,2,3
 6 108 6 108 31 133 c 128,-1,4
 56 158 56 158 91 158 c 256,5,6
 126 158 126 158 150.5 133 c 128,-1,7
 175 108 175 108 175 73 c 256,8,9
 175 38 175 38 150.5 13 c 128,-1,10
 126 -12 126 -12 91 -12 c 256,11,0
 56 -12 56 -12 31 13 c 128,-1,1
EndSplineSet
EndChar
StartChar: slash
Encoding: 47 47 271
Width: 425
GlyphClass: 5
Flags: W
LayerCount: 2
Fore
SplineSet
376 708 m 1,0,-1
 503 708 l 1,1,-1
 75 -90 l 1,2,-1
 -52 -90 l 1,3,-1
 376 708 l 1,0,-1
EndSplineSet
EndChar
StartChar: zero
Encoding: 48 48 229
Width: 652
GlyphClass: 1
Flags: W
LayerCount: 2
Fore
SplineSet
122 57.5 m 128,-1,1
 60 127 60 127 60 247 c 0,2,3
 60 344 60 344 94 444 c 128,-1,4
 128 544 128 544 202 612.5 c 128,-1,5
 276 681 276 681 387 681 c 0,6,7
 507 681 507 681 568.5 611.5 c 128,-1,8
 630 542 630 542 630 424 c 0,9,10
 630 328 630 328 595.5 227 c 128,-1,11
 561 126 561 126 487 57 c 128,-1,12
 413 -12 413 -12 303 -12 c 0,13,0
 184 -12 184 -12 122 57.5 c 128,-1,1
399 123 m 1,15,-1
 238 473 l 1,16,17
 211 423 211 423 197 359 c 128,-1,18
 183 295 183 295 183 242 c 0,19,20
 183 170 183 170 212 128 c 128,-1,21
 241 86 241 86 306 86 c 0,22,14
 359 86 359 86 399 123 c 1,15,-1
492 311.5 m 128,-1,24
 505 373 505 373 505 426 c 0,25,26
 505 498 505 498 476.5 540.5 c 128,-1,27
 448 583 448 583 385 583 c 0,28,29
 333 583 333 583 293 548 c 1,30,-1
 453 199 l 1,31,23
 479 250 479 250 492 311.5 c 128,-1,24
EndSplineSet
Substitution2: "'tnum' Tabular Numbers in Latin lookup 10 subtable" zero.tf
AlternateSubs2: "'aalt' Access All Alternates in Latin lookup 0 subtable" zero.tf
EndChar
StartChar: one
Encoding: 49 49 230
Width: 432
GlyphClass: 5
Flags: W
LayerCount: 2
Fore
SplineSet
250 470 m 1,0,-1
 88 470 l 1,1,-1
 109 571 l 1,2,3
 183 571 183 571 217.5 577 c 128,-1,4
 252 583 252 583 274.5 602 c 128,-1,5
 297 621 297 621 326 668 c 1,6,-1
 417 668 l 1,7,-1
 275 0 l 1,8,-1
 151 0 l 1,9,-1
 250 470 l 1,0,-1
EndSplineSet
Substitution2: "'tnum' Tabular Numbers in Latin lookup 10 subtable" one.tf
Substitution2: "'sups' Superscript in Latin lookup 6 subtable" uni00B9
AlternateSubs2: "'aalt' Access All Alternates in Latin lookup 0 subtable" uni00B9 one.tf
EndChar
StartChar: two
Encoding: 50 50 231
Width: 571
GlyphClass: 5
Flags: W
LayerCount: 2
Fore
SplineSet
226.5 246.5 m 128,-1,1
 319 309 319 309 379.5 374 c 128,-1,2
 440 439 440 439 440 499 c 0,3,4
 440 538 440 538 412.5 561 c 128,-1,5
 385 584 385 584 340 584 c 0,6,7
 297 584 297 584 263 561.5 c 128,-1,8
 229 539 229 539 210 489 c 1,9,-1
 95 535 l 1,10,11
 130 609 130 609 196 644.5 c 128,-1,12
 262 680 262 680 344 680 c 0,13,14
 442 680 442 680 505 634.5 c 128,-1,15
 568 589 568 589 568 508 c 0,16,17
 568 424 568 424 507.5 349 c 128,-1,18
 447 274 447 274 364.5 218.5 c 128,-1,19
 282 163 282 163 177 107 c 1,20,-1
 500 107 l 1,21,-1
 477 0 l 1,22,-1
 -23 0 l 1,23,-1
 -1 106 l 1,24,0
 134 184 134 184 226.5 246.5 c 128,-1,1
EndSplineSet
Substitution2: "'tnum' Tabular Numbers in Latin lookup 10 subtable" two.tf
Substitution2: "'sups' Superscript in Latin lookup 6 subtable" uni00B2
AlternateSubs2: "'aalt' Access All Alternates in Latin lookup 0 subtable" uni00B2 two.tf
EndChar
StartChar: three
Encoding: 51 51 232
Width: 594
GlyphClass: 5
Flags: W
LayerCount: 2
Fore
SplineSet
105 29 m 128,-1,1
 40 70 40 70 24 148 c 1,2,-1
 141 184 l 1,3,4
 148 134 148 134 183.5 109 c 128,-1,5
 219 84 219 84 270 84 c 0,6,7
 326 84 326 84 361.5 116 c 128,-1,8
 397 148 397 148 397 199 c 0,9,10
 397 247 397 247 357 273.5 c 128,-1,11
 317 300 317 300 252 300 c 2,12,-1
 232 300 l 1,13,-1
 251 394 l 1,14,-1
 317 394 l 2,15,16
 377 394 377 394 413 424 c 128,-1,17
 449 454 449 454 449 500 c 0,18,19
 449 539 449 539 417.5 561.5 c 128,-1,20
 386 584 386 584 341 584 c 0,21,22
 293 584 293 584 258.5 561 c 128,-1,23
 224 538 224 538 209 492 c 1,24,-1
 95 535 l 1,25,26
 131 609 131 609 198.5 644.5 c 128,-1,27
 266 680 266 680 346 680 c 0,28,29
 406 680 406 680 459 661.5 c 128,-1,30
 512 643 512 643 544.5 606 c 128,-1,31
 577 569 577 569 577 516 c 0,32,33
 577 452 577 452 537 403 c 128,-1,34
 497 354 497 354 429 338 c 1,35,36
 476 320 476 320 501 283 c 128,-1,37
 526 246 526 246 526 201 c 0,38,39
 526 137 526 137 490.5 88.5 c 128,-1,40
 455 40 455 40 394.5 14 c 128,-1,41
 334 -12 334 -12 262 -12 c 0,42,0
 170 -12 170 -12 105 29 c 128,-1,1
EndSplineSet
Substitution2: "'tnum' Tabular Numbers in Latin lookup 10 subtable" three.tf
Substitution2: "'sups' Superscript in Latin lookup 6 subtable" uni00B3
AlternateSubs2: "'aalt' Access All Alternates in Latin lookup 0 subtable" uni00B3 three.tf
EndChar
StartChar: four
Encoding: 52 52 233
Width: 621
GlyphClass: 5
Flags: W
LayerCount: 2
Fore
SplineSet
335 150 m 1,0,-1
 7 150 l 1,1,-1
 29 249 l 1,2,-1
 432 668 l 1,3,-1
 571 668 l 1,4,-1
 484 263 l 1,5,-1
 588 263 l 1,6,-1
 564 150 l 1,7,-1
 461 150 l 1,8,-1
 429 0 l 1,9,-1
 303 0 l 1,10,-1
 335 150 l 1,0,-1
359 263 m 1,11,-1
 410 502 l 1,12,-1
 177 263 l 1,13,-1
 359 263 l 1,11,-1
EndSplineSet
Substitution2: "'tnum' Tabular Numbers in Latin lookup 10 subtable" four.tf
AlternateSubs2: "'aalt' Access All Alternates in Latin lookup 0 subtable" four.tf
EndChar
StartChar: five
Encoding: 53 53 234
Width: 601
GlyphClass: 1
Flags: W
LayerCount: 2
Fore
SplineSet
118.5 29 m 128,-1,1
 57 70 57 70 37 147 c 1,2,-1
 150 184 l 1,3,4
 156 136 156 136 187.5 110 c 128,-1,5
 219 84 219 84 269 84 c 0,6,7
 315 84 315 84 348.5 107 c 128,-1,8
 382 130 382 130 399.5 167 c 128,-1,9
 417 204 417 204 417 245 c 0,10,11
 417 298 417 298 385.5 326.5 c 128,-1,12
 354 355 354 355 308 355 c 0,13,14
 271 355 271 355 237.5 336.5 c 128,-1,15
 204 318 204 318 181 287 c 1,16,-1
 76 327 l 1,17,-1
 189 668 l 1,18,-1
 611 668 l 1,19,-1
 589 561 l 1,20,-1
 270 561 l 1,21,-1
 221 414 l 1,22,23
 274 452 274 452 351 452 c 0,24,25
 406 452 406 452 450.5 427.5 c 128,-1,26
 495 403 495 403 521 358 c 128,-1,27
 547 313 547 313 547 254 c 0,28,29
 547 178 547 178 511 117 c 128,-1,30
 475 56 475 56 412 22 c 128,-1,31
 349 -12 349 -12 269 -12 c 0,32,0
 180 -12 180 -12 118.5 29 c 128,-1,1
EndSplineSet
Substitution2: "'tnum' Tabular Numbers in Latin lookup 10 subtable" five.tf
AlternateSubs2: "'aalt' Access All Alternates in Latin lookup 0 subtable" five.tf
EndChar
StartChar: six
Encoding: 54 54 235
Width: 619
GlyphClass: 1
Flags: W
LayerCount: 2
Fore
SplineSet
124 50 m 128,-1,1
 61 112 61 112 61 229 c 0,2,3
 61 324 61 324 97.5 429 c 128,-1,4
 134 534 134 534 209 607 c 128,-1,5
 284 680 284 680 392 680 c 0,6,7
 461 680 461 680 514.5 652.5 c 128,-1,8
 568 625 568 625 591 568 c 1,9,-1
 476 529 l 1,10,11
 465 555 465 555 440.5 569 c 128,-1,12
 416 583 416 583 385 583 c 0,13,14
 326 583 326 583 281.5 534.5 c 128,-1,15
 237 486 237 486 216 397 c 1,16,17
 243 421 243 421 280 435 c 128,-1,18
 317 449 317 449 360 449 c 0,19,20
 417 449 417 449 463 424.5 c 128,-1,21
 509 400 509 400 535.5 355.5 c 128,-1,22
 562 311 562 311 562 253 c 0,23,24
 562 185 562 185 528 124 c 128,-1,25
 494 63 494 63 432.5 25.5 c 128,-1,26
 371 -12 371 -12 292 -12 c 0,27,0
 187 -12 187 -12 124 50 c 128,-1,1
366 108 m 128,-1,29
 397 130 397 130 414 165.5 c 128,-1,30
 431 201 431 201 431 241 c 0,31,32
 431 294 431 294 400 322 c 128,-1,33
 369 350 369 350 322 350 c 0,34,35
 279 350 279 350 247.5 327 c 128,-1,36
 216 304 216 304 200 268 c 128,-1,37
 184 232 184 232 184 194 c 0,38,39
 184 141 184 141 216.5 113.5 c 128,-1,40
 249 86 249 86 294 86 c 0,41,28
 335 86 335 86 366 108 c 128,-1,29
EndSplineSet
Substitution2: "'tnum' Tabular Numbers in Latin lookup 10 subtable" six.tf
AlternateSubs2: "'aalt' Access All Alternates in Latin lookup 0 subtable" six.tf
EndChar
StartChar: seven
Encoding: 55 55 236
Width: 530
GlyphClass: 1
Flags: W
LayerCount: 2
Fore
SplineSet
424 561 m 1,0,-1
 82 561 l 1,1,-1
 105 668 l 1,2,-1
 589 668 l 1,3,-1
 566 561 l 1,4,-1
 186 0 l 1,5,-1
 33 0 l 1,6,-1
 424 561 l 1,0,-1
EndSplineSet
Substitution2: "'tnum' Tabular Numbers in Latin lookup 10 subtable" seven.tf
AlternateSubs2: "'aalt' Access All Alternates in Latin lookup 0 subtable" seven.tf
EndChar
StartChar: eight
Encoding: 56 56 237
Width: 622
GlyphClass: 1
Flags: W
LayerCount: 2
Fore
SplineSet
168 9 m 128,-1,1
 109 31 109 31 72.5 75 c 128,-1,2
 36 119 36 119 36 182 c 0,3,4
 36 253 36 253 77.5 305.5 c 128,-1,5
 119 358 119 358 193 389 c 1,6,7
 171 427 171 427 171 471 c 0,8,9
 171 525 171 525 199 573.5 c 128,-1,10
 227 622 227 622 275.5 651 c 128,-1,11
 324 680 324 680 382 680 c 0,12,13
 428 680 428 680 467 659 c 128,-1,14
 506 638 506 638 528.5 600.5 c 128,-1,15
 551 563 551 563 551 514 c 0,16,17
 551 472 551 472 532.5 431 c 128,-1,18
 514 390 514 390 480 358 c 1,19,20
 564 300 564 300 564 213 c 0,21,22
 564 145 564 145 528 93.5 c 128,-1,23
 492 42 492 42 430 14.5 c 128,-1,24
 368 -13 368 -13 294 -13 c 0,25,0
 227 -13 227 -13 168 9 c 128,-1,1
393.5 124 m 128,-1,27
 433 155 433 155 433 207 c 0,28,29
 433 255 433 255 394.5 279 c 128,-1,30
 356 303 356 303 304 303 c 0,31,32
 247 303 247 303 207 272 c 128,-1,33
 167 241 167 241 167 190 c 0,34,35
 167 141 167 141 206 117 c 128,-1,36
 245 93 245 93 297 93 c 0,37,26
 354 93 354 93 393.5 124 c 128,-1,27
417.5 435.5 m 128,-1,39
 445 463 445 463 445 500 c 0,40,41
 445 532 445 532 424.5 553 c 128,-1,42
 404 574 404 574 371 574 c 0,43,44
 332 574 332 574 305 546.5 c 128,-1,45
 278 519 278 519 278 483 c 0,46,47
 278 451 278 451 298.5 429.5 c 128,-1,48
 319 408 319 408 352 408 c 0,49,38
 390 408 390 408 417.5 435.5 c 128,-1,39
EndSplineSet
Substitution2: "'tnum' Tabular Numbers in Latin lookup 10 subtable" eight.tf
AlternateSubs2: "'aalt' Access All Alternates in Latin lookup 0 subtable" eight.tf
EndChar
StartChar: nine
Encoding: 57 57 238
Width: 577
GlyphClass: 1
Flags: W
LayerCount: 2
Fore
SplineSet
186.5 228.5 m 128,-1,1
 137 256 137 256 109.5 304.5 c 128,-1,2
 82 353 82 353 82 412 c 0,3,4
 82 480 82 480 118.5 541.5 c 128,-1,5
 155 603 155 603 217 640.5 c 128,-1,6
 279 678 279 678 351 678 c 0,7,8
 413 678 413 678 462.5 649.5 c 128,-1,9
 512 621 512 621 539.5 572 c 128,-1,10
 567 523 567 523 567 463 c 256,11,12
 567 403 567 403 539.5 349.5 c 128,-1,13
 512 296 512 296 459 231 c 2,14,-1
 272 0 l 1,15,-1
 127 0 l 1,16,-1
 298 201 l 1,17,0
 236 201 236 201 186.5 228.5 c 128,-1,1
380 329.5 m 128,-1,19
 413 348 413 348 432.5 380 c 128,-1,20
 452 412 452 412 452 450 c 0,21,22
 452 500 452 500 419 531 c 128,-1,23
 386 562 386 562 339 562 c 0,24,25
 302 562 302 562 269 543.5 c 128,-1,26
 236 525 236 525 216.5 493 c 128,-1,27
 197 461 197 461 197 423 c 0,28,29
 197 373 197 373 230 342 c 128,-1,30
 263 311 263 311 310 311 c 0,31,18
 347 311 347 311 380 329.5 c 128,-1,19
EndSplineSet
Substitution2: "'tnum' Tabular Numbers in Latin lookup 10 subtable" nine.tf
AlternateSubs2: "'aalt' Access All Alternates in Latin lookup 0 subtable" nine.tf
EndChar
StartChar: less
Encoding: 60 60 327
Width: 565
GlyphClass: 1
Flags: W
LayerCount: 2
Fore
SplineSet
31 206 m 1,0,-1
 49 292 l 1,1,-1
 579 504 l 1,2,-1
 552 375 l 1,3,-1
 185 242 l 1,4,-1
 495 109 l 1,5,-1
 471 -7 l 1,6,-1
 31 206 l 1,0,-1
EndSplineSet
EndChar
StartChar: equal
Encoding: 61 61 324
Width: 616
GlyphClass: 1
Flags: W
LayerCount: 2
Fore
SplineSet
87 401 m 1,0,-1
 593 401 l 1,1,-1
 570 292 l 1,2,-1
 64 292 l 1,3,-1
 87 401 l 1,0,-1
48 215 m 1,4,-1
 554 215 l 1,5,-1
 531 106 l 1,6,-1
 25 106 l 1,7,-1
 48 215 l 1,4,-1
EndSplineSet
EndChar
StartChar: greater
Encoding: 62 62 326
Width: 565
GlyphClass: 1
Flags: W
LayerCount: 2
Fore
SplineSet
13 123 m 1,0,-1
 381 256 l 1,1,-1
 70 388 l 1,2,-1
 94 504 l 1,3,-1
 535 292 l 1,4,-1
 516 205 l 1,5,-1
 -14 -7 l 1,6,-1
 13 123 l 1,0,-1
EndSplineSet
EndChar
StartChar: question
Encoding: 63 63 265
Width: 530
GlyphClass: 1
Flags: W
LayerCount: 2
Fore
SplineSet
212.5 342 m 128,-1,1
 244 381 244 381 314 405 c 0,2,3
 374 427 374 427 403 450.5 c 128,-1,4
 432 474 432 474 432 508 c 0,5,6
 432 540 432 540 401 559.5 c 128,-1,7
 370 579 370 579 325 579 c 0,8,9
 279 579 279 579 242.5 556 c 128,-1,10
 206 533 206 533 187 491 c 1,11,-1
 74 533 l 1,12,13
 99 605 99 605 170 642.5 c 128,-1,14
 241 680 241 680 328 680 c 0,15,16
 388 680 388 680 442 661 c 128,-1,17
 496 642 496 642 529.5 605 c 128,-1,18
 563 568 563 568 563 517 c 0,19,20
 563 448 563 448 521.5 404.5 c 128,-1,21
 480 361 480 361 396 325 c 0,22,23
 339 302 339 302 318.5 283 c 128,-1,24
 298 264 298 264 292 237 c 2,25,-1
 287 216 l 1,26,-1
 160 216 l 1,27,-1
 164 237 l 1,28,0
 181 303 181 303 212.5 342 c 128,-1,1
134 13 m 128,-1,30
 109 38 109 38 109 73 c 256,31,32
 109 108 109 108 134 133 c 128,-1,33
 159 158 159 158 194 158 c 256,34,35
 229 158 229 158 253.5 133 c 128,-1,36
 278 108 278 108 278 73 c 256,37,38
 278 38 278 38 253.5 13 c 128,-1,39
 229 -12 229 -12 194 -12 c 256,40,29
 159 -12 159 -12 134 13 c 128,-1,30
EndSplineSet
EndChar
StartChar: at
Encoding: 64 64 297
Width: 780
GlyphClass: 1
Flags: W
LayerCount: 2
Fore
SplineSet
193 -59.5 m 128,-1,1
 119 -19 119 -19 76.5 52.5 c 128,-1,2
 34 124 34 124 34 213 c 0,3,4
 34 319 34 319 87.5 409.5 c 128,-1,5
 141 500 141 500 232.5 554 c 128,-1,6
 324 608 324 608 434 608 c 0,7,8
 525 608 525 608 598.5 570 c 128,-1,9
 672 532 672 532 714 466 c 128,-1,10
 756 400 756 400 756 319 c 0,11,12
 756 267 756 267 734 209.5 c 128,-1,13
 712 152 712 152 668 113 c 128,-1,14
 624 74 624 74 562 74 c 0,15,16
 525 74 525 74 497 91.5 c 128,-1,17
 469 109 469 109 458 137 c 1,18,19
 407 75 407 75 335 75 c 0,20,21
 277 75 277 75 241 115.5 c 128,-1,22
 205 156 205 156 205 217 c 0,23,24
 205 273 205 273 231 324 c 128,-1,25
 257 375 257 375 306.5 406.5 c 128,-1,26
 356 438 356 438 422 438 c 0,27,28
 490 438 490 438 563 404 c 1,29,-1
 524 224 l 2,30,31
 521 211 521 211 521 199 c 0,32,33
 521 148 521 148 574 148 c 0,34,35
 609 148 609 148 634 176 c 128,-1,36
 659 204 659 204 671.5 243 c 128,-1,37
 684 282 684 282 684 315 c 0,38,39
 684 377 684 377 650.5 428.5 c 128,-1,40
 617 480 617 480 558.5 509.5 c 128,-1,41
 500 539 500 539 429 539 c 0,42,43
 339 539 339 539 266 494.5 c 128,-1,44
 193 450 193 450 151.5 376.5 c 128,-1,45
 110 303 110 303 110 218 c 0,46,47
 110 145 110 145 144 88.5 c 128,-1,48
 178 32 178 32 237 0.5 c 128,-1,49
 296 -31 296 -31 366 -31 c 0,50,51
 425 -31 425 -31 478 -9 c 1,52,-1
 463 -84 l 1,53,54
 413 -100 413 -100 358 -100 c 0,55,0
 267 -100 267 -100 193 -59.5 c 128,-1,1
412 180 m 128,-1,57
 437 204 437 204 445 239 c 2,58,-1
 467 351 l 1,59,60
 440 360 440 360 413 360 c 0,61,62
 360 360 360 360 329 321 c 128,-1,63
 298 282 298 282 298 230 c 0,64,65
 298 198 298 198 314 177 c 128,-1,66
 330 156 330 156 357 156 c 0,67,56
 387 156 387 156 412 180 c 128,-1,57
EndSplineSet
EndChar
StartChar: A
Encoding: 65 65 2
Width: 665
GlyphClass: 2
Flags: W
AnchorPoint: "Anchor-2" 607 10 basechar 0
AnchorPoint: "Anchor-1" 422 668 basechar 0
AnchorPoint: "Anchor-0" 280 0 basechar 0
LayerCount: 2
Fore
SplineSet
349 668 m 1,0,-1
 494 668 l 1,1,-1
 605 0 l 1,2,-1
 465 0 l 1,3,-1
 447 130 l 1,4,-1
 173 130 l 1,5,-1
 101 0 l 1,6,-1
 -46 0 l 1,7,-1
 349 668 l 1,0,-1
433 239 m 1,8,-1
 395 528 l 1,9,-1
 233 239 l 1,10,-1
 433 239 l 1,8,-1
EndSplineSet
Substitution2: "Single Substitution lookup 15 subtable" ordfeminine
AlternateSubs2: "'aalt' Access All Alternates in Latin lookup 0 subtable" ordfeminine
EndChar
StartChar: B
Encoding: 66 66 13
Width: 635
GlyphClass: 2
Flags: W
AnchorPoint: "Anchor-1" 416 668 basechar 0
AnchorPoint: "Anchor-0" 274 0 basechar 0
LayerCount: 2
Fore
SplineSet
154 668 m 1,0,-1
 399 668 l 2,1,2
 507 668 507 668 569.5 625.5 c 128,-1,3
 632 583 632 583 632 509 c 0,4,5
 632 449 632 449 599 404.5 c 128,-1,6
 566 360 566 360 508 340 c 1,7,8
 548 321 548 321 572 287 c 128,-1,9
 596 253 596 253 596 208 c 0,10,11
 596 147 596 147 567 99.5 c 128,-1,12
 538 52 538 52 485 26 c 128,-1,13
 432 0 432 0 363 0 c 2,14,-1
 12 0 l 1,15,-1
 154 668 l 1,0,-1
429.5 138.5 m 128,-1,17
 460 166 460 166 460 213 c 0,18,19
 460 249 460 249 432 270.5 c 128,-1,20
 404 292 404 292 352 292 c 2,21,-1
 207 292 l 1,22,-1
 168 111 l 1,23,-1
 344 111 l 2,24,16
 399 111 399 111 429.5 138.5 c 128,-1,17
467 420 m 128,-1,26
 494 445 494 445 494 487 c 0,27,28
 494 519 494 519 469 539 c 128,-1,29
 444 559 444 559 396 559 c 2,30,-1
 264 559 l 1,31,-1
 229 395 l 1,32,-1
 392 395 l 2,33,25
 440 395 440 395 467 420 c 128,-1,26
EndSplineSet
EndChar
StartChar: C
Encoding: 67 67 14
Width: 656
GlyphClass: 2
Flags: W
AnchorPoint: "Anchor-1" 443 668 basechar 0
AnchorPoint: "Anchor-0" 344 0 basechar 0
LayerCount: 2
Fore
SplineSet
187 23 m 128,-1,1
 121 58 121 58 86 122 c 128,-1,2
 51 186 51 186 51 271 c 0,3,4
 51 377 51 377 96 471 c 128,-1,5
 141 565 141 565 224.5 622.5 c 128,-1,6
 308 680 308 680 419 680 c 0,7,8
 510 680 510 680 577.5 640 c 128,-1,9
 645 600 645 600 675 522 c 1,10,-1
 559 482 l 1,11,12
 542 523 542 523 503.5 546.5 c 128,-1,13
 465 570 465 570 416 570 c 0,14,15
 343 570 343 570 291.5 524 c 128,-1,16
 240 478 240 478 215 410.5 c 128,-1,17
 190 343 190 343 190 279 c 0,18,19
 190 199 190 199 232 148.5 c 128,-1,20
 274 98 274 98 355 98 c 0,21,22
 454 98 454 98 508 182 c 1,23,-1
 625 136 l 1,24,25
 574 60 574 60 501.5 24 c 128,-1,26
 429 -12 429 -12 344 -12 c 0,27,0
 253 -12 253 -12 187 23 c 128,-1,1
EndSplineSet
EndChar
StartChar: D
Encoding: 68 68 19
Width: 684
GlyphClass: 2
Flags: W
AnchorPoint: "Anchor-1" 427 668 basechar 0
AnchorPoint: "Anchor-0" 295 0 basechar 0
LayerCount: 2
Fore
SplineSet
154 668 m 1,0,-1
 303 668 l 2,1,2
 475 668 475 668 571.5 599 c 128,-1,3
 668 530 668 530 668 395 c 0,4,5
 668 300 668 300 633 210 c 128,-1,6
 598 120 598 120 514.5 60 c 128,-1,7
 431 0 431 0 296 0 c 2,8,-1
 12 0 l 1,9,-1
 154 668 l 1,0,-1
431.5 150 m 128,-1,11
 482 188 482 188 506.5 249 c 128,-1,12
 531 310 531 310 531 379 c 0,13,14
 531 557 531 557 304 557 c 2,15,-1
 263 557 l 1,16,-1
 168 112 l 1,17,-1
 306 112 l 2,18,10
 381 112 381 112 431.5 150 c 128,-1,11
EndSplineSet
EndChar
StartChar: F
Encoding: 70 70 32
Width: 562
GlyphClass: 2
Flags: W
AnchorPoint: "Anchor-1" 370 668 basechar 0
AnchorPoint: "Anchor-0" 228 0 basechar 0
LayerCount: 2
Fore
SplineSet
154 668 m 1,0,-1
 614 668 l 1,1,-1
 589 552 l 1,2,-1
 262 552 l 1,3,-1
 226 383 l 1,4,-1
 550 383 l 1,5,-1
 525 267 l 1,6,-1
 201 267 l 1,7,-1
 145 0 l 1,8,-1
 12 0 l 1,9,-1
 154 668 l 1,0,-1
EndSplineSet
EndChar
StartChar: G
Encoding: 71 71 33
Width: 712
GlyphClass: 2
Flags: W
AnchorPoint: "Anchor-1" 444 668 basechar 0
AnchorPoint: "Anchor-0" 301 0 basechar 0
LayerCount: 2
Fore
SplineSet
176.5 22.5 m 128,-1,1
 115 57 115 57 82.5 120.5 c 128,-1,2
 50 184 50 184 50 268 c 0,3,4
 50 374 50 374 94.5 468.5 c 128,-1,5
 139 563 139 563 223.5 621.5 c 128,-1,6
 308 680 308 680 422 680 c 0,7,8
 518 680 518 680 587.5 638 c 128,-1,9
 657 596 657 596 682 529 c 1,10,-1
 563 488 l 1,11,12
 550 524 550 524 511.5 547 c 128,-1,13
 473 570 473 570 419 570 c 0,14,15
 343 570 343 570 291 523.5 c 128,-1,16
 239 477 239 477 214 408.5 c 128,-1,17
 189 340 189 340 189 276 c 0,18,19
 189 195 189 195 231 146.5 c 128,-1,20
 273 98 273 98 352 98 c 0,21,22
 413 98 413 98 464 129.5 c 128,-1,23
 515 161 515 161 531 237 c 2,24,-1
 534 255 l 1,25,-1
 367 255 l 1,26,-1
 390 365 l 1,27,-1
 690 365 l 1,28,-1
 612 0 l 1,29,-1
 523 0 l 1,30,-1
 521 72 l 1,31,32
 438 -12 438 -12 323 -12 c 0,33,0
 238 -12 238 -12 176.5 22.5 c 128,-1,1
EndSplineSet
EndChar
StartChar: I
Encoding: 73 73 39
Width: 417
GlyphClass: 2
Flags: W
AnchorPoint: "Anchor-2" 318 10 basechar 0
AnchorPoint: "Anchor-1" 298 668 basechar 0
AnchorPoint: "Anchor-0" 156 0 basechar 0
LayerCount: 2
Fore
SplineSet
17 98 m 1,0,-1
 110 98 l 1,1,-1
 210 570 l 1,2,-1
 117 570 l 1,3,-1
 138 668 l 1,4,-1
 458 668 l 1,5,-1
 437 570 l 1,6,-1
 343 570 l 1,7,-1
 243 98 l 1,8,-1
 337 98 l 1,9,-1
 316 0 l 1,10,-1
 -4 0 l 1,11,-1
 17 98 l 1,0,-1
EndSplineSet
EndChar
StartChar: J
Encoding: 74 74 48
Width: 549
GlyphClass: 2
Flags: W
AnchorPoint: "Anchor-1" 506 668 basechar 0
AnchorPoint: "Anchor-0" 217 0 basechar 0
LayerCount: 2
Fore
SplineSet
61.5 38 m 128,-1,1
 3 88 3 88 -3 181 c 1,2,-1
 124 223 l 1,3,4
 122 165 122 165 146.5 129.5 c 128,-1,5
 171 94 171 94 222 94 c 0,6,7
 274 94 274 94 304 128.5 c 128,-1,8
 334 163 334 163 347 227 c 2,9,-1
 440 668 l 1,10,-1
 573 668 l 1,11,-1
 476 213 l 2,12,13
 453 104 453 104 386 46 c 128,-1,14
 319 -12 319 -12 217 -12 c 0,15,0
 120 -12 120 -12 61.5 38 c 128,-1,1
EndSplineSet
Substitution2: "Single Substitution lookup 14 subtable" uni004A0301
AlternateSubs2: "'aalt' Access All Alternates in Latin lookup 0 subtable" uni004A0301
EndChar
StartChar: K
Encoding: 75 75 50
Width: 655
GlyphClass: 2
Flags: W
AnchorPoint: "Anchor-1" 420 668 basechar 0
AnchorPoint: "Anchor-0" 278 0 basechar 0
LayerCount: 2
Fore
SplineSet
154 668 m 1,0,-1
 287 668 l 1,1,-1
 225 376 l 1,2,-1
 541 668 l 1,3,-1
 714 668 l 1,4,-1
 388 376 l 1,5,-1
 592 0 l 1,6,-1
 443 0 l 1,7,-1
 291 289 l 1,8,-1
 186 194 l 1,9,-1
 145 0 l 1,10,-1
 12 0 l 1,11,-1
 154 668 l 1,0,-1
EndSplineSet
EndChar
StartChar: L
Encoding: 76 76 52
Width: 549
GlyphClass: 2
Flags: W
AnchorPoint: "Anchor-3" 297 459 basechar 0
AnchorPoint: "Anchor-1" 366 668 basechar 0
AnchorPoint: "Anchor-0" 224 0 basechar 0
LayerCount: 2
Fore
SplineSet
154 668 m 1,0,-1
 287 668 l 1,1,-1
 170 116 l 1,2,-1
 505 116 l 1,3,-1
 480 0 l 1,4,-1
 12 0 l 1,5,-1
 154 668 l 1,0,-1
EndSplineSet
EndChar
StartChar: M
Encoding: 77 77 56
Width: 850
GlyphClass: 2
Flags: W
AnchorPoint: "Anchor-1" 513 668 basechar 0
AnchorPoint: "Anchor-0" 371 0 basechar 0
LayerCount: 2
Fore
SplineSet
154 668 m 1,0,-1
 351 668 l 1,1,-1
 400 157 l 1,2,-1
 669 668 l 1,3,-1
 874 668 l 1,4,-1
 732 0 l 1,5,-1
 602 0 l 1,6,-1
 719 550 l 1,7,-1
 426 0 l 1,8,-1
 315 0 l 1,9,-1
 258 550 l 1,10,-1
 140 0 l 1,11,-1
 12 0 l 1,12,-1
 154 668 l 1,0,-1
EndSplineSet
EndChar
StartChar: N
Encoding: 78 78 57
Width: 711
GlyphClass: 2
Flags: W
AnchorPoint: "Anchor-1" 446 668 basechar 0
AnchorPoint: "Anchor-0" 304 0 basechar 0
LayerCount: 2
Fore
SplineSet
154 668 m 1,0,-1
 317 668 l 1,1,-1
 498 155 l 1,2,-1
 607 668 l 1,3,-1
 736 668 l 1,4,-1
 594 0 l 1,5,-1
 430 0 l 1,6,-1
 249 512 l 1,7,-1
 140 0 l 1,8,-1
 12 0 l 1,9,-1
 154 668 l 1,0,-1
EndSplineSet
EndChar
StartChar: O
Encoding: 79 79 62
Width: 737
GlyphClass: 2
Flags: W
AnchorPoint: "Anchor-3" 811 668 basechar 0
AnchorPoint: "Anchor-2" 616 10 basechar 0
AnchorPoint: "Anchor-1" 447 668 basechar 0
AnchorPoint: "Anchor-0" 316 0 basechar 0
LayerCount: 2
Fore
SplineSet
196 23 m 128,-1,1
 128 58 128 58 90 124 c 128,-1,2
 52 190 52 190 52 279 c 0,3,4
 52 384 52 384 98 476 c 128,-1,5
 144 568 144 568 228.5 624 c 128,-1,6
 313 680 313 680 422 680 c 0,7,8
 509 680 509 680 577 645 c 128,-1,9
 645 610 645 610 683 544 c 128,-1,10
 721 478 721 478 721 389 c 0,11,12
 721 284 721 284 675 192 c 128,-1,13
 629 100 629 100 545 44 c 128,-1,14
 461 -12 461 -12 351 -12 c 0,15,0
 264 -12 264 -12 196 23 c 128,-1,1
480.5 143.5 m 128,-1,17
 532 189 532 189 557 256 c 128,-1,18
 582 323 582 323 582 386 c 0,19,20
 582 470 582 470 538.5 520 c 128,-1,21
 495 570 495 570 418 570 c 0,22,23
 344 570 344 570 293 524.5 c 128,-1,24
 242 479 242 479 217 412 c 128,-1,25
 192 345 192 345 192 282 c 0,26,27
 192 198 192 198 235.5 148 c 128,-1,28
 279 98 279 98 355 98 c 0,29,16
 429 98 429 98 480.5 143.5 c 128,-1,17
EndSplineSet
Substitution2: "Single Substitution lookup 15 subtable" ordmasculine
AlternateSubs2: "'aalt' Access All Alternates in Latin lookup 0 subtable" ordmasculine
EndChar
StartChar: P
Encoding: 80 80 71
Width: 619
GlyphClass: 2
Flags: W
AnchorPoint: "Anchor-1" 408 668 basechar 0
AnchorPoint: "Anchor-0" 266 0 basechar 0
LayerCount: 2
Fore
SplineSet
154 668 m 1,0,-1
 399 668 l 2,1,2
 509 668 509 668 575.5 618 c 128,-1,3
 642 568 642 568 642 481 c 0,4,5
 642 409 642 409 609 355.5 c 128,-1,6
 576 302 576 302 517 273 c 128,-1,7
 458 244 458 244 382 244 c 2,8,-1
 197 244 l 1,9,-1
 145 0 l 1,10,-1
 12 0 l 1,11,-1
 154 668 l 1,0,-1
468 386 m 128,-1,13
 502 415 502 415 502 470 c 0,14,15
 502 511 502 511 472 533 c 128,-1,16
 442 555 442 555 389 555 c 2,17,-1
 263 555 l 1,18,-1
 220 357 l 1,19,-1
 371 357 l 2,20,12
 434 357 434 357 468 386 c 128,-1,13
EndSplineSet
EndChar
StartChar: Q
Encoding: 81 81 73
Width: 748
GlyphClass: 1
Flags: W
LayerCount: 2
Fore
SplineSet
196 23 m 128,-1,1
 128 58 128 58 90 124 c 128,-1,2
 52 190 52 190 52 279 c 0,3,4
 52 384 52 384 98 476 c 128,-1,5
 144 568 144 568 228.5 624 c 128,-1,6
 313 680 313 680 422 680 c 0,7,8
 509 680 509 680 577 645 c 128,-1,9
 645 610 645 610 683 544 c 128,-1,10
 721 478 721 478 721 389 c 0,11,12
 721 314 721 314 697 243.5 c 128,-1,13
 673 173 673 173 627 119 c 1,14,-1
 707 20 l 1,15,-1
 625 -51 l 1,16,-1
 546 46 l 1,17,18
 459 -12 459 -12 351 -12 c 0,19,0
 264 -12 264 -12 196 23 c 128,-1,1
471 137 m 1,21,-1
 343 294 l 1,22,-1
 426 365 l 1,23,-1
 542 223 l 1,24,25
 562 261 562 261 572 304 c 128,-1,26
 582 347 582 347 582 386 c 0,27,28
 582 470 582 470 538.5 520 c 128,-1,29
 495 570 495 570 418 570 c 0,30,31
 344 570 344 570 293 524.5 c 128,-1,32
 242 479 242 479 217 412 c 128,-1,33
 192 345 192 345 192 282 c 0,34,35
 192 198 192 198 235.5 148 c 128,-1,36
 279 98 279 98 355 98 c 0,37,20
 421 98 421 98 471 137 c 1,21,-1
EndSplineSet
EndChar
StartChar: R
Encoding: 82 82 74
Width: 641
GlyphClass: 2
Flags: W
AnchorPoint: "Anchor-1" 393 668 basechar 0
AnchorPoint: "Anchor-0" 275 0 basechar 0
LayerCount: 2
Fore
SplineSet
154 668 m 1,0,-1
 413 668 l 2,1,2
 519 668 519 668 582 621 c 128,-1,3
 645 574 645 574 645 491 c 0,4,5
 645 396 645 396 587 334 c 128,-1,6
 529 272 529 272 427 264 c 1,7,-1
 426 264 l 1,8,-1
 572 0 l 1,9,-1
 425 0 l 1,10,-1
 288 261 l 1,11,-1
 200 261 l 1,12,-1
 145 0 l 1,13,-1
 12 0 l 1,14,-1
 154 668 l 1,0,-1
473.5 400 m 128,-1,16
 505 426 505 426 505 476 c 0,17,18
 505 514 505 514 477 534.5 c 128,-1,19
 449 555 449 555 401 555 c 2,20,-1
 262 555 l 1,21,-1
 224 374 l 1,22,-1
 388 374 l 2,23,15
 442 374 442 374 473.5 400 c 128,-1,16
EndSplineSet
EndChar
StartChar: S
Encoding: 83 83 77
Width: 605
GlyphClass: 2
Flags: W
AnchorPoint: "Anchor-1" 389 668 basechar 0
AnchorPoint: "Anchor-0" 285 0 basechar 0
LayerCount: 2
Fore
SplineSet
114 31.5 m 128,-1,1
 41 75 41 75 19 158 c 1,2,-1
 142 198 l 1,3,4
 151 149 151 149 196 122.5 c 128,-1,5
 241 96 241 96 301 96 c 0,6,7
 357 96 357 96 395 120.5 c 128,-1,8
 433 145 433 145 433 192 c 0,9,10
 433 220 433 220 408.5 239.5 c 128,-1,11
 384 259 384 259 327 278 c 2,12,-1
 247 305 l 2,13,14
 178 329 178 329 135.5 370 c 128,-1,15
 93 411 93 411 93 471 c 0,16,17
 93 535 93 535 131 582.5 c 128,-1,18
 169 630 169 630 231.5 655 c 128,-1,19
 294 680 294 680 366 680 c 0,20,21
 451 680 451 680 517 643.5 c 128,-1,22
 583 607 583 607 607 537 c 1,23,-1
 486 496 l 1,24,25
 472 533 472 533 433 552.5 c 128,-1,26
 394 572 394 572 345 572 c 256,27,28
 296 572 296 572 261 551 c 128,-1,29
 226 530 226 530 226 490 c 0,30,31
 226 441 226 441 301 417 c 2,32,-1
 386 388 l 2,33,34
 469 359 469 359 518 319.5 c 128,-1,35
 567 280 567 280 567 213 c 256,36,37
 567 146 567 146 528.5 94.5 c 128,-1,38
 490 43 490 43 425.5 15.5 c 128,-1,39
 361 -12 361 -12 285 -12 c 0,40,0
 187 -12 187 -12 114 31.5 c 128,-1,1
EndSplineSet
EndChar
StartChar: U
Encoding: 85 85 87
Width: 687
GlyphClass: 2
Flags: W
AnchorPoint: "Anchor-3" 748 668 basechar 0
AnchorPoint: "Anchor-2" 514 10 basechar 0
AnchorPoint: "Anchor-1" 432 668 basechar 0
AnchorPoint: "Anchor-0" 291 0 basechar 0
LayerCount: 2
Fore
SplineSet
63 204 m 0,1,2
 63 252 63 252 76 308 c 2,3,-1
 153 668 l 1,4,-1
 286 668 l 1,5,-1
 204 280 l 2,6,7
 196 242 196 242 196 215 c 0,8,9
 196 155 196 155 230.5 126.5 c 128,-1,10
 265 98 265 98 337 98 c 0,11,12
 404 98 404 98 440 138 c 128,-1,13
 476 178 476 178 494 261 c 2,14,-1
 580 668 l 1,15,-1
 713 668 l 1,16,-1
 626 258 l 2,17,18
 596 119 596 119 527 53.5 c 128,-1,19
 458 -12 458 -12 332 -12 c 0,20,0
 63 -12 63 -12 63 204 c 0,1,2
EndSplineSet
EndChar
StartChar: V
Encoding: 86 86 96
Width: 631
GlyphClass: 2
Flags: W
AnchorPoint: "Anchor-1" 404 668 basechar 0
AnchorPoint: "Anchor-0" 262 0 basechar 0
LayerCount: 2
Fore
SplineSet
100 668 m 1,0,-1
 233 668 l 1,1,-1
 289 149 l 1,2,-1
 568 668 l 1,3,-1
 710 668 l 1,4,-1
 338 0 l 1,5,-1
 185 0 l 1,6,-1
 100 668 l 1,0,-1
EndSplineSet
EndChar
StartChar: W
Encoding: 87 87 97
Width: 879
GlyphClass: 2
Flags: W
AnchorPoint: "Anchor-1" 528 668 basechar 0
AnchorPoint: "Anchor-0" 388 0 basechar 0
LayerCount: 2
Fore
SplineSet
105 668 m 1,0,-1
 234 668 l 1,1,-1
 235 171 l 1,2,-1
 457 668 l 1,3,-1
 593 668 l 1,4,-1
 604 171 l 1,5,-1
 816 668 l 1,6,-1
 951 668 l 1,7,-1
 646 0 l 1,8,-1
 503 0 l 1,9,-1
 491 494 l 1,10,-1
 270 0 l 1,11,-1
 128 0 l 1,12,-1
 105 668 l 1,0,-1
EndSplineSet
EndChar
StartChar: Y
Encoding: 89 89 103
Width: 631
GlyphClass: 2
Flags: W
AnchorPoint: "Anchor-1" 400 668 basechar 0
AnchorPoint: "Anchor-0" 263 0 basechar 0
LayerCount: 2
Fore
SplineSet
252 264 m 1,0,-1
 89 668 l 1,1,-1
 238 668 l 1,2,-1
 339 391 l 1,3,-1
 558 668 l 1,4,-1
 720 668 l 1,5,-1
 385 265 l 1,6,-1
 330 0 l 1,7,-1
 197 0 l 1,8,-1
 252 264 l 1,0,-1
EndSplineSet
EndChar
StartChar: Z
Encoding: 90 90 108
Width: 616
GlyphClass: 2
Flags: W
AnchorPoint: "Anchor-1" 398 668 basechar 0
AnchorPoint: "Anchor-0" 256 0 basechar 0
LayerCount: 2
Fore
SplineSet
7 105 m 1,0,-1
 451 552 l 1,1,-1
 116 552 l 1,2,-1
 141 668 l 1,3,-1
 653 668 l 1,4,-1
 631 563 l 1,5,-1
 188 116 l 1,6,-1
 551 116 l 1,7,-1
 526 0 l 1,8,-1
 -16 0 l 1,9,-1
 7 105 l 1,0,-1
EndSplineSet
EndChar
StartChar: bracketleft
Encoding: 91 91 281
Width: 334
GlyphClass: 1
Flags: W
LayerCount: 2
Fore
SplineSet
163 708 m 1,0,-1
 399 708 l 1,1,-1
 378 608 l 1,2,-1
 252 608 l 1,3,-1
 109 -62 l 1,4,-1
 236 -62 l 1,5,-1
 215 -162 l 1,6,-1
 -21 -162 l 1,7,-1
 163 708 l 1,0,-1
EndSplineSet
EndChar
StartChar: underscore
Encoding: 95 95 276
Width: 393
GlyphClass: 1
Flags: W
LayerCount: 2
Fore
SplineSet
-54 0 m 1,0,-1
 342 0 l 1,1,-1
 317 -109 l 1,2,-1
 -78 -109 l 1,3,-1
 -54 0 l 1,0,-1
EndSplineSet
EndChar
StartChar: a
Encoding: 97 97 112
Width: 545
GlyphClass: 2
Flags: W
AnchorPoint: "Anchor-2" 449 10 basechar 0
AnchorPoint: "Anchor-1" 312 496 basechar 0
AnchorPoint: "Anchor-0" 217 0 basechar 0
LayerCount: 2
Fore
SplineSet
46 23 m 128,-1,1
 1 58 1 58 1 118 c 0,2,3
 1 215 1 215 93 261 c 128,-1,4
 185 307 185 307 375 306 c 1,5,-1
 378 318 l 2,6,7
 381 332 381 332 381 344 c 0,8,9
 381 380 381 380 356.5 399.5 c 128,-1,10
 332 419 332 419 289 419 c 0,11,12
 252 419 252 419 224 403 c 128,-1,13
 196 387 196 387 185 355 c 1,14,-1
 75 393 l 1,15,16
 107 452 107 452 166 480 c 128,-1,17
 225 508 225 508 294 508 c 0,18,19
 390 508 390 508 443.5 466.5 c 128,-1,20
 497 425 497 425 497 346 c 0,21,22
 497 320 497 320 491 290 c 2,23,-1
 469 188 l 2,24,25
 457 131 457 131 451 81 c 128,-1,26
 445 31 445 31 447 0 c 1,27,-1
 331 0 l 1,28,-1
 328 63 l 1,29,30
 262 -12 262 -12 157 -12 c 0,31,0
 91 -12 91 -12 46 23 c 128,-1,1
300 108.5 m 128,-1,33
 339 139 339 139 353 204 c 2,34,-1
 357 227 l 1,35,36
 242 226 242 226 188 204.5 c 128,-1,37
 134 183 134 183 134 137 c 0,38,39
 134 108 134 108 156 93 c 128,-1,40
 178 78 178 78 211 78 c 0,41,32
 261 78 261 78 300 108.5 c 128,-1,33
EndSplineSet
Substitution2: "Single Substitution lookup 15 subtable" ordfeminine
AlternateSubs2: "'aalt' Access All Alternates in Latin lookup 0 subtable" ordfeminine
EndChar
StartChar: b
Encoding: 98 98 123
Width: 589
GlyphClass: 2
Flags: W
AnchorPoint: "Anchor-1" 348 496 basechar 0
AnchorPoint: "Anchor-0" 243 0 basechar 0
LayerCount: 2
Fore
SplineSet
206 13 m 128,-1,1
 164 38 164 38 152 81 c 1,2,-1
 113 0 l 1,3,-1
 7 0 l 1,4,-1
 158 708 l 1,5,-1
 284 708 l 1,6,-1
 225 432 l 1,7,8
 254 468 254 468 296 488 c 128,-1,9
 338 508 338 508 385 508 c 256,10,11
 432 508 432 508 472.5 484.5 c 128,-1,12
 513 461 513 461 537 414.5 c 128,-1,13
 561 368 561 368 561 303 c 0,14,15
 561 231 561 231 531 158 c 128,-1,16
 501 85 501 85 442 36.5 c 128,-1,17
 383 -12 383 -12 299 -12 c 0,18,0
 248 -12 248 -12 206 13 c 128,-1,1
361.5 121 m 128,-1,20
 396 154 396 154 412.5 201 c 128,-1,21
 429 248 429 248 429 289 c 0,22,23
 429 344 429 344 402.5 376 c 128,-1,24
 376 408 376 408 328 408 c 0,25,26
 279 408 279 408 245 373.5 c 128,-1,27
 211 339 211 339 194 290.5 c 128,-1,28
 177 242 177 242 177 201 c 0,29,30
 177 147 177 147 203.5 117.5 c 128,-1,31
 230 88 230 88 276 88 c 0,32,19
 327 88 327 88 361.5 121 c 128,-1,20
EndSplineSet
EndChar
StartChar: c
Encoding: 99 99 124
Width: 504
GlyphClass: 2
Flags: W
AnchorPoint: "Anchor-1" 324 496 basechar 0
AnchorPoint: "Anchor-0" 234 0 basechar 0
LayerCount: 2
Fore
SplineSet
87 45.5 m 128,-1,1
 29 103 29 103 29 200 c 0,2,3
 29 282 29 282 63.5 352.5 c 128,-1,4
 98 423 98 423 161 465.5 c 128,-1,5
 224 508 224 508 305 508 c 0,6,7
 379 508 379 508 432 475 c 128,-1,8
 485 442 485 442 507 381 c 1,9,-1
 399 345 l 1,10,11
 389 375 389 375 365 391 c 128,-1,12
 341 407 341 407 307 407 c 0,13,14
 256 407 256 407 221.5 374 c 128,-1,15
 187 341 187 341 171.5 294.5 c 128,-1,16
 156 248 156 248 156 206 c 0,17,18
 156 152 156 152 182.5 120.5 c 128,-1,19
 209 89 209 89 261 89 c 0,20,21
 331 89 331 89 364 142 c 1,22,-1
 468 99 l 1,23,24
 427 39 427 39 372 13.5 c 128,-1,25
 317 -12 317 -12 249 -12 c 0,26,0
 145 -12 145 -12 87 45.5 c 128,-1,1
EndSplineSet
EndChar
StartChar: d
Encoding: 100 100 129
Width: 587
GlyphClass: 2
Flags: W
AnchorPoint: "Anchor-3" 609 496 basechar 0
AnchorPoint: "Anchor-1" 408 796 basechar 0
AnchorPoint: "Anchor-0" 239 0 basechar 0
LayerCount: 2
Fore
SplineSet
116.5 11.5 m 128,-1,1
 76 35 76 35 51.5 81 c 128,-1,2
 27 127 27 127 27 192 c 0,3,4
 27 264 27 264 57 337 c 128,-1,5
 87 410 87 410 146.5 459 c 128,-1,6
 206 508 206 508 289 508 c 0,7,8
 340 508 340 508 381 483.5 c 128,-1,9
 422 459 422 459 438 418 c 1,10,-1
 500 708 l 1,11,-1
 626 708 l 1,12,-1
 516 192 l 2,13,14
 493 92 493 92 492 0 c 1,15,-1
 372 0 l 1,16,-1
 367 65 l 1,17,18
 338 28 338 28 294 8 c 128,-1,19
 250 -12 250 -12 205 -12 c 0,20,0
 157 -12 157 -12 116.5 11.5 c 128,-1,1
342.5 122 m 128,-1,22
 377 156 377 156 394.5 204 c 128,-1,23
 412 252 412 252 412 294 c 0,24,25
 412 348 412 348 385.5 378 c 128,-1,26
 359 408 359 408 313 408 c 0,27,28
 262 408 262 408 227.5 375 c 128,-1,29
 193 342 193 342 176.5 295 c 128,-1,30
 160 248 160 248 160 206 c 0,31,32
 160 152 160 152 186.5 120 c 128,-1,33
 213 88 213 88 260 88 c 0,34,21
 308 88 308 88 342.5 122 c 128,-1,22
EndSplineSet
EndChar
StartChar: e
Encoding: 101 101 133
Width: 557
GlyphClass: 2
Flags: W
AnchorPoint: "Anchor-2" 432 10 basechar 0
AnchorPoint: "Anchor-1" 334 496 basechar 0
AnchorPoint: "Anchor-0" 228 0 basechar 0
LayerCount: 2
Fore
SplineSet
141 15.5 m 128,-1,1
 88 43 88 43 59 93 c 128,-1,2
 30 143 30 143 30 209 c 0,3,4
 30 289 30 289 66.5 357.5 c 128,-1,5
 103 426 103 426 168.5 467 c 128,-1,6
 234 508 234 508 315 508 c 0,7,8
 381 508 381 508 431 480 c 128,-1,9
 481 452 481 452 508 402 c 128,-1,10
 535 352 535 352 535 288 c 0,11,12
 535 253 535 253 526 215 c 1,13,-1
 150 215 l 1,14,15
 151 153 151 153 185 121 c 128,-1,16
 219 89 219 89 274 89 c 0,17,18
 348 89 348 89 380 131 c 1,19,-1
 484 88 l 1,20,21
 442 38 442 38 386 13 c 128,-1,22
 330 -12 330 -12 265 -12 c 0,23,0
 194 -12 194 -12 141 15.5 c 128,-1,1
395 380 m 128,-1,25
 364 411 364 411 311 411 c 0,26,27
 254 411 254 411 217.5 378.5 c 128,-1,28
 181 346 181 346 164 297 c 1,29,-1
 423 297 l 1,30,24
 426 349 426 349 395 380 c 128,-1,25
EndSplineSet
EndChar
StartChar: f
Encoding: 102 102 142
Width: 352
GlyphClass: 2
Flags: W
AnchorPoint: "Anchor-1" 285 796 basechar 0
AnchorPoint: "Anchor-0" 116 0 basechar 0
LayerCount: 2
Fore
SplineSet
127 399 m 1,0,-1
 45 399 l 1,1,-1
 66 496 l 1,2,-1
 148 496 l 1,3,-1
 168 591 l 2,4,5
 179 643 179 643 199.5 671 c 128,-1,6
 220 699 220 699 250 708.5 c 128,-1,7
 280 718 280 718 326 718 c 2,8,-1
 425 718 l 1,9,-1
 405 617 l 1,10,-1
 358 617 l 2,11,12
 323 617 323 617 309.5 607 c 128,-1,13
 296 597 296 597 289 567 c 2,14,-1
 273 496 l 1,15,-1
 379 496 l 1,16,-1
 358 399 l 1,17,-1
 253 399 l 1,18,-1
 168 0 l 1,19,-1
 43 0 l 1,20,-1
 127 399 l 1,0,-1
EndSplineSet
EndChar
StartChar: g
Encoding: 103 103 143
Width: 586
GlyphClass: 2
Flags: W
AnchorPoint: "Anchor-1" 342 496 basechar 0
AnchorPoint: "Anchor-0" 188 -251 basechar 0
LayerCount: 2
Fore
SplineSet
91.5 -166.5 m 128,-1,1
 33 -134 33 -134 19 -80 c 1,2,-1
 126 -42 l 1,3,4
 135 -70 135 -70 165 -85 c 128,-1,5
 195 -100 195 -100 233 -100 c 0,6,7
 328 -100 328 -100 350 -2 c 2,8,-1
 368 85 l 1,9,10
 305 14 305 14 213 14 c 0,11,12
 160 14 160 14 118.5 40.5 c 128,-1,13
 77 67 77 67 54.5 113 c 128,-1,14
 32 159 32 159 32 217 c 0,15,16
 32 291 32 291 64 358 c 128,-1,17
 96 425 96 425 154 466.5 c 128,-1,18
 212 508 212 508 286 508 c 0,19,20
 335 508 335 508 376 485.5 c 128,-1,21
 417 463 417 463 438 417 c 1,22,-1
 476 496 l 1,23,-1
 580 496 l 1,24,-1
 475 2 l 2,25,26
 454 -99 454 -99 390.5 -149 c 128,-1,27
 327 -199 327 -199 229 -199 c 0,28,0
 150 -199 150 -199 91.5 -166.5 c 128,-1,1
351.5 143.5 m 128,-1,30
 383 173 383 173 398 215.5 c 128,-1,31
 413 258 413 258 413 298 c 0,32,33
 413 348 413 348 385.5 378 c 128,-1,34
 358 408 358 408 309 408 c 0,35,36
 258 408 258 408 225.5 378.5 c 128,-1,37
 193 349 193 349 178.5 307 c 128,-1,38
 164 265 164 265 164 227 c 0,39,40
 164 174 164 174 193 144 c 128,-1,41
 222 114 222 114 272 114 c 0,42,29
 320 114 320 114 351.5 143.5 c 128,-1,30
EndSplineSet
EndChar
StartChar: h
Encoding: 104 104 147
Width: 567
GlyphClass: 2
Flags: W
AnchorPoint: "Anchor-1" 400 796 basechar 0
AnchorPoint: "Anchor-0" 231 0 basechar 0
LayerCount: 2
Fore
SplineSet
158 708 m 1,0,-1
 284 708 l 1,1,-1
 225 426 l 1,2,3
 248 462 248 462 290 485 c 128,-1,4
 332 508 332 508 385 508 c 0,5,6
 452 508 452 508 490 471.5 c 128,-1,7
 528 435 528 435 528 367 c 0,8,9
 528 340 528 340 520 303 c 2,10,-1
 455 0 l 1,11,-1
 330 0 l 1,12,-1
 391 284 l 2,13,14
 396 305 396 305 396 330 c 0,15,16
 396 367 396 367 378 387.5 c 128,-1,17
 360 408 360 408 324 408 c 0,18,19
 220 408 220 408 189 259 c 2,20,-1
 134 0 l 1,21,-1
 8 0 l 1,22,-1
 158 708 l 1,0,-1
EndSplineSet
EndChar
StartChar: k
Encoding: 107 107 161
Width: 540
GlyphClass: 2
Flags: W
AnchorPoint: "Anchor-1" 389 796 basechar 0
AnchorPoint: "Anchor-0" 220 0 basechar 0
LayerCount: 2
Fore
SplineSet
158 708 m 1,0,-1
 284 708 l 1,1,-1
 196 293 l 1,2,-1
 411 496 l 1,3,-1
 567 496 l 1,4,-1
 327 281 l 1,5,-1
 480 0 l 1,6,-1
 340 0 l 1,7,-1
 234 199 l 1,8,-1
 162 135 l 1,9,-1
 134 0 l 1,10,-1
 8 0 l 1,11,-1
 158 708 l 1,0,-1
EndSplineSet
EndChar
StartChar: l
Encoding: 108 108 163
Width: 304
GlyphClass: 2
Flags: W
AnchorPoint: "Anchor-3" 264 497 basechar 0
AnchorPoint: "Anchor-1" 259 796 basechar 0
AnchorPoint: "Anchor-0" 93 0 basechar 0
LayerCount: 2
Fore
SplineSet
62.5 20.5 m 128,-1,1
 28 41 28 41 28 89 c 0,2,3
 28 111 28 111 34 141 c 2,4,-1
 155 708 l 1,5,-1
 280 708 l 1,6,-1
 164 166 l 2,7,8
 161 151 161 151 161 140 c 0,9,10
 161 119 161 119 174.5 111.5 c 128,-1,11
 188 104 188 104 220 104 c 2,12,-1
 254 104 l 1,13,-1
 232 0 l 1,14,-1
 180 0 l 2,15,0
 97 0 97 0 62.5 20.5 c 128,-1,1
EndSplineSet
EndChar
StartChar: m
Encoding: 109 109 167
Width: 873
GlyphClass: 2
Flags: W
AnchorPoint: "Anchor-1" 487 496 basechar 0
AnchorPoint: "Anchor-0" 381 0 basechar 0
LayerCount: 2
Fore
SplineSet
113 496 m 1,0,-1
 219 496 l 1,1,-1
 223 426 l 1,2,3
 248 462 248 462 289 485 c 128,-1,4
 330 508 330 508 381 508 c 0,5,6
 433 508 433 508 467.5 485 c 128,-1,7
 502 462 502 462 514 416 c 1,8,9
 552 464 552 464 596.5 486 c 128,-1,10
 641 508 641 508 696 508 c 0,11,12
 759 508 759 508 796 471.5 c 128,-1,13
 833 435 833 435 833 367 c 0,14,15
 833 335 833 335 826 303 c 2,16,-1
 762 0 l 1,17,-1
 636 0 l 1,18,-1
 697 284 l 2,19,20
 703 310 703 310 703 330 c 0,21,22
 703 367 703 367 686 387.5 c 128,-1,23
 669 408 669 408 635 408 c 0,24,25
 534 408 534 408 503 259 c 2,26,-1
 448 0 l 1,27,-1
 322 0 l 1,28,-1
 382 284 l 2,29,30
 388 310 388 310 388 331 c 0,31,32
 388 367 388 367 370.5 387.5 c 128,-1,33
 353 408 353 408 319 408 c 0,34,35
 270 408 270 408 237 370 c 128,-1,36
 204 332 204 332 188 259 c 2,37,-1
 133 0 l 1,38,-1
 8 0 l 1,39,-1
 113 496 l 1,0,-1
EndSplineSet
EndChar
StartChar: n
Encoding: 110 110 168
Width: 566
GlyphClass: 2
Flags: W
AnchorPoint: "Anchor-1" 338 496 basechar 0
AnchorPoint: "Anchor-0" 233 0 basechar 0
LayerCount: 2
Fore
SplineSet
113 496 m 1,0,-1
 219 496 l 1,1,-1
 223 426 l 1,2,3
 247 462 247 462 289.5 485 c 128,-1,4
 332 508 332 508 385 508 c 0,5,6
 451 508 451 508 489 471.5 c 128,-1,7
 527 435 527 435 527 367 c 0,8,9
 527 340 527 340 519 303 c 2,10,-1
 455 0 l 1,11,-1
 330 0 l 1,12,-1
 390 284 l 2,13,14
 395 305 395 305 395 330 c 0,15,16
 395 367 395 367 377.5 387.5 c 128,-1,17
 360 408 360 408 324 408 c 0,18,19
 220 408 220 408 189 259 c 2,20,-1
 133 0 l 1,21,-1
 8 0 l 1,22,-1
 113 496 l 1,0,-1
EndSplineSet
EndChar
StartChar: o
Encoding: 111 111 173
Width: 568
GlyphClass: 2
Flags: W
AnchorPoint: "Anchor-3" 598 496 basechar 0
AnchorPoint: "Anchor-2" 460 10 basechar 0
AnchorPoint: "Anchor-1" 332 496 basechar 0
AnchorPoint: "Anchor-0" 231 0 basechar 0
LayerCount: 2
Fore
SplineSet
138 15 m 128,-1,1
 87 42 87 42 58.5 91.5 c 128,-1,2
 30 141 30 141 30 207 c 0,3,4
 30 287 30 287 65 356 c 128,-1,5
 100 425 100 425 164.5 466.5 c 128,-1,6
 229 508 229 508 313 508 c 0,7,8
 379 508 379 508 430 481 c 128,-1,9
 481 454 481 454 509.5 404 c 128,-1,10
 538 354 538 354 538 288 c 0,11,12
 538 208 538 208 503 139.5 c 128,-1,13
 468 71 468 71 403.5 29.5 c 128,-1,14
 339 -12 339 -12 255 -12 c 0,15,0
 189 -12 189 -12 138 15 c 128,-1,1
345 121 m 128,-1,17
 379 153 379 153 395 199 c 128,-1,18
 411 245 411 245 411 288 c 0,19,20
 411 341 411 341 385.5 374 c 128,-1,21
 360 407 360 407 309 407 c 256,22,23
 258 407 258 407 224 375 c 128,-1,24
 190 343 190 343 174 297 c 128,-1,25
 158 251 158 251 158 208 c 0,26,27
 158 154 158 154 183 121.5 c 128,-1,28
 208 89 208 89 260 89 c 0,29,16
 311 89 311 89 345 121 c 128,-1,17
EndSplineSet
Substitution2: "Single Substitution lookup 15 subtable" ordmasculine
AlternateSubs2: "'aalt' Access All Alternates in Latin lookup 0 subtable" ordmasculine
EndChar
StartChar: q
Encoding: 113 113 184
Width: 592
GlyphClass: 2
Flags: W
AnchorPoint: "Anchor-1" 347 496 basechar 0
AnchorPoint: "Anchor-0" 241 0 basechar 0
LayerCount: 2
Fore
SplineSet
342 -58 m 0,1,2
 342 -35 342 -35 348 -8 c 2,3,-1
 362 59 l 1,4,5
 331 24 331 24 289.5 6 c 128,-1,6
 248 -12 248 -12 205 -12 c 0,7,8
 157 -12 157 -12 116.5 11.5 c 128,-1,9
 76 35 76 35 51.5 81 c 128,-1,10
 27 127 27 127 27 192 c 0,11,12
 27 263 27 263 57 336.5 c 128,-1,13
 87 410 87 410 146 459 c 128,-1,14
 205 508 205 508 287 508 c 0,15,16
 339 508 339 508 380.5 483.5 c 128,-1,17
 422 459 422 459 438 418 c 1,18,-1
 476 496 l 1,19,-1
 580 496 l 1,20,-1
 479 18 l 2,21,22
 475 2 475 2 475 -16 c 0,23,24
 475 -39 475 -39 488.5 -50.5 c 128,-1,25
 502 -62 502 -62 537 -62 c 0,26,27
 561 -62 561 -62 589 -55 c 1,28,-1
 565 -165 l 1,29,30
 554 -169 554 -169 533.5 -171.5 c 128,-1,31
 513 -174 513 -174 494 -174 c 0,32,0
 342 -174 342 -174 342 -58 c 0,1,2
342.5 122 m 128,-1,34
 377 156 377 156 394.5 204 c 128,-1,35
 412 252 412 252 412 294 c 0,36,37
 412 348 412 348 385.5 378 c 128,-1,38
 359 408 359 408 313 408 c 0,39,40
 262 408 262 408 227.5 375 c 128,-1,41
 193 342 193 342 176.5 295 c 128,-1,42
 160 248 160 248 160 206 c 0,43,44
 160 152 160 152 186.5 120 c 128,-1,45
 213 88 213 88 260 88 c 0,46,33
 308 88 308 88 342.5 122 c 128,-1,34
EndSplineSet
EndChar
StartChar: r
Encoding: 114 114 185
Width: 369
GlyphClass: 2
Flags: W
AnchorPoint: "Anchor-1" 253 496 basechar 0
AnchorPoint: "Anchor-0" 129 0 basechar 0
LayerCount: 2
Fore
SplineSet
113 496 m 1,0,-1
 212 496 l 1,1,-1
 215 404 l 1,2,3
 245 455 245 455 297 482.5 c 128,-1,4
 349 510 349 510 408 508 c 1,5,-1
 381 384 l 1,6,7
 374 385 374 385 361 385 c 0,8,9
 291 385 291 385 244.5 346 c 128,-1,10
 198 307 198 307 182 231 c 2,11,-1
 133 0 l 1,12,-1
 8 0 l 1,13,-1
 113 496 l 1,0,-1
EndSplineSet
EndChar
StartChar: s
Encoding: 115 115 188
Width: 499
GlyphClass: 2
Flags: W
AnchorPoint: "Anchor-1" 295 496 basechar 0
AnchorPoint: "Anchor-0" 217 0 basechar 0
LayerCount: 2
Fore
SplineSet
92 20.5 m 128,-1,1
 26 54 26 54 4 117 c 1,2,-1
 114 155 l 1,3,4
 122 119 122 119 157 100.5 c 128,-1,5
 192 82 192 82 237 82 c 0,6,7
 276 82 276 82 305 97 c 128,-1,8
 334 112 334 112 334 141 c 0,9,10
 334 160 334 160 316 173.5 c 128,-1,11
 298 187 298 187 258 200 c 2,12,-1
 188 221 l 2,13,14
 62 262 62 262 62 352 c 0,15,16
 62 427 62 427 125 467.5 c 128,-1,17
 188 508 188 508 278 508 c 0,18,19
 350 508 350 508 406.5 479.5 c 128,-1,20
 463 451 463 451 483 395 c 1,21,-1
 374 357 l 1,22,23
 365 387 365 387 336.5 400.5 c 128,-1,24
 308 414 308 414 269 414 c 0,25,26
 234 414 234 414 208.5 402.5 c 128,-1,27
 183 391 183 391 183 364 c 0,28,29
 183 346 183 346 197.5 334 c 128,-1,30
 212 322 212 322 244 311 c 2,31,-1
 313 290 l 2,32,33
 387 266 387 266 421.5 235.5 c 128,-1,34
 456 205 456 205 456 159 c 0,35,36
 456 105 456 105 426 66 c 128,-1,37
 396 27 396 27 345.5 7 c 128,-1,38
 295 -13 295 -13 235 -13 c 0,39,0
 158 -13 158 -13 92 20.5 c 128,-1,1
EndSplineSet
EndChar
StartChar: t
Encoding: 116 116 194
Width: 363
GlyphClass: 2
Flags: W
AnchorPoint: "Anchor-3" 310 550 basechar 0
AnchorPoint: "Anchor-1" 231 496 basechar 0
AnchorPoint: "Anchor-0" 163 0 basechar 0
LayerCount: 2
Fore
SplineSet
105.5 20.5 m 128,-1,1
 68 41 68 41 68 92 c 0,2,3
 68 119 68 119 75 148 c 2,4,-1
 129 399 l 1,5,-1
 46 399 l 1,6,-1
 67 496 l 1,7,-1
 150 496 l 1,8,-1
 176 620 l 1,9,-1
 301 620 l 1,10,-1
 275 496 l 1,11,-1
 381 496 l 1,12,-1
 360 399 l 1,13,-1
 254 399 l 1,14,-1
 205 170 l 2,15,16
 201 150 201 150 201 143 c 0,17,18
 201 122 201 122 216 113 c 128,-1,19
 231 104 231 104 267 104 c 2,20,-1
 297 104 l 1,21,-1
 275 0 l 1,22,-1
 235 0 l 2,23,0
 143 0 143 0 105.5 20.5 c 128,-1,1
EndSplineSet
EndChar
StartChar: u
Encoding: 117 117 198
Width: 561
GlyphClass: 2
Flags: W
AnchorPoint: "Anchor-3" 584 496 basechar 0
AnchorPoint: "Anchor-2" 449 10 basechar 0
AnchorPoint: "Anchor-1" 329 496 basechar 0
AnchorPoint: "Anchor-0" 223 0 basechar 0
LayerCount: 2
Fore
SplineSet
78 24.5 m 128,-1,1
 41 61 41 61 41 129 c 0,2,3
 41 160 41 160 48 194 c 2,4,-1
 111 496 l 1,5,-1
 237 496 l 1,6,-1
 177 213 l 2,7,8
 172 192 172 192 172 167 c 0,9,10
 172 89 172 89 242 89 c 0,11,12
 341 89 341 89 372 238 c 2,13,-1
 427 496 l 1,14,-1
 552 496 l 1,15,-1
 447 0 l 1,16,-1
 340 0 l 1,17,-1
 337 69 l 1,18,19
 313 33 313 33 272 10.5 c 128,-1,20
 231 -12 231 -12 179 -12 c 0,21,0
 115 -12 115 -12 78 24.5 c 128,-1,1
EndSplineSet
EndChar
StartChar: v
Encoding: 118 118 207
Width: 512
GlyphClass: 2
Flags: W
AnchorPoint: "Anchor-1" 309 496 basechar 0
AnchorPoint: "Anchor-0" 203 0 basechar 0
LayerCount: 2
Fore
SplineSet
63 496 m 1,0,-1
 188 496 l 1,1,-1
 230 137 l 1,2,-1
 423 496 l 1,3,-1
 555 496 l 1,4,-1
 270 0 l 1,5,-1
 135 0 l 1,6,-1
 63 496 l 1,0,-1
EndSplineSet
EndChar
StartChar: w
Encoding: 119 119 208
Width: 725
GlyphClass: 2
Flags: W
AnchorPoint: "Anchor-1" 413 496 basechar 0
AnchorPoint: "Anchor-0" 310 0 basechar 0
LayerCount: 2
Fore
SplineSet
68 496 m 1,0,-1
 190 496 l 1,1,-1
 200 144 l 1,2,-1
 354 496 l 1,3,-1
 472 496 l 1,4,-1
 476 144 l 1,5,-1
 636 496 l 1,6,-1
 763 496 l 1,7,-1
 527 0 l 1,8,-1
 395 0 l 1,9,-1
 389 375 l 1,10,-1
 224 0 l 1,11,-1
 92 0 l 1,12,-1
 68 496 l 1,0,-1
EndSplineSet
EndChar
StartChar: y
Encoding: 121 121 214
Width: 503
GlyphClass: 2
Flags: W
AnchorPoint: "Anchor-1" 300 496 basechar 0
AnchorPoint: "Anchor-0" 198 0 basechar 0
LayerCount: 2
Fore
SplineSet
-11 -66 m 1,0,-1
 29 -66 l 2,1,2
 71 -66 71 -66 91.5 -55.5 c 128,-1,3
 112 -45 112 -45 126 -18 c 2,4,-1
 142 13 l 1,5,-1
 63 496 l 1,6,-1
 193 496 l 1,7,-1
 233 157 l 1,8,-1
 410 496 l 1,9,-1
 546 496 l 1,10,-1
 242 -28 l 2,11,12
 210 -82 210 -82 185.5 -109.5 c 128,-1,13
 161 -137 161 -137 131 -149.5 c 128,-1,14
 101 -162 101 -162 56 -162 c 2,15,-1
 -32 -162 l 1,16,-1
 -11 -66 l 1,0,-1
EndSplineSet
EndChar
StartChar: z
Encoding: 122 122 219
Width: 494
GlyphClass: 2
Flags: W
AnchorPoint: "Anchor-1" 303 496 basechar 0
AnchorPoint: "Anchor-0" 193 0 basechar 0
LayerCount: 2
Fore
SplineSet
3 102 m 1,0,-1
 322 393 l 1,1,-1
 77 393 l 1,2,-1
 99 496 l 1,3,-1
 511 496 l 1,4,-1
 489 394 l 1,5,-1
 174 103 l 1,6,-1
 439 103 l 1,7,-1
 417 0 l 1,8,-1
 -19 0 l 1,9,-1
 3 102 l 1,0,-1
EndSplineSet
EndChar
StartChar: braceleft
Encoding: 123 123 279
Width: 369
GlyphClass: 1
Flags: W
LayerCount: 2
Fore
SplineSet
100 -136 m 128,-1,1
 61 -110 61 -110 61 -52 c 0,2,3
 61 -23 61 -23 68 6 c 2,4,-1
 95 134 l 2,5,6
 99 149 99 149 99 165 c 0,7,8
 99 190 99 190 82.5 204 c 128,-1,9
 66 218 66 218 25 222 c 1,10,-1
 46 326 l 1,11,12
 85 328 85 328 106.5 338.5 c 128,-1,13
 128 349 128 349 138 367 c 128,-1,14
 148 385 148 385 155 417 c 2,15,-1
 189 573 l 2,16,17
 201 629 201 629 223 658.5 c 128,-1,18
 245 688 245 688 276 698 c 128,-1,19
 307 708 307 708 355 708 c 2,20,-1
 433 708 l 1,21,-1
 412 607 l 1,22,-1
 375 607 l 2,23,24
 341 607 341 607 326.5 598.5 c 128,-1,25
 312 590 312 590 306 560 c 2,26,-1
 267 382 l 2,27,28
 255 325 255 325 227.5 300 c 128,-1,29
 200 275 200 275 157 266 c 1,30,-1
 156 261 l 1,31,32
 186 249 186 249 202.5 228.5 c 128,-1,33
 219 208 219 208 219 172 c 0,34,35
 219 149 219 149 214 128 c 2,36,-1
 186 -3 l 2,37,38
 183 -15 183 -15 183 -25 c 0,39,40
 183 -45 183 -45 196.5 -53 c 128,-1,41
 210 -61 210 -61 241 -61 c 2,42,-1
 269 -61 l 1,43,-1
 249 -162 l 1,44,-1
 225 -162 l 2,45,0
 139 -162 139 -162 100 -136 c 128,-1,1
EndSplineSet
EndChar
StartChar: braceright
Encoding: 125 125 280
Width: 370
GlyphClass: 1
Flags: W
LayerCount: 2
Fore
SplineSet
-32 -61 m 1,0,-1
 5 -61 l 2,1,2
 39 -61 39 -61 53.5 -52.5 c 128,-1,3
 68 -44 68 -44 74 -14 c 2,4,-1
 113 164 l 2,5,6
 125 221 125 221 152.5 246 c 128,-1,7
 180 271 180 271 223 280 c 1,8,-1
 224 285 l 1,9,10
 194 297 194 297 177.5 317.5 c 128,-1,11
 161 338 161 338 161 374 c 0,12,13
 161 397 161 397 166 418 c 2,14,-1
 194 549 l 2,15,16
 197 561 197 561 197 571 c 0,17,18
 197 591 197 591 183.5 599 c 128,-1,19
 170 607 170 607 139 607 c 2,20,-1
 111 607 l 1,21,-1
 131 708 l 1,22,-1
 155 708 l 2,23,24
 241 708 241 708 280 682 c 128,-1,25
 319 656 319 656 319 598 c 0,26,27
 319 569 319 569 312 540 c 2,28,-1
 284 412 l 2,29,30
 280 390 280 390 280 382 c 0,31,32
 280 356 280 356 297 342 c 128,-1,33
 314 328 314 328 355 324 c 1,34,-1
 334 220 l 1,35,36
 295 218 295 218 273.5 207.5 c 128,-1,37
 252 197 252 197 242 179 c 128,-1,38
 232 161 232 161 225 129 c 2,39,-1
 191 -27 l 2,40,41
 179 -83 179 -83 157 -112.5 c 128,-1,42
 135 -142 135 -142 104 -152 c 128,-1,43
 73 -162 73 -162 25 -162 c 2,44,-1
 -53 -162 l 1,45,-1
 -32 -61 l 1,0,-1
EndSplineSet
EndChar
StartChar: asciitilde
Encoding: 126 126 333
Width: 542
GlyphClass: 1
Flags: W
LayerCount: 2
Fore
SplineSet
85 302 m 128,-1,1
 121 342 121 342 181 342 c 0,2,3
 210 342 210 342 232.5 333 c 128,-1,4
 255 324 255 324 283 307 c 0,5,6
 307 293 307 293 322.5 286.5 c 128,-1,7
 338 280 338 280 357 280 c 0,8,9
 385 280 385 280 403.5 299.5 c 128,-1,10
 422 319 422 319 431 364 c 1,11,-1
 518 332 l 1,12,13
 497 255 497 255 461 215 c 128,-1,14
 425 175 425 175 365 175 c 0,15,16
 336 175 336 175 313.5 184 c 128,-1,17
 291 193 291 193 263 210 c 0,18,19
 240 224 240 224 224 231 c 128,-1,20
 208 238 208 238 189 238 c 0,21,22
 161 238 161 238 142.5 218.5 c 128,-1,23
 124 199 124 199 115 154 c 1,24,-1
 28 186 l 1,25,0
 49 262 49 262 85 302 c 128,-1,1
EndSplineSet
EndChar
StartChar: exclamdown
Encoding: 161 161 264
Width: 302
GlyphClass: 1
Flags: W
LayerCount: 2
Fore
SplineSet
32 3 m 1,0,-1
 115 274 l 1,1,-1
 198 274 l 1,2,-1
 167 3 l 1,3,-1
 131 -170 l 1,4,-1
 -4 -170 l 1,5,-1
 32 3 l 1,0,-1
129 365 m 128,-1,7
 104 390 104 390 104 425 c 256,8,9
 104 460 104 460 128.5 485 c 128,-1,10
 153 510 153 510 188 510 c 256,11,12
 223 510 223 510 248 485 c 128,-1,13
 273 460 273 460 273 425 c 256,14,15
 273 390 273 390 248.5 365 c 128,-1,16
 224 340 224 340 189 340 c 256,17,6
 154 340 154 340 129 365 c 128,-1,7
EndSplineSet
EndChar
StartChar: cent
Encoding: 162 162 311
Width: 504
GlyphClass: 1
Flags: W
LayerCount: 2
Fore
SplineSet
71.5 62 m 128,-1,1
 29 116 29 116 29 201 c 0,2,3
 29 280 29 280 62 349.5 c 128,-1,4
 95 419 95 419 156.5 462 c 128,-1,5
 218 505 218 505 298 507 c 1,6,-1
 315 586 l 1,7,-1
 378 586 l 1,8,-1
 360 502 l 1,9,10
 411 493 411 493 449 463 c 128,-1,11
 487 433 487 433 507 382 c 1,12,-1
 399 347 l 1,13,14
 384 390 384 390 339 402 c 1,15,-1
 272 88 l 1,16,17
 330 91 330 91 369 140 c 1,18,-1
 468 101 l 1,19,20
 431 47 431 47 374 18 c 128,-1,21
 317 -11 317 -11 251 -13 c 1,22,-1
 234 -90 l 1,23,-1
 171 -90 l 1,24,-1
 189 -7 l 1,25,0
 114 8 114 8 71.5 62 c 128,-1,1
209 362 m 128,-1,27
 182 329 182 329 169 286.5 c 128,-1,28
 156 244 156 244 156 206 c 0,29,30
 156 166 156 166 170 138.5 c 128,-1,31
 184 111 184 111 211 99 c 1,32,-1
 276 404 l 1,33,26
 236 395 236 395 209 362 c 128,-1,27
EndSplineSet
EndChar
StartChar: sterling
Encoding: 163 163 316
Width: 628
GlyphClass: 1
Flags: W
LayerCount: 2
Fore
SplineSet
152.5 163 m 128,-1,1
 198 209 198 209 198 277 c 1,2,-1
 196 304 l 1,3,-1
 79 304 l 1,4,-1
 94 369 l 1,5,-1
 183 369 l 1,6,7
 159 444 159 444 159 491 c 0,8,9
 159 549 159 549 189.5 591.5 c 128,-1,10
 220 634 220 634 273.5 656.5 c 128,-1,11
 327 679 327 679 396 679 c 0,12,13
 481 679 481 679 545.5 642 c 128,-1,14
 610 605 610 605 630 535 c 1,15,-1
 514 498 l 1,16,17
 507 536 507 536 475 557 c 128,-1,18
 443 578 443 578 397 578 c 0,19,20
 347 578 347 578 316.5 552 c 128,-1,21
 286 526 286 526 286 479 c 0,22,23
 286 458 286 458 291.5 436.5 c 128,-1,24
 297 415 297 415 312 369 c 1,25,-1
 483 369 l 1,26,-1
 469 304 l 1,27,-1
 326 304 l 1,28,29
 328 288 328 288 328 278 c 0,30,31
 328 226 328 226 293.5 183.5 c 128,-1,32
 259 141 259 141 206 109 c 1,33,34
 233 122 233 122 268 122 c 0,35,36
 286 122 286 122 303 118.5 c 128,-1,37
 320 115 320 115 345 108 c 0,38,39
 364 103 364 103 384 99 c 128,-1,40
 404 95 404 95 421 95 c 0,41,42
 447 95 447 95 471 101.5 c 128,-1,43
 495 108 495 108 526 123 c 1,44,-1
 541 21 l 1,45,46
 501 4 501 4 465.5 -4 c 128,-1,47
 430 -12 430 -12 390 -12 c 0,48,49
 365 -12 365 -12 342.5 -7 c 128,-1,50
 320 -2 320 -2 291 7 c 0,51,52
 260 16 260 16 240 20.5 c 128,-1,53
 220 25 220 25 197 25 c 0,54,55
 132 25 132 25 58 -12 c 1,56,-1
 33 83 l 1,57,0
 107 117 107 117 152.5 163 c 128,-1,1
EndSplineSet
EndChar
StartChar: currency
Encoding: 164 164 312
Width: 590
GlyphClass: 1
Flags: W
LayerCount: 2
Fore
SplineSet
69 125 m 1,0,-1
 135 192 l 1,1,2
 92 249 92 249 92 321 c 256,3,4
 92 393 92 393 135 450 c 1,5,-1
 69 517 l 1,6,-1
 114 562 l 1,7,-1
 181 496 l 1,8,9
 239 539 239 539 310 539 c 0,10,11
 382 539 382 539 440 496 c 1,12,-1
 507 562 l 1,13,-1
 552 517 l 1,14,-1
 486 450 l 1,15,16
 529 393 529 393 529 321 c 256,17,18
 529 249 529 249 486 192 c 1,19,-1
 552 125 l 1,20,-1
 507 80 l 1,21,-1
 440 146 l 1,22,23
 382 103 382 103 310 103 c 0,24,25
 239 103 239 103 181 146 c 1,26,-1
 114 80 l 1,27,-1
 69 125 l 1,0,-1
392.5 240 m 128,-1,29
 426 274 426 274 426 321 c 0,30,31
 426 369 426 369 392.5 402.5 c 128,-1,32
 359 436 359 436 310 436 c 0,33,34
 262 436 262 436 228.5 402 c 128,-1,35
 195 368 195 368 195 321 c 256,36,37
 195 274 195 274 228.5 240 c 128,-1,38
 262 206 262 206 310 206 c 0,39,28
 359 206 359 206 392.5 240 c 128,-1,29
EndSplineSet
EndChar
StartChar: yen
Encoding: 165 165 317
Width: 630
GlyphClass: 1
Flags: W
LayerCount: 2
Fore
SplineSet
213 79 m 1,0,-1
 76 79 l 1,1,-1
 90 144 l 1,2,-1
 227 144 l 1,3,-1
 242 216 l 1,4,-1
 105 216 l 1,5,-1
 119 281 l 1,6,-1
 242 281 l 1,7,-1
 89 668 l 1,8,-1
 235 668 l 1,9,-1
 338 385 l 1,10,-1
 561 668 l 1,11,-1
 719 668 l 1,12,-1
 400 281 l 1,13,-1
 526 281 l 1,14,-1
 512 216 l 1,15,-1
 373 216 l 1,16,-1
 359 144 l 1,17,-1
 497 144 l 1,18,-1
 483 79 l 1,19,-1
 344 79 l 1,20,-1
 328 0 l 1,21,-1
 197 0 l 1,22,-1
 213 79 l 1,0,-1
EndSplineSet
EndChar
StartChar: section
Encoding: 167 167 300
Width: 547
GlyphClass: 1
Flags: W
LayerCount: 2
Fore
SplineSet
87 -139 m 128,-1,1
 36 -105 36 -105 21 -39 c 1,2,-1
 133 -2 l 1,3,4
 143 -74 143 -74 224 -74 c 0,5,6
 261 -74 261 -74 285 -58 c 128,-1,7
 309 -42 309 -42 309 -17 c 0,8,9
 309 2 309 2 293 21 c 128,-1,10
 277 40 277 40 241 64 c 2,11,-1
 148 128 l 2,12,13
 93 166 93 166 67 200.5 c 128,-1,14
 41 235 41 235 41 278 c 0,15,16
 41 377 41 377 158 430 c 1,17,18
 127 468 127 468 127 511 c 0,19,20
 127 560 127 560 157 599 c 128,-1,21
 187 638 187 638 237 659.5 c 128,-1,22
 287 681 287 681 345 681 c 0,23,24
 422 681 422 681 473.5 646.5 c 128,-1,25
 525 612 525 612 540 546 c 1,26,-1
 428 510 l 1,27,28
 423 548 423 548 398.5 565 c 128,-1,29
 374 582 374 582 337 582 c 256,30,31
 300 582 300 582 276 566 c 128,-1,32
 252 550 252 550 252 525 c 0,33,34
 252 506 252 506 268 487.5 c 128,-1,35
 284 469 284 469 320 443 c 2,36,-1
 412 380 l 2,37,38
 467 342 467 342 493 307 c 128,-1,39
 519 272 519 272 519 229 c 0,40,41
 519 130 519 130 402 78 c 1,42,43
 433 41 433 41 433 -3 c 0,44,45
 433 -52 433 -52 403 -91 c 128,-1,46
 373 -130 373 -130 323 -151.5 c 128,-1,47
 273 -173 273 -173 215 -173 c 0,48,0
 138 -173 138 -173 87 -139 c 128,-1,1
396 212 m 0,50,51
 396 232 396 232 381.5 250.5 c 128,-1,52
 367 269 367 269 337 290 c 2,53,-1
 229 364 l 1,54,55
 165 338 165 338 165 296 c 0,56,57
 165 276 165 276 179.5 257.5 c 128,-1,58
 194 239 194 239 224 218 c 2,59,-1
 332 143 l 1,60,49
 396 171 396 171 396 212 c 0,50,51
EndSplineSet
EndChar
StartChar: copyright
Encoding: 169 169 301
Width: 798
GlyphClass: 1
Flags: W
LayerCount: 2
Fore
SplineSet
243 33.5 m 128,-1,1
 163 80 163 80 116.5 160 c 128,-1,2
 70 240 70 240 70 334 c 256,3,4
 70 428 70 428 116.5 508 c 128,-1,5
 163 588 163 588 243 634.5 c 128,-1,6
 323 681 323 681 417 681 c 256,7,8
 511 681 511 681 591 634.5 c 128,-1,9
 671 588 671 588 717.5 508 c 128,-1,10
 764 428 764 428 764 334 c 256,11,12
 764 240 764 240 717.5 160 c 128,-1,13
 671 80 671 80 591 33.5 c 128,-1,14
 511 -13 511 -13 417 -13 c 256,15,0
 323 -13 323 -13 243 33.5 c 128,-1,1
286 194.5 m 128,-1,17
 238 246 238 246 238 335 c 0,18,19
 238 423 238 423 288 474.5 c 128,-1,20
 338 526 338 526 420 526 c 0,21,22
 472 526 472 526 513 503.5 c 128,-1,23
 554 481 554 481 576 437 c 1,24,-1
 494 406 l 1,25,26
 475 450 475 450 423 450 c 0,27,28
 385 450 385 450 361 422 c 128,-1,29
 337 394 337 394 337 335 c 0,30,31
 337 275 337 275 361 247 c 128,-1,32
 385 219 385 219 423 219 c 0,33,34
 475 219 475 219 495 256 c 1,35,-1
 576 227 l 1,36,37
 552 186 552 186 510.5 164.5 c 128,-1,38
 469 143 469 143 419 143 c 0,39,16
 334 143 334 143 286 194.5 c 128,-1,17
557.5 90.5 m 128,-1,41
 622 128 622 128 659.5 192.5 c 128,-1,42
 697 257 697 257 697 334 c 256,43,44
 697 411 697 411 659.5 475.5 c 128,-1,45
 622 540 622 540 557.5 577.5 c 128,-1,46
 493 615 493 615 417 615 c 256,47,48
 341 615 341 615 276.5 577.5 c 128,-1,49
 212 540 212 540 174.5 475.5 c 128,-1,50
 137 411 137 411 137 334 c 256,51,52
 137 257 137 257 174.5 192.5 c 128,-1,53
 212 128 212 128 276.5 90.5 c 128,-1,54
 341 53 341 53 417 53 c 256,55,40
 493 53 493 53 557.5 90.5 c 128,-1,41
EndSplineSet
EndChar
StartChar: ordfeminine
Encoding: 170 170 223
Width: 386
GlyphClass: 1
Flags: W
LayerCount: 2
Fore
SplineSet
130.5 416 m 128,-1,1
 103 438 103 438 103 472 c 0,2,3
 103 526 103 526 153.5 552 c 128,-1,4
 204 578 204 578 310 577 c 1,5,6
 312 584 312 584 312 595 c 0,7,8
 312 627 312 627 270 627 c 0,9,10
 253 627 253 627 239.5 620 c 128,-1,11
 226 613 226 613 222 600 c 1,12,-1
 146 628 l 1,13,14
 162 658 162 658 194 673 c 128,-1,15
 226 688 226 688 271 688 c 0,16,17
 331 688 331 688 364 665.5 c 128,-1,18
 397 643 397 643 397 597 c 0,19,20
 397 579 397 579 393 562 c 2,21,-1
 382 512 l 2,22,23
 366 441 366 441 365 400 c 1,24,-1
 291 400 l 1,25,-1
 289 437 l 1,26,27
 275 417 275 417 252 405.5 c 128,-1,28
 229 394 229 394 200 394 c 0,29,0
 158 394 158 394 130.5 416 c 128,-1,1
274 470.5 m 128,-1,31
 293 485 293 485 297 509 c 2,32,-1
 300 523 l 1,33,34
 194 527 194 527 194 481 c 0,35,36
 194 470 194 470 203 463 c 128,-1,37
 212 456 212 456 229 456 c 0,38,30
 255 456 255 456 274 470.5 c 128,-1,31
EndSplineSet
EndChar
StartChar: guillemotleft
Encoding: 171 171 289
Width: 627
GlyphClass: 1
Flags: W
LayerCount: 2
Fore
SplineSet
282 243 m 1,0,-1
 471 460 l 1,1,-1
 618 460 l 1,2,-1
 422 236 l 1,3,-1
 528 40 l 1,4,-1
 394 40 l 1,5,-1
 282 243 l 1,0,-1
54 250 m 1,6,-1
 243 460 l 1,7,-1
 389 460 l 1,8,-1
 193 243 l 1,9,-1
 300 40 l 1,10,-1
 166 40 l 1,11,-1
 54 250 l 1,6,-1
EndSplineSet
EndChar
StartChar: registered
Encoding: 174 174 302
Width: 798
GlyphClass: 1
Flags: W
LayerCount: 2
Fore
SplineSet
243 33.5 m 128,-1,1
 163 80 163 80 116.5 160 c 128,-1,2
 70 240 70 240 70 334 c 256,3,4
 70 428 70 428 116.5 508 c 128,-1,5
 163 588 163 588 243 634.5 c 128,-1,6
 323 681 323 681 417 681 c 256,7,8
 511 681 511 681 591 634.5 c 128,-1,9
 671 588 671 588 717.5 508 c 128,-1,10
 764 428 764 428 764 334 c 256,11,12
 764 240 764 240 717.5 160 c 128,-1,13
 671 80 671 80 591 33.5 c 128,-1,14
 511 -13 511 -13 417 -13 c 256,15,0
 323 -13 323 -13 243 33.5 c 128,-1,1
557.5 90.5 m 128,-1,17
 622 128 622 128 659.5 192.5 c 128,-1,18
 697 257 697 257 697 334 c 256,19,20
 697 411 697 411 659.5 475.5 c 128,-1,21
 622 540 622 540 557.5 577.5 c 128,-1,22
 493 615 493 615 417 615 c 256,23,24
 341 615 341 615 276.5 577.5 c 128,-1,25
 212 540 212 540 174.5 475.5 c 128,-1,26
 137 411 137 411 137 334 c 256,27,28
 137 257 137 257 174.5 192.5 c 128,-1,29
 212 128 212 128 276.5 90.5 c 128,-1,30
 341 53 341 53 417 53 c 256,31,16
 493 53 493 53 557.5 90.5 c 128,-1,17
269 529 m 1,32,-1
 414 529 l 2,33,34
 491 529 491 529 532.5 503.5 c 128,-1,35
 574 478 574 478 574 414 c 0,36,37
 574 376 574 376 552 348.5 c 128,-1,38
 530 321 530 321 487 310 c 1,39,-1
 594 162 l 1,40,-1
 495 162 l 1,41,-1
 393 300 l 1,42,-1
 357 300 l 1,43,-1
 357 162 l 1,44,-1
 269 162 l 1,45,-1
 269 529 l 1,32,-1
465.5 378.5 m 128,-1,47
 483 389 483 389 483 413 c 0,48,49
 483 439 483 439 464.5 449 c 128,-1,50
 446 459 446 459 410 459 c 2,51,-1
 357 459 l 1,52,-1
 357 368 l 1,53,-1
 412 368 l 2,54,46
 448 368 448 368 465.5 378.5 c 128,-1,47
EndSplineSet
EndChar
StartChar: degree
Encoding: 176 176 304
Width: 384
GlyphClass: 1
Flags: W
LayerCount: 2
Fore
SplineSet
175 396.5 m 128,-1,1
 140 417 140 417 119.5 452 c 128,-1,2
 99 487 99 487 99 528 c 256,3,4
 99 569 99 569 119.5 604 c 128,-1,5
 140 639 140 639 175 659.5 c 128,-1,6
 210 680 210 680 251 680 c 256,7,8
 292 680 292 680 327 659.5 c 128,-1,9
 362 639 362 639 382.5 604 c 128,-1,10
 403 569 403 569 403 528 c 256,11,12
 403 487 403 487 382.5 452 c 128,-1,13
 362 417 362 417 327 396.5 c 128,-1,14
 292 376 292 376 251 376 c 256,15,0
 210 376 210 376 175 396.5 c 128,-1,1
303 476.5 m 128,-1,17
 324 498 324 498 324 528 c 0,18,19
 324 559 324 559 303 580 c 128,-1,20
 282 601 282 601 251 601 c 0,21,22
 221 601 221 601 199.5 580 c 128,-1,23
 178 559 178 559 178 528 c 0,24,25
 178 498 178 498 199.5 476.5 c 128,-1,26
 221 455 221 455 251 455 c 0,27,16
 282 455 282 455 303 476.5 c 128,-1,17
EndSplineSet
EndChar
StartChar: plusminus
Encoding: 177 177 330
Width: 603
GlyphClass: 1
Flags: W
LayerCount: 2
Fore
SplineSet
253 278 m 1,0,-1
 59 278 l 1,1,-1
 80 375 l 1,2,-1
 274 375 l 1,3,-1
 300 496 l 1,4,-1
 409 496 l 1,5,-1
 383 375 l 1,6,-1
 577 375 l 1,7,-1
 556 278 l 1,8,-1
 362 278 l 1,9,-1
 338 158 l 1,10,-1
 228 158 l 1,11,-1
 253 278 l 1,0,-1
23 109 m 1,12,-1
 520 109 l 1,13,-1
 497 0 l 1,14,-1
 0 0 l 1,15,-1
 23 109 l 1,12,-1
EndSplineSet
EndChar
StartChar: uni00B2
Encoding: 178 178 254
Width: 397
GlyphClass: 1
Flags: W
LayerCount: 2
Fore
SplineSet
340 681 m 0,1,2
 340 699 340 699 328 709.5 c 128,-1,3
 316 720 316 720 296 720 c 0,4,5
 274 720 274 720 257.5 707.5 c 128,-1,6
 241 695 241 695 234 670 c 1,7,-1
 155 701 l 1,8,9
 174 742 174 742 211.5 764 c 128,-1,10
 249 786 249 786 298 786 c 0,11,12
 354 786 354 786 393 761.5 c 128,-1,13
 432 737 432 737 432 688 c 0,14,15
 432 627 432 627 377.5 574.5 c 128,-1,16
 323 522 323 522 242 479 c 1,17,-1
 393 479 l 1,18,-1
 376 403 l 1,19,-1
 85 403 l 1,20,-1
 101 475 l 1,21,0
 340 604 340 604 340 681 c 0,1,2
EndSplineSet
EndChar
StartChar: uni00B3
Encoding: 179 179 255
Width: 402
GlyphClass: 1
Flags: W
LayerCount: 2
Fore
SplineSet
158 419.5 m 128,-1,1
 120 443 120 443 109 484 c 1,2,-1
 188 508 l 1,3,4
 200 463 200 463 251 463 c 0,5,6
 278 463 278 463 296.5 477.5 c 128,-1,7
 315 492 315 492 315 516 c 0,8,9
 315 560 315 560 227 560 c 1,10,-1
 242 633 l 1,11,12
 250 632 250 632 265 632 c 0,13,14
 300 632 300 632 319.5 645 c 128,-1,15
 339 658 339 658 339 682 c 0,16,17
 339 700 339 700 326 710 c 128,-1,18
 313 720 313 720 291 720 c 0,19,20
 268 720 268 720 251 709 c 128,-1,21
 234 698 234 698 226 679 c 1,22,-1
 150 707 l 1,23,24
 169 746 169 746 205 766 c 128,-1,25
 241 786 241 786 292 786 c 0,26,27
 353 786 353 786 392 760.5 c 128,-1,28
 431 735 431 735 431 688 c 0,29,30
 431 657 431 657 411 630 c 128,-1,31
 391 603 391 603 362 592 c 1,32,33
 382 581 382 581 393.5 561.5 c 128,-1,34
 405 542 405 542 405 519 c 0,35,36
 405 465 405 465 361 430.5 c 128,-1,37
 317 396 317 396 250 396 c 0,38,0
 196 396 196 396 158 419.5 c 128,-1,1
EndSplineSet
EndChar
StartChar: paragraph
Encoding: 182 182 299
Width: 519
GlyphClass: 1
Flags: W
LayerCount: 2
Fore
SplineSet
109 362 m 128,-1,1
 80 406 80 406 80 460 c 0,2,3
 80 481 80 481 84 498 c 0,4,5
 95 549 95 549 127 587.5 c 128,-1,6
 159 626 159 626 203.5 647 c 128,-1,7
 248 668 248 668 295 668 c 2,8,-1
 581 668 l 1,9,-1
 567 601 l 1,10,-1
 523 601 l 1,11,-1
 361 -162 l 1,12,-1
 273 -162 l 1,13,-1
 435 601 l 1,14,-1
 341 601 l 1,15,-1
 179 -162 l 1,16,-1
 91 -162 l 1,17,-1
 189 299 l 1,18,0
 138 318 138 318 109 362 c 128,-1,1
EndSplineSet
EndChar
StartChar: uni00B9
Encoding: 185 185 253
Width: 277
GlyphClass: 1
Flags: W
LayerCount: 2
Fore
SplineSet
223 660 m 1,0,-1
 140 660 l 1,1,-1
 156 732 l 1,2,3
 200 731 200 731 226.5 742 c 128,-1,4
 253 753 253 753 267 779 c 1,5,-1
 337 779 l 1,6,-1
 257 403 l 1,7,-1
 169 403 l 1,8,-1
 223 660 l 1,0,-1
EndSplineSet
EndChar
StartChar: ordmasculine
Encoding: 186 186 224
Width: 397
GlyphClass: 1
Flags: W
LayerCount: 2
Fore
SplineSet
151.5 426 m 128,-1,1
 113 458 113 458 113 517 c 0,2,3
 113 562 113 562 131.5 601 c 128,-1,4
 150 640 150 640 186.5 664 c 128,-1,5
 223 688 223 688 274 688 c 0,6,7
 331 688 331 688 369.5 656 c 128,-1,8
 408 624 408 624 408 565 c 0,9,10
 408 520 408 520 389.5 481 c 128,-1,11
 371 442 371 442 334.5 418 c 128,-1,12
 298 394 298 394 248 394 c 0,13,0
 190 394 190 394 151.5 426 c 128,-1,1
301.5 494.5 m 128,-1,15
 319 527 319 527 319 561 c 0,16,17
 319 588 319 588 307 604 c 128,-1,18
 295 620 295 620 272 620 c 0,19,20
 238 620 238 620 220.5 587.5 c 128,-1,21
 203 555 203 555 203 521 c 0,22,23
 203 494 203 494 215 478 c 128,-1,24
 227 462 227 462 250 462 c 0,25,14
 284 462 284 462 301.5 494.5 c 128,-1,15
EndSplineSet
EndChar
StartChar: guillemotright
Encoding: 187 187 290
Width: 628
GlyphClass: 1
Flags: W
LayerCount: 2
Fore
SplineSet
434 257 m 1,0,-1
 328 460 l 1,1,-1
 462 460 l 1,2,-1
 574 250 l 1,3,-1
 385 40 l 1,4,-1
 238 40 l 1,5,-1
 434 257 l 1,0,-1
206 264 m 1,6,-1
 99 460 l 1,7,-1
 233 460 l 1,8,-1
 345 257 l 1,9,-1
 157 40 l 1,10,-1
 10 40 l 1,11,-1
 206 264 l 1,6,-1
EndSplineSet
EndChar
StartChar: onequarter
Encoding: 188 188 251
Width: 847
GlyphClass: 3
Flags: W
LayerCount: 2
Fore
SplineSet
666 668 m 1,0,-1
 784 668 l 1,1,-1
 182 0 l 1,2,-1
 62 0 l 1,3,-1
 666 668 l 1,0,-1
201 550 m 1,4,-1
 117 550 l 1,5,-1
 133 622 l 1,6,7
 176 622 176 622 202.5 631 c 128,-1,8
 229 640 229 640 244 668 c 1,9,-1
 314 668 l 1,10,-1
 234 293 l 1,11,-1
 147 293 l 1,12,-1
 201 550 l 1,4,-1
625 154 m 1,13,-1
 649 264 l 1,14,-1
 539 154 l 1,15,-1
 625 154 l 1,13,-1
610 79 m 1,16,-1
 427 79 l 1,17,-1
 441 147 l 1,18,-1
 670 375 l 1,19,-1
 761 375 l 1,20,-1
 713 154 l 1,21,-1
 774 154 l 1,22,-1
 758 79 l 1,23,-1
 698 79 l 1,24,-1
 681 0 l 1,25,-1
 593 0 l 1,26,-1
 610 79 l 1,16,-1
EndSplineSet
Ligature2: "'frac' Diagonal Fractions in Latin lookup 7 subtable" one slash four
EndChar
StartChar: onehalf
Encoding: 189 189 250
Width: 866
GlyphClass: 3
Flags: W
LayerCount: 2
Fore
SplineSet
666 668 m 1,0,-1
 784 668 l 1,1,-1
 182 0 l 1,2,-1
 62 0 l 1,3,-1
 666 668 l 1,0,-1
201 550 m 1,4,-1
 117 550 l 1,5,-1
 133 622 l 1,6,7
 176 622 176 622 202.5 631 c 128,-1,8
 229 640 229 640 244 668 c 1,9,-1
 314 668 l 1,10,-1
 234 293 l 1,11,-1
 147 293 l 1,12,-1
 201 550 l 1,4,-1
521 94 m 0,14,15
 610 149 610 149 666.5 193.5 c 128,-1,16
 723 238 723 238 723 277 c 0,17,18
 723 296 723 296 710.5 306.5 c 128,-1,19
 698 317 698 317 678 317 c 0,20,21
 656 317 656 317 640 303 c 128,-1,22
 624 289 624 289 615 266 c 1,23,-1
 536 296 l 1,24,25
 555 336 555 336 592.5 359 c 128,-1,26
 630 382 630 382 680 382 c 0,27,28
 736 382 736 382 775.5 356.5 c 128,-1,29
 815 331 815 331 815 283 c 0,30,31
 815 239 815 239 785 201.5 c 128,-1,32
 755 164 755 164 716 137.5 c 128,-1,33
 677 111 677 111 615 76 c 1,34,-1
 773 76 l 1,35,-1
 757 0 l 1,36,-1
 467 0 l 1,37,-1
 482 70 l 1,38,13
 488 74 488 74 521 94 c 0,14,15
EndSplineSet
Ligature2: "'frac' Diagonal Fractions in Latin lookup 7 subtable" one slash two
EndChar
StartChar: threequarters
Encoding: 190 190 252
Width: 928
GlyphClass: 3
Flags: W
LayerCount: 2
Fore
SplineSet
747 668 m 1,0,-1
 865 668 l 1,1,-1
 262 0 l 1,2,-1
 143 0 l 1,3,-1
 747 668 l 1,0,-1
139.5 312 m 128,-1,5
 102 334 102 334 89 379 c 1,6,-1
 168 402 l 1,7,8
 172 380 172 380 188.5 368 c 128,-1,9
 205 356 205 356 229 356 c 0,10,11
 257 356 257 356 274.5 371.5 c 128,-1,12
 292 387 292 387 292 410 c 0,13,14
 292 432 292 432 271 443.5 c 128,-1,15
 250 455 250 455 206 454 c 1,16,-1
 221 525 l 1,17,18
 270 522 270 522 294.5 535 c 128,-1,19
 319 548 319 548 319 575 c 0,20,21
 319 592 319 592 304.5 602.5 c 128,-1,22
 290 613 290 613 269 613 c 0,23,24
 247 613 247 613 230 602.5 c 128,-1,25
 213 592 213 592 205 571 c 1,26,-1
 128 600 l 1,27,28
 147 639 147 639 183.5 659 c 128,-1,29
 220 679 220 679 271 679 c 0,30,31
 326 679 326 679 367 654 c 128,-1,32
 408 629 408 629 408 583 c 0,33,34
 408 552 408 552 389.5 524.5 c 128,-1,35
 371 497 371 497 340 485 c 1,36,37
 361 474 361 474 372 454.5 c 128,-1,38
 383 435 383 435 383 411 c 0,39,40
 383 356 383 356 338 323 c 128,-1,41
 293 290 293 290 228 290 c 0,42,4
 177 290 177 290 139.5 312 c 128,-1,5
690 79 m 1,43,-1
 508 79 l 1,44,-1
 522 147 l 1,45,-1
 751 375 l 1,46,-1
 842 375 l 1,47,-1
 794 154 l 1,48,-1
 855 154 l 1,49,-1
 839 79 l 1,50,-1
 778 79 l 1,51,-1
 762 0 l 1,52,-1
 674 0 l 1,53,-1
 690 79 l 1,43,-1
706 154 m 1,54,-1
 730 264 l 1,55,-1
 620 154 l 1,56,-1
 706 154 l 1,54,-1
EndSplineSet
Ligature2: "'frac' Diagonal Fractions in Latin lookup 7 subtable" three slash four
EndChar
StartChar: questiondown
Encoding: 191 191 266
Width: 517
GlyphClass: 1
Flags: W
LayerCount: 2
Fore
SplineSet
88 -163 m 128,-1,1
 34 -144 34 -144 1 -107 c 128,-1,2
 -32 -70 -32 -70 -32 -19 c 0,3,4
 -32 50 -32 50 9 93.5 c 128,-1,5
 50 137 50 137 134 173 c 0,6,7
 191 196 191 196 211.5 215 c 128,-1,8
 232 234 232 234 238 261 c 2,9,-1
 243 282 l 1,10,-1
 371 282 l 1,11,-1
 366 262 l 2,12,13
 350 195 350 195 318.5 156 c 128,-1,14
 287 117 287 117 216 93 c 0,15,16
 156 71 156 71 127.5 47.5 c 128,-1,17
 99 24 99 24 99 -10 c 0,18,19
 99 -42 99 -42 129.5 -61.5 c 128,-1,20
 160 -81 160 -81 205 -81 c 0,21,22
 252 -81 252 -81 288.5 -58 c 128,-1,23
 325 -35 325 -35 344 7 c 1,24,-1
 457 -35 l 1,25,26
 432 -107 432 -107 360.5 -144.5 c 128,-1,27
 289 -182 289 -182 203 -182 c 0,28,0
 142 -182 142 -182 88 -163 c 128,-1,1
277 365 m 128,-1,30
 252 390 252 390 252 425 c 256,31,32
 252 460 252 460 277 485 c 128,-1,33
 302 510 302 510 337 510 c 256,34,35
 372 510 372 510 397 485 c 128,-1,36
 422 460 422 460 422 425 c 256,37,38
 422 390 422 390 397 365 c 128,-1,39
 372 340 372 340 337 340 c 256,40,29
 302 340 302 340 277 365 c 128,-1,30
EndSplineSet
EndChar
StartChar: Aring
Encoding: 197 197 10
Width: 665
GlyphClass: 2
Flags: W
AnchorPoint: "Anchor-2" 607 10 basechar 0
AnchorPoint: "Anchor-1" 436 852 basechar 0
AnchorPoint: "Anchor-0" 280 0 basechar 0
LayerCount: 2
Fore
SplineSet
304 729 m 0,1,2
 304 780 304 780 339.5 816 c 128,-1,3
 375 852 375 852 427 852 c 256,4,5
 479 852 479 852 514.5 816 c 128,-1,6
 550 780 550 780 550 729 c 0,7,8
 550 699 550 699 536.5 673.5 c 128,-1,9
 523 648 523 648 500 632 c 1,10,-1
 605 0 l 1,11,-1
 465 0 l 1,12,-1
 447 130 l 1,13,-1
 173 130 l 1,14,-1
 101 0 l 1,15,-1
 -46 0 l 1,16,-1
 336 646 l 1,17,0
 304 681 304 681 304 729 c 0,1,2
433 239 m 1,18,-1
 395 528 l 1,19,-1
 233 239 l 1,20,-1
 433 239 l 1,18,-1
462 694.5 m 128,-1,22
 476 709 476 709 476 729 c 256,23,24
 476 749 476 749 462 763.5 c 128,-1,25
 448 778 448 778 427 778 c 256,26,27
 406 778 406 778 392 763.5 c 128,-1,28
 378 749 378 749 378 729 c 256,29,30
 378 709 378 709 392 694.5 c 128,-1,31
 406 680 406 680 427 680 c 256,32,21
 448 680 448 680 462 694.5 c 128,-1,22
EndSplineSet
EndChar
StartChar: AE
Encoding: 198 198 12
Width: 947
GlyphClass: 2
Flags: W
AnchorPoint: "Anchor-1" 584 668 basechar 0
AnchorPoint: "Anchor-0" 442 0 basechar 0
LayerCount: 2
Fore
SplineSet
453 668 m 1,0,-1
 1001 668 l 1,1,-1
 976 552 l 1,2,-1
 648 552 l 1,3,-1
 617 402 l 1,4,-1
 823 402 l 1,5,-1
 798 285 l 1,6,-1
 592 285 l 1,7,-1
 556 116 l 1,8,-1
 883 116 l 1,9,-1
 859 0 l 1,10,-1
 398 0 l 1,11,-1
 426 130 l 1,12,-1
 198 130 l 1,13,-1
 102 0 l 1,14,-1
 -53 0 l 1,15,-1
 453 668 l 1,0,-1
449 239 m 1,16,-1
 518 561 l 1,17,-1
 279 239 l 1,18,-1
 449 239 l 1,16,-1
EndSplineSet
EndChar
StartChar: Ccedilla
Encoding: 199 199 17
Width: 656
GlyphClass: 2
Flags: W
AnchorPoint: "Anchor-1" 443 668 basechar 0
LayerCount: 2
Fore
SplineSet
216 -161 m 1,1,-1
 240 -119 l 1,2,3
 253 -127 253 -127 269.5 -133 c 128,-1,4
 286 -139 286 -139 302 -139 c 0,5,6
 322 -139 322 -139 334.5 -130.5 c 128,-1,7
 347 -122 347 -122 347 -107 c 0,8,9
 347 -95 347 -95 336.5 -88 c 128,-1,10
 326 -81 326 -81 311 -81 c 0,11,12
 300 -81 300 -81 288 -83 c 0,13,14
 277 -85 277 -85 270.5 -80.5 c 128,-1,15
 264 -76 264 -76 264 -68 c 0,16,17
 264 -59 264 -59 271 -52 c 2,18,-1
 305 -10 l 1,19,20
 186 1 186 1 118.5 76.5 c 128,-1,21
 51 152 51 152 51 271 c 0,22,23
 51 377 51 377 96 471 c 128,-1,24
 141 565 141 565 224.5 622.5 c 128,-1,25
 308 680 308 680 419 680 c 0,26,27
 510 680 510 680 577.5 640 c 128,-1,28
 645 600 645 600 675 522 c 1,29,-1
 559 482 l 1,30,31
 542 523 542 523 503.5 546.5 c 128,-1,32
 465 570 465 570 416 570 c 0,33,34
 343 570 343 570 291.5 524 c 128,-1,35
 240 478 240 478 215 410.5 c 128,-1,36
 190 343 190 343 190 279 c 0,37,38
 190 199 190 199 232 148.5 c 128,-1,39
 274 98 274 98 355 98 c 0,40,41
 454 98 454 98 508 182 c 1,42,-1
 625 136 l 1,43,44
 577 63 577 63 508 27 c 128,-1,45
 439 -9 439 -9 358 -12 c 1,46,-1
 330 -45 l 1,47,48
 336 -44 336 -44 347 -44 c 0,49,50
 383 -44 383 -44 405.5 -59.5 c 128,-1,51
 428 -75 428 -75 428 -104 c 0,52,53
 428 -143 428 -143 396.5 -164 c 128,-1,54
 365 -185 365 -185 318 -185 c 0,55,0
 262 -185 262 -185 216 -161 c 1,1,-1
EndSplineSet
EndChar
StartChar: multiply
Encoding: 215 215 322
Width: 535
GlyphClass: 1
Flags: W
LayerCount: 2
Fore
SplineSet
16 109 m 1,0,-1
 192 254 l 1,1,-1
 76 399 l 1,2,-1
 162 470 l 1,3,-1
 277 322 l 1,4,-1
 454 470 l 1,5,-1
 520 387 l 1,6,-1
 343 242 l 1,7,-1
 457 97 l 1,8,-1
 370 27 l 1,9,-1
 259 172 l 1,10,-1
 84 27 l 1,11,-1
 16 109 l 1,0,-1
EndSplineSet
EndChar
StartChar: Oslash
Encoding: 216 216 68
Width: 737
GlyphClass: 2
Flags: W
AnchorPoint: "Anchor-3" 811 668 basechar 0
AnchorPoint: "Anchor-1" 447 668 basechar 0
AnchorPoint: "Anchor-0" 316 0 basechar 0
LayerCount: 2
Fore
SplineSet
236 6.5 m 128,-1,1
 183 25 183 25 143 60 c 1,2,-1
 69 -10 l 1,3,-1
 24 37 l 1,4,-1
 100 108 l 1,5,6
 52 182 52 182 52 279 c 0,7,8
 52 384 52 384 98 476 c 128,-1,9
 144 568 144 568 228.5 624 c 128,-1,10
 313 680 313 680 422 680 c 0,11,12
 485 680 485 680 538.5 661 c 128,-1,13
 592 642 592 642 632 607 c 1,14,-1
 705 677 l 1,15,-1
 751 630 l 1,16,-1
 675 558 l 1,17,18
 721 487 721 487 721 389 c 0,19,20
 721 284 721 284 675 192 c 128,-1,21
 629 100 629 100 545 44 c 128,-1,22
 461 -12 461 -12 351 -12 c 0,23,0
 289 -12 289 -12 236 6.5 c 128,-1,1
480.5 143.5 m 128,-1,25
 532 189 532 189 557 256 c 128,-1,26
 582 323 582 323 582 386 c 0,27,28
 582 422 582 422 570 461 c 1,29,-1
 236 147 l 1,30,31
 282 98 282 98 355 98 c 0,32,24
 429 98 429 98 480.5 143.5 c 128,-1,25
204 206 m 1,34,-1
 538 520 l 1,35,36
 493 570 493 570 418 570 c 0,37,38
 344 570 344 570 293 524.5 c 128,-1,39
 242 479 242 479 217 412 c 128,-1,40
 192 345 192 345 192 282 c 0,41,33
 192 239 192 239 204 206 c 1,34,-1
EndSplineSet
EndChar
StartChar: Thorn
Encoding: 222 222 72
Width: 619
GlyphClass: 2
Flags: W
AnchorPoint: "Anchor-1" 399 668 basechar 0
AnchorPoint: "Anchor-0" 257 0 basechar 0
LayerCount: 2
Fore
SplineSet
154 668 m 1,0,-1
 287 668 l 1,1,-1
 262 553 l 1,2,-1
 374 553 l 2,3,4
 484 553 484 553 550.5 503.5 c 128,-1,5
 617 454 617 454 617 367 c 0,6,7
 617 295 617 295 584.5 241 c 128,-1,8
 552 187 552 187 493 158 c 128,-1,9
 434 129 434 129 358 129 c 2,10,-1
 172 129 l 1,11,-1
 145 0 l 1,12,-1
 12 0 l 1,13,-1
 154 668 l 1,0,-1
443 271 m 128,-1,15
 477 300 477 300 477 355 c 0,16,17
 477 395 477 395 447 417 c 128,-1,18
 417 439 417 439 366 439 c 2,19,-1
 238 439 l 1,20,-1
 196 242 l 1,21,-1
 347 242 l 2,22,14
 409 242 409 242 443 271 c 128,-1,15
EndSplineSet
EndChar
StartChar: germandbls
Encoding: 223 223 193
Width: 612
GlyphClass: 1
Flags: W
LayerCount: 2
Fore
SplineSet
307 94 m 0,1,2
 371 94 371 94 410 128.5 c 128,-1,3
 449 163 449 163 449 222 c 0,4,5
 449 276 449 276 405 310 c 128,-1,6
 361 344 361 344 293 344 c 2,7,-1
 290 344 l 1,8,-1
 310 444 l 1,9,10
 366 443 366 443 404.5 461.5 c 128,-1,11
 443 480 443 480 443 521 c 0,12,13
 443 552 443 552 417.5 568.5 c 128,-1,14
 392 585 392 585 355 585 c 0,15,16
 307 585 307 585 279 558 c 128,-1,17
 251 531 251 531 238 471 c 2,18,-1
 137 0 l 1,19,-1
 12 0 l 1,20,-1
 116 489 l 2,21,22
 157 680 157 680 343 680 c 0,23,24
 431 680 431 680 490.5 642.5 c 128,-1,25
 550 605 550 605 550 530 c 0,26,27
 550 488 550 488 525.5 451 c 128,-1,28
 501 414 501 414 459 392 c 1,29,30
 513 373 513 373 544.5 328 c 128,-1,31
 576 283 576 283 576 224 c 0,32,33
 576 152 576 152 542 98.5 c 128,-1,34
 508 45 508 45 449 16.5 c 128,-1,35
 390 -12 390 -12 317 -12 c 0,36,37
 284 -12 284 -12 234 -3 c 1,38,-1
 224 111 l 1,39,0
 262 94 262 94 307 94 c 0,1,2
EndSplineSet
EndChar
StartChar: ae
Encoding: 230 230 122
Width: 868
GlyphClass: 2
Flags: W
AnchorPoint: "Anchor-1" 488 496 basechar 0
AnchorPoint: "Anchor-0" 382 0 basechar 0
LayerCount: 2
Fore
SplineSet
48 22.5 m 128,-1,1
 1 57 1 57 1 117 c 0,2,3
 1 211 1 211 86.5 254.5 c 128,-1,4
 172 298 172 298 340 298 c 2,5,-1
 371 298 l 1,6,-1
 375 314 l 2,7,8
 378 331 378 331 378 344 c 0,9,10
 378 381 378 381 354.5 400 c 128,-1,11
 331 419 331 419 289 419 c 0,12,13
 252 419 252 419 224 403 c 128,-1,14
 196 387 196 387 185 355 c 1,15,-1
 75 393 l 1,16,17
 107 452 107 452 165.5 480 c 128,-1,18
 224 508 224 508 291 508 c 0,19,20
 410 508 410 508 456 439 c 1,21,22
 492 472 492 472 536.5 490 c 128,-1,23
 581 508 581 508 631 508 c 0,24,25
 696 508 696 508 744.5 480 c 128,-1,26
 793 452 793 452 819 402.5 c 128,-1,27
 845 353 845 353 845 289 c 0,28,29
 845 256 845 256 837 216 c 1,30,-1
 467 216 l 1,31,32
 465 153 465 153 497.5 121 c 128,-1,33
 530 89 530 89 586 89 c 0,34,35
 660 89 660 89 691 131 c 1,36,-1
 796 88 l 1,37,38
 754 38 754 38 697.5 13 c 128,-1,39
 641 -12 641 -12 578 -12 c 0,40,41
 511 -12 511 -12 461 16 c 128,-1,42
 411 44 411 44 385 94 c 1,43,44
 351 45 351 45 296.5 16.5 c 128,-1,45
 242 -12 242 -12 169 -12 c 0,46,0
 95 -12 95 -12 48 22.5 c 128,-1,1
299 108 m 128,-1,48
 337 138 337 138 351 204 c 2,49,-1
 354 218 l 1,50,51
 239 220 239 220 186.5 200 c 128,-1,52
 134 180 134 180 134 136 c 0,53,54
 134 109 134 109 156 93.5 c 128,-1,55
 178 78 178 78 211 78 c 0,56,47
 261 78 261 78 299 108 c 128,-1,48
707 380.5 m 128,-1,58
 676 411 676 411 623 411 c 256,59,60
 570 411 570 411 535 379 c 128,-1,61
 500 347 500 347 482 297 c 1,62,-1
 735 297 l 1,63,57
 738 350 738 350 707 380.5 c 128,-1,58
EndSplineSet
EndChar
StartChar: ccedilla
Encoding: 231 231 127
Width: 504
GlyphClass: 2
Flags: W
AnchorPoint: "Anchor-1" 324 496 basechar 0
LayerCount: 2
Fore
SplineSet
107 -161 m 1,1,-1
 130 -119 l 1,2,3
 162 -139 162 -139 193 -139 c 0,4,5
 212 -139 212 -139 225 -130.5 c 128,-1,6
 238 -122 238 -122 238 -107 c 0,7,8
 238 -95 238 -95 227.5 -88 c 128,-1,9
 217 -81 217 -81 201 -81 c 0,10,11
 190 -81 190 -81 178 -83 c 0,12,13
 167 -85 167 -85 160.5 -80.5 c 128,-1,14
 154 -76 154 -76 154 -68 c 0,15,16
 154 -61 154 -61 161 -52 c 2,17,-1
 198 -8 l 1,18,19
 118 6 118 6 73.5 61.5 c 128,-1,20
 29 117 29 117 29 200 c 0,21,22
 29 282 29 282 63.5 352.5 c 128,-1,23
 98 423 98 423 161 465.5 c 128,-1,24
 224 508 224 508 305 508 c 0,25,26
 379 508 379 508 432 475 c 128,-1,27
 485 442 485 442 507 381 c 1,28,-1
 399 345 l 1,29,30
 389 375 389 375 365 391 c 128,-1,31
 341 407 341 407 307 407 c 0,32,33
 256 407 256 407 221.5 374 c 128,-1,34
 187 341 187 341 171.5 294.5 c 128,-1,35
 156 248 156 248 156 206 c 0,36,37
 156 152 156 152 182.5 120.5 c 128,-1,38
 209 89 209 89 261 89 c 0,39,40
 331 89 331 89 364 142 c 1,41,-1
 468 99 l 1,42,43
 428 42 428 42 374.5 15.5 c 128,-1,44
 321 -11 321 -11 249 -12 c 1,45,-1
 220 -45 l 1,46,-1
 237 -44 l 2,47,48
 273 -44 273 -44 295.5 -59.5 c 128,-1,49
 318 -75 318 -75 318 -104 c 0,50,51
 318 -143 318 -143 286.5 -164 c 128,-1,52
 255 -185 255 -185 208 -185 c 0,53,0
 153 -185 153 -185 107 -161 c 1,1,-1
EndSplineSet
EndChar
StartChar: eth
Encoding: 240 240 132
Width: 582
GlyphClass: 2
Flags: W
AnchorPoint: "Anchor-1" 406 796 basechar 0
AnchorPoint: "Anchor-0" 237 0 basechar 0
LayerCount: 2
Fore
SplineSet
135 13 m 128,-1,1
 83 38 83 38 54 84 c 128,-1,2
 25 130 25 130 25 191 c 0,3,4
 25 262 25 262 59 321 c 128,-1,5
 93 380 93 380 151 414.5 c 128,-1,6
 209 449 209 449 279 449 c 0,7,8
 331 449 331 449 372 427.5 c 128,-1,9
 413 406 413 406 437 365 c 1,10,11
 442 402 442 402 442 432 c 0,12,13
 442 511 442 511 408 555 c 1,14,-1
 325 495 l 1,15,-1
 287 543 l 1,16,-1
 361 596 l 1,17,18
 317 624 317 624 247 632 c 1,19,-1
 268 733 l 1,20,21
 384 720 384 720 454 666 c 1,22,-1
 527 720 l 1,23,-1
 566 673 l 1,24,-1
 499 623 l 1,25,26
 526 591 526 591 542.5 534.5 c 128,-1,27
 559 478 559 478 559 407 c 0,28,29
 559 307 559 307 527.5 211 c 128,-1,30
 496 115 496 115 427.5 51.5 c 128,-1,31
 359 -12 359 -12 255 -12 c 0,32,0
 187 -12 187 -12 135 13 c 128,-1,1
334.5 107.5 m 128,-1,34
 367 130 367 130 384 166.5 c 128,-1,35
 401 203 401 203 401 243 c 0,36,37
 401 292 401 292 370.5 321.5 c 128,-1,38
 340 351 340 351 292 351 c 0,39,40
 248 351 248 351 216 327 c 128,-1,41
 184 303 184 303 168 266 c 128,-1,42
 152 229 152 229 152 191 c 0,43,44
 152 141 152 141 181 113 c 128,-1,45
 210 85 210 85 259 85 c 0,46,33
 302 85 302 85 334.5 107.5 c 128,-1,34
EndSplineSet
EndChar
StartChar: divide
Encoding: 247 247 323
Width: 597
GlyphClass: 1
Flags: W
LayerCount: 2
Fore
SplineSet
58 303 m 1,0,-1
 564 303 l 1,1,-1
 540 193 l 1,2,-1
 34 193 l 1,3,-1
 58 303 l 1,0,-1
209 20 m 128,-1,5
 187 42 187 42 187 72 c 256,6,7
 187 102 187 102 209 123.5 c 128,-1,8
 231 145 231 145 260 145 c 0,9,10
 291 145 291 145 312.5 123.5 c 128,-1,11
 334 102 334 102 334 72 c 0,12,13
 334 41 334 41 312.5 19.5 c 128,-1,14
 291 -2 291 -2 260 -2 c 0,15,4
 231 -2 231 -2 209 20 c 128,-1,5
284.5 372.5 m 128,-1,17
 263 394 263 394 263 425 c 256,18,19
 263 456 263 456 284.5 477 c 128,-1,20
 306 498 306 498 336 498 c 0,21,22
 367 498 367 498 388 477 c 128,-1,23
 409 456 409 456 409 425 c 256,24,25
 409 394 409 394 388 372.5 c 128,-1,26
 367 351 367 351 336 351 c 0,27,16
 306 351 306 351 284.5 372.5 c 128,-1,17
EndSplineSet
EndChar
StartChar: oslash
Encoding: 248 248 179
Width: 568
GlyphClass: 2
Flags: W
AnchorPoint: "Anchor-3" 598 496 basechar 0
AnchorPoint: "Anchor-1" 332 496 basechar 0
AnchorPoint: "Anchor-0" 231 0 basechar 0
LayerCount: 2
Fore
SplineSet
106 37 m 1,1,-1
 45 -20 l 1,2,-1
 0 26 l 1,3,-1
 63 84 l 1,4,5
 30 137 30 137 30 207 c 0,6,7
 30 287 30 287 65 356 c 128,-1,8
 100 425 100 425 164.5 466.5 c 128,-1,9
 229 508 229 508 313 508 c 0,10,11
 403 508 403 508 463 459 c 1,12,-1
 523 516 l 1,13,-1
 568 470 l 1,14,-1
 506 412 l 1,15,16
 538 358 538 358 538 288 c 0,17,18
 538 208 538 208 503 139.5 c 128,-1,19
 468 71 468 71 403.5 29.5 c 128,-1,20
 339 -12 339 -12 255 -12 c 0,21,0
 164 -12 164 -12 106 37 c 1,1,-1
345 121 m 128,-1,23
 379 153 379 153 395 199 c 128,-1,24
 411 245 411 245 411 288 c 0,25,26
 411 304 411 304 406 319 c 1,27,-1
 189 115 l 1,28,29
 215 89 215 89 260 89 c 0,30,22
 311 89 311 89 345 121 c 128,-1,23
162 177 m 1,32,-1
 379 381 l 1,33,34
 355 407 355 407 309 407 c 0,35,36
 258 407 258 407 224 375 c 128,-1,37
 190 343 190 343 174 297 c 128,-1,38
 158 251 158 251 158 208 c 0,39,31
 158 190 158 190 162 177 c 1,32,-1
EndSplineSet
EndChar
StartChar: thorn
Encoding: 254 254 183
Width: 590
GlyphClass: 2
Flags: W
AnchorPoint: "Anchor-1" 348 496 basechar 0
AnchorPoint: "Anchor-0" 242 0 basechar 0
LayerCount: 2
Fore
SplineSet
158 708 m 1,0,-1
 284 708 l 1,1,-1
 225 431 l 1,2,3
 252 467 252 467 295.5 487.5 c 128,-1,4
 339 508 339 508 385 508 c 0,5,6
 433 508 433 508 473 484.5 c 128,-1,7
 513 461 513 461 537.5 414.5 c 128,-1,8
 562 368 562 368 562 303 c 0,9,10
 562 231 562 231 532 158 c 128,-1,11
 502 85 502 85 443 36.5 c 128,-1,12
 384 -12 384 -12 300 -12 c 0,13,14
 249 -12 249 -12 207 13.5 c 128,-1,15
 165 39 165 39 151 80 c 1,16,-1
 99 -162 l 1,17,-1
 -26 -162 l 1,18,-1
 158 708 l 1,0,-1
362 121 m 128,-1,20
 397 154 397 154 413.5 201 c 128,-1,21
 430 248 430 248 430 289 c 0,22,23
 430 344 430 344 403 376 c 128,-1,24
 376 408 376 408 329 408 c 0,25,26
 280 408 280 408 246 373.5 c 128,-1,27
 212 339 212 339 195 290.5 c 128,-1,28
 178 242 178 242 178 201 c 0,29,30
 178 147 178 147 204 117.5 c 128,-1,31
 230 88 230 88 276 88 c 0,32,19
 327 88 327 88 362 121 c 128,-1,20
EndSplineSet
EndChar
StartChar: Aogonek
Encoding: 260 260 9
Width: 665
GlyphClass: 2
Flags: W
AnchorPoint: "Anchor-1" 422 668 basechar 0
AnchorPoint: "Anchor-0" 280 0 basechar 0
LayerCount: 2
Fore
SplineSet
430 -153.5 m 128,-1,1
 390 -133 390 -133 390 -92 c 0,2,3
 390 -64 390 -64 413 -38 c 128,-1,4
 436 -12 436 -12 464 2 c 1,5,-1
 447 130 l 1,6,-1
 173 130 l 1,7,-1
 101 0 l 1,8,-1
 -46 0 l 1,9,-1
 349 668 l 1,10,-1
 494 668 l 1,11,-1
 605 0 l 1,12,13
 565 -8 565 -8 532 -28 c 128,-1,14
 499 -48 499 -48 499 -74 c 0,15,16
 499 -90 499 -90 511.5 -97.5 c 128,-1,17
 524 -105 524 -105 544 -105 c 0,18,19
 567 -105 567 -105 584 -100 c 1,20,-1
 570 -170 l 1,21,22
 546 -174 546 -174 526 -174 c 0,23,0
 470 -174 470 -174 430 -153.5 c 128,-1,1
433 239 m 1,24,-1
 395 528 l 1,25,-1
 233 239 l 1,26,-1
 433 239 l 1,24,-1
EndSplineSet
EndChar
StartChar: aogonek
Encoding: 261 261 119
Width: 545
GlyphClass: 2
Flags: W
AnchorPoint: "Anchor-1" 312 496 basechar 0
AnchorPoint: "Anchor-0" 217 0 basechar 0
LayerCount: 2
Fore
SplineSet
270.5 -154 m 128,-1,1
 230 -134 230 -134 230 -95 c 0,2,3
 230 -60 230 -60 258 -33.5 c 128,-1,4
 286 -7 286 -7 330 10 c 1,5,-1
 328 63 l 1,6,7
 262 -12 262 -12 157 -12 c 0,8,9
 91 -12 91 -12 46 23 c 128,-1,10
 1 58 1 58 1 118 c 0,11,12
 1 215 1 215 93 261 c 128,-1,13
 185 307 185 307 375 306 c 1,14,-1
 378 318 l 2,15,16
 381 332 381 332 381 344 c 0,17,18
 381 380 381 380 356.5 399.5 c 128,-1,19
 332 419 332 419 289 419 c 0,20,21
 252 419 252 419 224 403 c 128,-1,22
 196 387 196 387 185 355 c 1,23,-1
 75 393 l 1,24,25
 107 452 107 452 166 480 c 128,-1,26
 225 508 225 508 294 508 c 0,27,28
 390 508 390 508 443.5 466.5 c 128,-1,29
 497 425 497 425 497 346 c 0,30,31
 497 320 497 320 491 290 c 2,32,-1
 469 188 l 2,33,34
 457 131 457 131 451 81 c 128,-1,35
 445 31 445 31 447 0 c 1,36,37
 403 -9 403 -9 371 -29 c 128,-1,38
 339 -49 339 -49 339 -72 c 0,39,40
 339 -89 339 -89 353 -97 c 128,-1,41
 367 -105 367 -105 386 -105 c 256,42,43
 405 -105 405 -105 425 -101 c 1,44,-1
 410 -170 l 1,45,46
 388 -174 388 -174 366 -174 c 0,47,0
 311 -174 311 -174 270.5 -154 c 128,-1,1
300 108.5 m 128,-1,49
 339 139 339 139 353 204 c 2,50,-1
 357 227 l 1,51,52
 242 226 242 226 188 204.5 c 128,-1,53
 134 183 134 183 134 137 c 0,54,55
 134 108 134 108 156 93 c 128,-1,56
 178 78 178 78 211 78 c 0,57,48
 261 78 261 78 300 108.5 c 128,-1,49
EndSplineSet
EndChar
StartChar: Dcroat
Encoding: 272 272 21
Width: 704
GlyphClass: 1
Flags: W
LayerCount: 2
Fore
SplineSet
94 291 m 1,0,-1
 28 291 l 1,1,-1
 51 401 l 1,2,-1
 117 401 l 1,3,-1
 174 668 l 1,4,-1
 323 668 l 2,5,6
 495 668 495 668 591.5 599 c 128,-1,7
 688 530 688 530 688 395 c 0,8,9
 688 300 688 300 653 210 c 128,-1,10
 618 120 618 120 534.5 60 c 128,-1,11
 451 0 451 0 316 0 c 2,12,-1
 32 0 l 1,13,-1
 94 291 l 1,0,-1
451.5 150 m 128,-1,15
 502 188 502 188 526.5 249 c 128,-1,16
 551 310 551 310 551 379 c 0,17,18
 551 557 551 557 324 557 c 2,19,-1
 283 557 l 1,20,-1
 250 401 l 1,21,-1
 408 401 l 1,22,-1
 385 291 l 1,23,-1
 226 291 l 1,24,-1
 188 112 l 1,25,-1
 326 112 l 2,26,14
 401 112 401 112 451.5 150 c 128,-1,15
EndSplineSet
EndChar
StartChar: dcroat
Encoding: 273 273 131
Width: 588
GlyphClass: 1
Flags: W
LayerCount: 2
Fore
SplineSet
116.5 11.5 m 128,-1,1
 76 35 76 35 51.5 81 c 128,-1,2
 27 127 27 127 27 192 c 0,3,4
 27 264 27 264 57 337 c 128,-1,5
 87 410 87 410 146.5 459 c 128,-1,6
 206 508 206 508 289 508 c 0,7,8
 340 508 340 508 381 483.5 c 128,-1,9
 422 459 422 459 438 418 c 1,10,-1
 465 546 l 1,11,-1
 323 546 l 1,12,-1
 338 620 l 1,13,-1
 481 620 l 1,14,-1
 500 708 l 1,15,-1
 626 708 l 1,16,-1
 607 620 l 1,17,-1
 692 620 l 1,18,-1
 676 546 l 1,19,-1
 591 546 l 1,20,-1
 516 192 l 2,21,22
 493 92 493 92 492 0 c 1,23,-1
 372 0 l 1,24,-1
 367 65 l 1,25,26
 338 28 338 28 294 8 c 128,-1,27
 250 -12 250 -12 205 -12 c 0,28,0
 157 -12 157 -12 116.5 11.5 c 128,-1,1
342.5 122 m 128,-1,30
 377 156 377 156 394.5 204 c 128,-1,31
 412 252 412 252 412 294 c 0,32,33
 412 348 412 348 385.5 378 c 128,-1,34
 359 408 359 408 313 408 c 0,35,36
 262 408 262 408 227.5 375 c 128,-1,37
 193 342 193 342 176.5 295 c 128,-1,38
 160 248 160 248 160 206 c 0,39,40
 160 152 160 152 186.5 120 c 128,-1,41
 213 88 213 88 260 88 c 0,42,29
 308 88 308 88 342.5 122 c 128,-1,30
EndSplineSet
EndChar
StartChar: Eogonek
Encoding: 280 280 31
Width: 590
GlyphClass: 2
Flags: W
AnchorPoint: "Anchor-1" 288 668 basechar 0
AnchorPoint: "Anchor-0" 243 0 basechar 0
LayerCount: 2
Fore
SplineSet
154 668 m 1,0,-1
 640 668 l 1,1,-1
 615 552 l 1,2,-1
 262 552 l 1,3,-1
 230 402 l 1,4,-1
 466 402 l 1,5,-1
 441 285 l 1,6,-1
 205 285 l 1,7,-1
 170 116 l 1,8,-1
 527 116 l 1,9,-1
 502 0 l 1,10,11
 462 -8 462 -8 428.5 -28.5 c 128,-1,12
 395 -49 395 -49 395 -74 c 0,13,14
 395 -90 395 -90 408 -97.5 c 128,-1,15
 421 -105 421 -105 441 -105 c 0,16,17
 464 -105 464 -105 481 -100 c 1,18,-1
 467 -170 l 1,19,20
 443 -174 443 -174 422 -174 c 0,21,22
 366 -174 366 -174 326.5 -153.5 c 128,-1,23
 287 -133 287 -133 287 -92 c 0,24,25
 287 -64 287 -64 309 -39.5 c 128,-1,26
 331 -15 331 -15 364 0 c 1,27,-1
 12 0 l 1,28,-1
 154 668 l 1,0,-1
EndSplineSet
EndChar
StartChar: eogonek
Encoding: 281 281 141
Width: 557
GlyphClass: 2
Flags: W
AnchorPoint: "Anchor-1" 334 496 basechar 0
AnchorPoint: "Anchor-0" 228 0 basechar 0
LayerCount: 2
Fore
SplineSet
255.5 -153 m 128,-1,1
 216 -132 216 -132 216 -90 c 0,2,3
 216 -70 216 -70 228 -49.5 c 128,-1,4
 240 -29 240 -29 260 -12 c 1,5,6
 191 -11 191 -11 139 16.5 c 128,-1,7
 87 44 87 44 58.5 93.5 c 128,-1,8
 30 143 30 143 30 209 c 0,9,10
 30 289 30 289 66.5 357.5 c 128,-1,11
 103 426 103 426 168.5 467 c 128,-1,12
 234 508 234 508 315 508 c 0,13,14
 381 508 381 508 431 480 c 128,-1,15
 481 452 481 452 508 402 c 128,-1,16
 535 352 535 352 535 288 c 0,17,18
 535 253 535 253 526 215 c 1,19,-1
 150 215 l 1,20,21
 151 153 151 153 185 121 c 128,-1,22
 219 89 219 89 274 89 c 0,23,24
 348 89 348 89 380 131 c 1,25,-1
 484 88 l 1,26,27
 467 67 467 67 445.5 50.5 c 128,-1,28
 424 34 424 34 394 17 c 0,29,30
 365 0 365 0 344.5 -22.5 c 128,-1,31
 324 -45 324 -45 324 -68 c 0,32,33
 324 -87 324 -87 337 -96 c 128,-1,34
 350 -105 350 -105 372 -105 c 0,35,36
 395 -105 395 -105 410 -100 c 1,37,-1
 394 -171 l 1,38,39
 375 -174 375 -174 354 -174 c 0,40,0
 295 -174 295 -174 255.5 -153 c 128,-1,1
395 380 m 128,-1,42
 364 411 364 411 311 411 c 0,43,44
 254 411 254 411 217.5 378.5 c 128,-1,45
 181 346 181 346 164 297 c 1,46,-1
 423 297 l 1,47,41
 426 349 426 349 395 380 c 128,-1,42
EndSplineSet
EndChar
StartChar: Hbar
Encoding: 294 294 38
Width: 699
GlyphClass: 1
Flags: W
LayerCount: 2
Fore
SplineSet
119 503 m 1,0,-1
 65 503 l 1,1,-1
 84 591 l 1,2,-1
 137 591 l 1,3,-1
 154 668 l 1,4,-1
 287 668 l 1,5,-1
 270 591 l 1,6,-1
 575 591 l 1,7,-1
 591 668 l 1,8,-1
 724 668 l 1,9,-1
 708 591 l 1,10,-1
 761 591 l 1,11,-1
 743 503 l 1,12,-1
 689 503 l 1,13,-1
 582 0 l 1,14,-1
 449 0 l 1,15,-1
 509 285 l 1,16,-1
 205 285 l 1,17,-1
 145 0 l 1,18,-1
 12 0 l 1,19,-1
 119 503 l 1,0,-1
535 402 m 1,20,-1
 556 503 l 1,21,-1
 251 503 l 1,22,-1
 230 402 l 1,23,-1
 535 402 l 1,20,-1
EndSplineSet
EndChar
StartChar: hbar
Encoding: 295 295 148
Width: 566
GlyphClass: 1
Flags: W
LayerCount: 2
Fore
SplineSet
122 546 m 1,0,-1
 37 546 l 1,1,-1
 52 620 l 1,2,-1
 138 620 l 1,3,-1
 157 708 l 1,4,-1
 282 708 l 1,5,-1
 264 620 l 1,6,-1
 406 620 l 1,7,-1
 391 546 l 1,8,-1
 248 546 l 1,9,-1
 223 426 l 1,10,11
 246 461 246 461 288.5 484.5 c 128,-1,12
 331 508 331 508 384 508 c 0,13,14
 451 508 451 508 488.5 471.5 c 128,-1,15
 526 435 526 435 526 366 c 0,16,17
 526 335 526 335 519 303 c 2,18,-1
 454 0 l 1,19,-1
 329 0 l 1,20,-1
 390 284 l 2,21,22
 395 304 395 304 395 329 c 0,23,24
 395 408 395 408 323 408 c 0,25,26
 219 408 219 408 188 259 c 2,27,-1
 132 0 l 1,28,-1
 7 0 l 1,29,-1
 122 546 l 1,0,-1
EndSplineSet
EndChar
StartChar: Iogonek
Encoding: 302 302 47
Width: 417
GlyphClass: 2
Flags: W
AnchorPoint: "Anchor-1" 298 668 basechar 0
AnchorPoint: "Anchor-0" 156 0 basechar 0
LayerCount: 2
Fore
SplineSet
17 98 m 1,0,-1
 110 98 l 1,1,-1
 210 570 l 1,2,-1
 117 570 l 1,3,-1
 138 668 l 1,4,-1
 458 668 l 1,5,-1
 437 570 l 1,6,-1
 343 570 l 1,7,-1
 243 98 l 1,8,-1
 337 98 l 1,9,-1
 316 0 l 1,10,11
 276 -8 276 -8 242.5 -28.5 c 128,-1,12
 209 -49 209 -49 209 -74 c 0,13,14
 209 -90 209 -90 222 -97.5 c 128,-1,15
 235 -105 235 -105 255 -105 c 0,16,17
 278 -105 278 -105 295 -100 c 1,18,-1
 281 -170 l 1,19,20
 257 -174 257 -174 236 -174 c 0,21,22
 180 -174 180 -174 140.5 -153.5 c 128,-1,23
 101 -133 101 -133 101 -92 c 0,24,25
 101 -64 101 -64 123 -39.5 c 128,-1,26
 145 -15 145 -15 178 0 c 1,27,-1
 -4 0 l 1,28,-1
 17 98 l 1,0,-1
EndSplineSet
EndChar
StartChar: iogonek
Encoding: 303 303 156
Width: 287
GlyphClass: 2
Flags: W
AnchorPoint: "Anchor-1" 256 741 basechar 0
AnchorPoint: "Anchor-0" 75 0 basechar 0
LayerCount: 2
Fore
SplineSet
184 606 m 128,-1,1
 161 629 161 629 161 662 c 256,2,3
 161 695 161 695 184 718 c 128,-1,4
 207 741 207 741 240 741 c 0,5,6
 272 741 272 741 295.5 718 c 128,-1,7
 319 695 319 695 319 662 c 256,8,9
 319 629 319 629 295.5 606 c 128,-1,10
 272 583 272 583 240 583 c 0,11,0
 207 583 207 583 184 606 c 128,-1,1
-4.5 -154 m 128,-1,13
 -45 -134 -45 -134 -45 -95 c 0,14,15
 -45 -62 -45 -62 -19 -36 c 128,-1,16
 7 -10 7 -10 48 7 c 1,17,-1
 131 400 l 1,18,-1
 54 400 l 1,19,-1
 75 496 l 1,20,-1
 278 496 l 1,21,-1
 172 0 l 1,22,23
 128 -9 128 -9 96 -29 c 128,-1,24
 64 -49 64 -49 64 -72 c 0,25,26
 64 -89 64 -89 78 -97 c 128,-1,27
 92 -105 92 -105 111 -105 c 256,28,29
 130 -105 130 -105 150 -101 c 1,30,-1
 135 -170 l 1,31,32
 113 -174 113 -174 91 -174 c 0,33,12
 36 -174 36 -174 -4.5 -154 c 128,-1,13
EndSplineSet
EndChar
StartChar: Lslash
Encoding: 321 321 55
Width: 579
GlyphClass: 1
Flags: W
LayerCount: 2
Fore
SplineSet
91 233 m 1,0,-1
 -3 184 l 1,1,-1
 19 292 l 1,2,-1
 114 341 l 1,3,-1
 184 668 l 1,4,-1
 317 668 l 1,5,-1
 264 420 l 1,6,-1
 452 518 l 1,7,-1
 430 409 l 1,8,-1
 241 311 l 1,9,-1
 200 116 l 1,10,-1
 535 116 l 1,11,-1
 510 0 l 1,12,-1
 42 0 l 1,13,-1
 91 233 l 1,0,-1
EndSplineSet
EndChar
StartChar: lslash
Encoding: 322 322 166
Width: 336
GlyphClass: 1
Flags: W
LayerCount: 2
Fore
SplineSet
81.5 20 m 128,-1,1
 47 40 47 40 47 88 c 0,2,3
 47 106 47 106 54 141 c 2,4,-1
 79 258 l 1,5,-1
 22 230 l 1,6,-1
 44 333 l 1,7,-1
 101 361 l 1,8,-1
 175 708 l 1,9,-1
 300 708 l 1,10,-1
 240 429 l 1,11,-1
 346 481 l 1,12,-1
 324 378 l 1,13,-1
 218 326 l 1,14,-1
 184 166 l 2,15,16
 181 151 181 151 181 140 c 0,17,18
 181 119 181 119 194.5 111.5 c 128,-1,19
 208 104 208 104 240 104 c 2,20,-1
 273 104 l 1,21,-1
 252 0 l 1,22,-1
 200 0 l 2,23,0
 116 0 116 0 81.5 20 c 128,-1,1
EndSplineSet
EndChar
StartChar: OE
Encoding: 338 338 70
Width: 1020
GlyphClass: 2
Flags: W
AnchorPoint: "Anchor-1" 606 668 basechar 0
AnchorPoint: "Anchor-0" 464 0 basechar 0
LayerCount: 2
Fore
SplineSet
175 24 m 128,-1,1
 115 60 115 60 83 123.5 c 128,-1,2
 51 187 51 187 51 270 c 0,3,4
 51 373 51 373 95.5 467.5 c 128,-1,5
 140 562 140 562 223 621 c 128,-1,6
 306 680 306 680 416 680 c 0,7,8
 542 680 542 680 603 599 c 1,9,-1
 617 668 l 1,10,-1
 1069 668 l 1,11,-1
 1044 552 l 1,12,-1
 717 552 l 1,13,-1
 686 402 l 1,14,-1
 895 402 l 1,15,-1
 870 285 l 1,16,-1
 660 285 l 1,17,-1
 625 116 l 1,18,-1
 956 116 l 1,19,-1
 931 0 l 1,20,-1
 475 0 l 1,21,-1
 484 41 l 1,22,23
 410 -12 410 -12 316 -12 c 0,24,0
 235 -12 235 -12 175 24 c 128,-1,1
459 148.5 m 128,-1,26
 507 199 507 199 530 270.5 c 128,-1,27
 553 342 553 342 553 403 c 0,28,29
 553 480 553 480 516.5 525 c 128,-1,30
 480 570 480 570 407 570 c 256,31,32
 334 570 334 570 284.5 522 c 128,-1,33
 235 474 235 474 212 404.5 c 128,-1,34
 189 335 189 335 189 271 c 0,35,36
 189 191 189 191 229 144.5 c 128,-1,37
 269 98 269 98 342 98 c 0,38,25
 411 98 411 98 459 148.5 c 128,-1,26
EndSplineSet
EndChar
StartChar: oe
Encoding: 339 339 181
Width: 932
GlyphClass: 2
Flags: W
AnchorPoint: "Anchor-1" 592 496 basechar 0
AnchorPoint: "Anchor-0" 486 0 basechar 0
LayerCount: 2
Fore
SplineSet
526 11.5 m 128,-1,1
 477 35 477 35 448 77 c 1,2,3
 411 35 411 35 361 11.5 c 128,-1,4
 311 -12 311 -12 250 -12 c 0,5,6
 186 -12 186 -12 136 15 c 128,-1,7
 86 42 86 42 58 91.5 c 128,-1,8
 30 141 30 141 30 207 c 0,9,10
 30 284 30 284 63.5 353.5 c 128,-1,11
 97 423 97 423 160 465.5 c 128,-1,12
 223 508 223 508 307 508 c 0,13,14
 366 508 366 508 413 485 c 128,-1,15
 460 462 460 462 488 420 c 1,16,17
 526 462 526 462 578 485 c 128,-1,18
 630 508 630 508 690 508 c 0,19,20
 756 508 756 508 805.5 480 c 128,-1,21
 855 452 855 452 882 402.5 c 128,-1,22
 909 353 909 353 909 289 c 0,23,24
 909 254 909 254 900 215 c 1,25,-1
 525 215 l 1,26,27
 526 158 526 158 557 123.5 c 128,-1,28
 588 89 588 89 649 89 c 0,29,30
 723 89 723 89 754 131 c 1,31,-1
 859 88 l 1,32,33
 817 38 817 38 760.5 13 c 128,-1,34
 704 -12 704 -12 639 -12 c 0,35,0
 575 -12 575 -12 526 11.5 c 128,-1,1
345 119.5 m 128,-1,37
 379 152 379 152 395 199 c 128,-1,38
 411 246 411 246 411 289 c 0,39,40
 411 343 411 343 385.5 375 c 128,-1,41
 360 407 360 407 309 407 c 256,42,43
 258 407 258 407 223.5 375 c 128,-1,44
 189 343 189 343 173 297 c 128,-1,45
 157 251 157 251 157 208 c 0,46,47
 157 154 157 154 183 120.5 c 128,-1,48
 209 87 209 87 260 87 c 256,49,36
 311 87 311 87 345 119.5 c 128,-1,37
770 380.5 m 128,-1,51
 739 411 739 411 685 411 c 0,52,53
 630 411 630 411 593.5 379 c 128,-1,54
 557 347 557 347 540 297 c 1,55,-1
 798 297 l 1,56,50
 801 350 801 350 770 380.5 c 128,-1,51
EndSplineSet
EndChar
StartChar: Scedilla
Encoding: 350 350 80
Width: 605
GlyphClass: 2
Flags: W
AnchorPoint: "Anchor-1" 389 668 basechar 0
LayerCount: 2
Fore
SplineSet
158 -161 m 1,1,-1
 182 -119 l 1,2,3
 195 -127 195 -127 211.5 -133 c 128,-1,4
 228 -139 228 -139 244 -139 c 0,5,6
 264 -139 264 -139 276.5 -130.5 c 128,-1,7
 289 -122 289 -122 289 -107 c 0,8,9
 289 -95 289 -95 278.5 -88 c 128,-1,10
 268 -81 268 -81 253 -81 c 0,11,12
 241 -81 241 -81 229 -83 c 0,13,14
 218 -85 218 -85 212 -80.5 c 128,-1,15
 206 -76 206 -76 206 -68 c 256,16,17
 206 -60 206 -60 212 -52 c 2,18,-1
 247 -10 l 1,19,20
 162 -2 162 -2 100 40.5 c 128,-1,21
 38 83 38 83 19 158 c 1,22,-1
 142 198 l 1,23,24
 151 149 151 149 196 122.5 c 128,-1,25
 241 96 241 96 301 96 c 0,26,27
 357 96 357 96 395 120.5 c 128,-1,28
 433 145 433 145 433 192 c 0,29,30
 433 220 433 220 408.5 239.5 c 128,-1,31
 384 259 384 259 327 278 c 2,32,-1
 247 305 l 2,33,34
 178 329 178 329 135.5 370 c 128,-1,35
 93 411 93 411 93 471 c 0,36,37
 93 535 93 535 131 582.5 c 128,-1,38
 169 630 169 630 231.5 655 c 128,-1,39
 294 680 294 680 366 680 c 0,40,41
 451 680 451 680 517 643.5 c 128,-1,42
 583 607 583 607 607 538 c 1,43,-1
 486 496 l 1,44,45
 472 533 472 533 433 552.5 c 128,-1,46
 394 572 394 572 345 572 c 256,47,48
 296 572 296 572 261 551 c 128,-1,49
 226 530 226 530 226 490 c 0,50,51
 226 441 226 441 301 417 c 2,52,-1
 386 388 l 2,53,54
 469 359 469 359 518 319.5 c 128,-1,55
 567 280 567 280 567 213 c 0,56,57
 567 148 567 148 531 98 c 128,-1,58
 495 48 495 48 434 19.5 c 128,-1,59
 373 -9 373 -9 300 -12 c 1,60,-1
 272 -45 l 1,61,62
 278 -44 278 -44 289 -44 c 0,63,64
 325 -44 325 -44 347.5 -59.5 c 128,-1,65
 370 -75 370 -75 370 -104 c 0,66,67
 370 -143 370 -143 338.5 -164 c 128,-1,68
 307 -185 307 -185 259 -185 c 0,69,0
 204 -185 204 -185 158 -161 c 1,1,-1
EndSplineSet
Substitution2: "'locl' Localized Forms in Latin lookup 4 subtable" uni0218
AlternateSubs2: "'aalt' Access All Alternates in Latin lookup 0 subtable" uni0218
EndChar
StartChar: scedilla
Encoding: 351 351 191
Width: 499
GlyphClass: 2
Flags: W
AnchorPoint: "Anchor-1" 295 496 basechar 0
LayerCount: 2
Fore
SplineSet
93 -161 m 1,1,-1
 116 -119 l 1,2,3
 148 -139 148 -139 179 -139 c 0,4,5
 198 -139 198 -139 211 -130.5 c 128,-1,6
 224 -122 224 -122 224 -107 c 0,7,8
 224 -95 224 -95 213.5 -88 c 128,-1,9
 203 -81 203 -81 187 -81 c 0,10,11
 176 -81 176 -81 164 -83 c 0,12,13
 153 -85 153 -85 146.5 -80.5 c 128,-1,14
 140 -76 140 -76 140 -68 c 0,15,16
 140 -61 140 -61 147 -52 c 2,17,-1
 183 -9 l 1,18,19
 120 2 120 2 71 33.5 c 128,-1,20
 22 65 22 65 4 117 c 1,21,-1
 114 155 l 1,22,23
 122 119 122 119 157 100.5 c 128,-1,24
 192 82 192 82 237 82 c 0,25,26
 276 82 276 82 305 97 c 128,-1,27
 334 112 334 112 334 141 c 0,28,29
 334 160 334 160 316 173.5 c 128,-1,30
 298 187 298 187 258 200 c 2,31,-1
 188 221 l 2,32,33
 62 262 62 262 62 352 c 0,34,35
 62 427 62 427 125 467.5 c 128,-1,36
 188 508 188 508 278 508 c 0,37,38
 350 508 350 508 406.5 479.5 c 128,-1,39
 463 451 463 451 483 395 c 1,40,-1
 374 357 l 1,41,42
 365 387 365 387 336.5 400.5 c 128,-1,43
 308 414 308 414 269 414 c 0,44,45
 234 414 234 414 208.5 402.5 c 128,-1,46
 183 391 183 391 183 364 c 0,47,48
 183 346 183 346 197.5 334 c 128,-1,49
 212 322 212 322 244 311 c 2,50,-1
 313 290 l 2,51,52
 387 266 387 266 421.5 235.5 c 128,-1,53
 456 205 456 205 456 159 c 0,54,55
 456 108 456 108 428 69 c 128,-1,56
 400 30 400 30 349.5 8.5 c 128,-1,57
 299 -13 299 -13 234 -13 c 1,58,-1
 207 -45 l 1,59,-1
 223 -44 l 2,60,61
 259 -44 259 -44 282 -60 c 128,-1,62
 305 -76 305 -76 305 -104 c 0,63,64
 305 -143 305 -143 273 -164 c 128,-1,65
 241 -185 241 -185 194 -185 c 0,66,0
 139 -185 139 -185 93 -161 c 1,1,-1
EndSplineSet
Substitution2: "'locl' Localized Forms in Latin lookup 4 subtable" uni0219
AlternateSubs2: "'aalt' Access All Alternates in Latin lookup 0 subtable" uni0219
EndChar
StartChar: uni0162
Encoding: 354 354 85
Width: 595
GlyphClass: 2
Flags: W
AnchorPoint: "Anchor-1" 387 668 basechar 0
LayerCount: 2
Fore
SplineSet
295 552 m 1,0,-1
 78 552 l 1,1,-1
 103 668 l 1,2,-1
 671 668 l 1,3,-1
 646 552 l 1,4,-1
 428 552 l 1,5,-1
 311 0 l 1,6,-1
 273 0 l 1,7,-1
 235 -45 l 1,8,-1
 251 -44 l 2,9,10
 287 -44 287 -44 310 -60 c 128,-1,11
 333 -76 333 -76 333 -104 c 0,12,13
 333 -143 333 -143 301 -164 c 128,-1,14
 269 -185 269 -185 222 -185 c 0,15,16
 167 -185 167 -185 121 -161 c 1,17,-1
 144 -119 l 1,18,19
 176 -139 176 -139 207 -139 c 0,20,21
 226 -139 226 -139 239 -130.5 c 128,-1,22
 252 -122 252 -122 252 -107 c 0,23,24
 252 -95 252 -95 241.5 -88 c 128,-1,25
 231 -81 231 -81 216 -81 c 0,26,27
 204 -81 204 -81 192 -83 c 0,28,29
 181 -85 181 -85 174.5 -80.5 c 128,-1,30
 168 -76 168 -76 168 -68 c 0,31,32
 168 -61 168 -61 175 -52 c 2,33,-1
 219 0 l 1,34,-1
 178 0 l 1,35,-1
 295 552 l 1,0,-1
EndSplineSet
Substitution2: "'locl' Localized Forms in Latin lookup 4 subtable" uni021A
AlternateSubs2: "'aalt' Access All Alternates in Latin lookup 0 subtable" uni021A
EndChar
StartChar: uni0163
Encoding: 355 355 196
Width: 363
GlyphClass: 2
Flags: W
AnchorPoint: "Anchor-3" 310 550 basechar 0
AnchorPoint: "Anchor-1" 231 496 basechar 0
LayerCount: 2
Fore
SplineSet
36 -161 m 1,1,-1
 60 -119 l 1,2,3
 73 -127 73 -127 89.5 -133 c 128,-1,4
 106 -139 106 -139 122 -139 c 0,5,6
 142 -139 142 -139 154.5 -130.5 c 128,-1,7
 167 -122 167 -122 167 -107 c 0,8,9
 167 -95 167 -95 156.5 -88 c 128,-1,10
 146 -81 146 -81 131 -81 c 0,11,12
 119 -81 119 -81 107 -83 c 0,13,14
 96 -85 96 -85 90 -80.5 c 128,-1,15
 84 -76 84 -76 84 -68 c 256,16,17
 84 -60 84 -60 90 -52 c 2,18,-1
 140 8 l 1,19,20
 102 17 102 17 85 37 c 128,-1,21
 68 57 68 57 68 92 c 0,22,23
 68 119 68 119 75 148 c 2,24,-1
 129 399 l 1,25,-1
 46 399 l 1,26,-1
 67 496 l 1,27,-1
 150 496 l 1,28,-1
 176 620 l 1,29,-1
 301 620 l 1,30,-1
 275 496 l 1,31,-1
 381 496 l 1,32,-1
 360 399 l 1,33,-1
 254 399 l 1,34,-1
 205 170 l 2,35,36
 201 150 201 150 201 143 c 0,37,38
 201 122 201 122 216 113 c 128,-1,39
 231 104 231 104 267 104 c 2,40,-1
 297 104 l 1,41,-1
 275 0 l 1,42,-1
 235 0 l 2,43,44
 202 0 202 0 189 1 c 1,45,-1
 150 -45 l 1,46,47
 156 -44 156 -44 167 -44 c 0,48,49
 203 -44 203 -44 225.5 -59.5 c 128,-1,50
 248 -75 248 -75 248 -104 c 0,51,52
 248 -143 248 -143 216.5 -164 c 128,-1,53
 185 -185 185 -185 138 -185 c 0,54,0
 82 -185 82 -185 36 -161 c 1,1,-1
EndSplineSet
Substitution2: "'locl' Localized Forms in Latin lookup 4 subtable" uni021B
AlternateSubs2: "'aalt' Access All Alternates in Latin lookup 0 subtable" uni021B
EndChar
StartChar: Uring
Encoding: 366 366 95
Width: 687
GlyphClass: 2
Flags: W
AnchorPoint: "Anchor-3" 748 668 basechar 0
AnchorPoint: "Anchor-2" 514 10 basechar 0
AnchorPoint: "Anchor-1" 483 904 basechar 0
AnchorPoint: "Anchor-0" 291 0 basechar 0
LayerCount: 2
Fore
SplineSet
63 204 m 0,1,2
 63 252 63 252 76 308 c 2,3,-1
 153 668 l 1,4,-1
 286 668 l 1,5,-1
 204 280 l 2,6,7
 196 242 196 242 196 215 c 0,8,9
 196 155 196 155 230.5 126.5 c 128,-1,10
 265 98 265 98 337 98 c 0,11,12
 404 98 404 98 440 138 c 128,-1,13
 476 178 476 178 494 261 c 2,14,-1
 580 668 l 1,15,-1
 713 668 l 1,16,-1
 626 258 l 2,17,18
 596 119 596 119 527 53.5 c 128,-1,19
 458 -12 458 -12 332 -12 c 0,20,0
 63 -12 63 -12 63 204 c 0,1,2
348 696 m 128,-1,22
 312 732 312 732 312 783 c 256,23,24
 312 834 312 834 348 870 c 128,-1,25
 384 906 384 906 435 906 c 256,26,27
 486 906 486 906 522 870 c 128,-1,28
 558 834 558 834 558 783 c 256,29,30
 558 732 558 732 522 696 c 128,-1,31
 486 660 486 660 435 660 c 256,32,21
 384 660 384 660 348 696 c 128,-1,22
469.5 748.5 m 128,-1,34
 484 763 484 763 484 783 c 256,35,36
 484 803 484 803 469.5 817.5 c 128,-1,37
 455 832 455 832 435 832 c 256,38,39
 415 832 415 832 400.5 817.5 c 128,-1,40
 386 803 386 803 386 783 c 256,41,42
 386 763 386 763 400.5 748.5 c 128,-1,43
 415 734 415 734 435 734 c 256,44,33
 455 734 455 734 469.5 748.5 c 128,-1,34
EndSplineSet
EndChar
StartChar: Uogonek
Encoding: 370 370 94
Width: 687
GlyphClass: 2
Flags: W
AnchorPoint: "Anchor-3" 748 668 basechar 0
AnchorPoint: "Anchor-1" 432 668 basechar 0
AnchorPoint: "Anchor-0" 291 0 basechar 0
LayerCount: 2
Fore
SplineSet
337.5 -153 m 128,-1,1
 298 -132 298 -132 298 -90 c 0,2,3
 298 -69 298 -69 309.5 -49 c 128,-1,4
 321 -29 321 -29 342 -12 c 1,5,6
 217 -15 217 -15 141 36 c 128,-1,7
 65 87 65 87 65 209 c 0,8,9
 65 257 65 257 76 308 c 2,10,-1
 153 668 l 1,11,-1
 286 668 l 1,12,-1
 204 280 l 2,13,14
 196 242 196 242 196 215 c 0,15,16
 196 155 196 155 230.5 126.5 c 128,-1,17
 265 98 265 98 337 98 c 0,18,19
 404 98 404 98 440 138 c 128,-1,20
 476 178 476 178 494 261 c 2,21,-1
 580 668 l 1,22,-1
 713 668 l 1,23,-1
 626 258 l 2,24,25
 606 166 606 166 571 108.5 c 128,-1,26
 536 51 536 51 480 20 c 0,27,28
 449 3 449 3 427.5 -21 c 128,-1,29
 406 -45 406 -45 406 -68 c 0,30,31
 406 -87 406 -87 419 -96 c 128,-1,32
 432 -105 432 -105 454 -105 c 0,33,34
 478 -105 478 -105 491 -100 c 1,35,-1
 476 -171 l 1,36,37
 457 -174 457 -174 436 -174 c 0,38,0
 377 -174 377 -174 337.5 -153 c 128,-1,1
EndSplineSet
EndChar
StartChar: uogonek
Encoding: 371 371 205
Width: 561
GlyphClass: 2
Flags: W
AnchorPoint: "Anchor-3" 584 496 basechar 0
AnchorPoint: "Anchor-1" 329 496 basechar 0
AnchorPoint: "Anchor-0" 223 0 basechar 0
LayerCount: 2
Fore
SplineSet
78 24.5 m 128,-1,1
 41 61 41 61 41 129 c 0,2,3
 41 160 41 160 48 194 c 2,4,-1
 111 496 l 1,5,-1
 237 496 l 1,6,-1
 177 213 l 2,7,8
 172 192 172 192 172 167 c 0,9,10
 172 89 172 89 242 89 c 0,11,12
 341 89 341 89 372 238 c 2,13,-1
 427 496 l 1,14,-1
 552 496 l 1,15,-1
 447 0 l 1,16,17
 403 -9 403 -9 371 -29 c 128,-1,18
 339 -49 339 -49 339 -72 c 0,19,20
 339 -89 339 -89 353 -97 c 128,-1,21
 367 -105 367 -105 386 -105 c 256,22,23
 405 -105 405 -105 425 -101 c 1,24,-1
 410 -170 l 1,25,26
 388 -174 388 -174 366 -174 c 0,27,28
 311 -174 311 -174 270.5 -154 c 128,-1,29
 230 -134 230 -134 230 -95 c 0,30,31
 230 -58 230 -58 261.5 -30.5 c 128,-1,32
 293 -3 293 -3 339 14 c 1,33,-1
 337 69 l 1,34,35
 313 33 313 33 272 10.5 c 128,-1,36
 231 -12 231 -12 179 -12 c 0,37,0
 115 -12 115 -12 78 24.5 c 128,-1,1
EndSplineSet
EndChar
StartChar: florin
Encoding: 402 402 295
Width: 363
GlyphClass: 1
Flags: W
LayerCount: 2
Fore
SplineSet
-64 -165 m 1,1,-1
 -41 -53 l 1,2,3
 -20 -56 -20 -56 -15 -56 c 0,4,5
 19 -56 19 -56 34 -40 c 128,-1,6
 49 -24 49 -24 57 15 c 2,7,-1
 139 400 l 1,8,-1
 56 400 l 1,9,-1
 77 496 l 1,10,-1
 159 496 l 1,11,-1
 176 574 l 2,12,13
 188 631 188 631 210.5 662 c 128,-1,14
 233 693 233 693 272 706.5 c 128,-1,15
 311 720 311 720 375 720 c 2,16,-1
 437 720 l 1,17,-1
 416 619 l 1,18,-1
 370 619 l 2,19,20
 333 619 333 619 319.5 609 c 128,-1,21
 306 599 306 599 299 567 c 2,22,-1
 284 496 l 1,23,-1
 390 496 l 1,24,-1
 369 400 l 1,25,-1
 263 400 l 1,26,-1
 172 -25 l 2,27,28
 156 -105 156 -105 112.5 -139 c 128,-1,29
 69 -173 69 -173 0 -173 c 0,30,0
 -35 -173 -35 -173 -64 -165 c 1,1,-1
EndSplineSet
EndChar
StartChar: uni0237
Encoding: 567 567 159
Width: 255
GlyphClass: 2
Flags: W
AnchorPoint: "Anchor-1" 183 496 basechar 0
AnchorPoint: "Anchor-0" 20 -251 basechar 0
LayerCount: 2
Fore
SplineSet
-130 -60 m 1,0,-1
 -63 -60 l 2,1,2
 -35 -60 -35 -60 -21 -55.5 c 128,-1,3
 -7 -51 -7 -51 0.5 -38.5 c 128,-1,4
 8 -26 8 -26 14 2 c 2,5,-1
 120 496 l 1,6,-1
 245 496 l 1,7,-1
 134 -30 l 2,8,9
 122 -85 122 -85 98 -113.5 c 128,-1,10
 74 -142 74 -142 40.5 -152 c 128,-1,11
 7 -162 7 -162 -44 -162 c 2,12,-1
 -152 -162 l 1,13,-1
 -130 -60 l 1,0,-1
EndSplineSet
EndChar
StartChar: gravecomb
Encoding: 768 768 349
Width: 0
GlyphClass: 4
Flags: W
AnchorPoint: "Anchor-5" 283 719 basemark 0
AnchorPoint: "Anchor-5" 235 496 mark 0
AnchorPoint: "Anchor-1" 235 496 mark 0
LayerCount: 2
Fore
SplineSet
136.5 641.5 m 128,-1,1
 130 652 130 652 130 663 c 0,2,3
 130 684 130 684 145.5 701 c 128,-1,4
 161 718 161 718 184 718 c 0,5,6
 196 718 196 718 205.5 710.5 c 128,-1,7
 215 703 215 703 226 686 c 2,8,-1
 293 573 l 1,9,-1
 205 573 l 1,10,-1
 157 616 l 2,11,0
 143 631 143 631 136.5 641.5 c 128,-1,1
EndSplineSet
Substitution2: "Single Substitution lookup 13 subtable" gravecomb.case
Substitution2: "'case' Case-Sensitive Forms in Latin lookup 11 subtable" gravecomb.case
AlternateSubs2: "'aalt' Access All Alternates in Latin lookup 0 subtable" gravecomb.case
EndChar
StartChar: acutecomb
Encoding: 769 769 351
Width: 0
GlyphClass: 4
Flags: W
AnchorPoint: "Anchor-5" 191 719 basemark 0
AnchorPoint: "Anchor-5" 143 496 mark 0
AnchorPoint: "Anchor-1" 143 496 mark 0
LayerCount: 2
Fore
SplineSet
256.5 711 m 128,-1,1
 270 718 270 718 287 718 c 0,2,3
 308 718 308 718 320 708 c 128,-1,4
 332 698 332 698 332 682 c 0,5,6
 332 663 332 663 317.5 647.5 c 128,-1,7
 303 632 303 632 279 616 c 2,8,-1
 214 573 l 1,9,-1
 110 573 l 1,10,-1
 225 686 l 2,11,0
 243 704 243 704 256.5 711 c 128,-1,1
EndSplineSet
Substitution2: "Single Substitution lookup 13 subtable" acutecomb.case
Substitution2: "'case' Case-Sensitive Forms in Latin lookup 11 subtable" acutecomb.case
AlternateSubs2: "'aalt' Access All Alternates in Latin lookup 0 subtable" acutecomb.case
EndChar
StartChar: tildecomb
Encoding: 771 771 364
Width: 0
GlyphClass: 4
Flags: W
AnchorPoint: "Anchor-5" 311 686 basemark 0
AnchorPoint: "Anchor-5" 270 496 mark 0
AnchorPoint: "Anchor-1" 270 496 mark 0
LayerCount: 2
Fore
SplineSet
320 577 m 128,-1,1
 304 583 304 583 283 595 c 0,2,3
 270 603 270 603 261 607 c 128,-1,4
 252 611 252 611 240 611 c 0,5,6
 222 611 222 611 209 602 c 128,-1,7
 196 593 196 593 190 575 c 1,8,-1
 110 575 l 1,9,10
 131 630 131 630 166 658 c 128,-1,11
 201 686 201 686 248 686 c 0,12,13
 270 686 270 686 285.5 680 c 128,-1,14
 301 674 301 674 320 662 c 0,15,16
 337 652 337 652 346 648 c 128,-1,17
 355 644 355 644 367 644 c 0,18,19
 380 644 380 644 390 649 c 128,-1,20
 400 654 400 654 412 666 c 0,21,22
 431 685 431 685 450 685 c 0,23,24
 464 685 464 685 472.5 677 c 128,-1,25
 481 669 481 669 481 656 c 0,26,27
 481 637 481 637 462.5 617 c 128,-1,28
 444 597 444 597 416 584 c 128,-1,29
 388 571 388 571 361 571 c 0,30,0
 336 571 336 571 320 577 c 128,-1,1
EndSplineSet
Substitution2: "Single Substitution lookup 13 subtable" tildecomb.case
Substitution2: "'case' Case-Sensitive Forms in Latin lookup 11 subtable" tildecomb.case
AlternateSubs2: "'aalt' Access All Alternates in Latin lookup 0 subtable" tildecomb.case
EndChar
StartChar: uni0306
Encoding: 774 774 360
Width: 0
GlyphClass: 4
Flags: W
AnchorPoint: "Anchor-5" 279 689 basemark 0
AnchorPoint: "Anchor-5" 238 496 mark 0
AnchorPoint: "Anchor-1" 238 496 mark 0
LayerCount: 2
Fore
SplineSet
173.5 598.5 m 128,-1,1
 138 632 138 632 135 689 c 1,2,-1
 211 689 l 1,3,4
 216 667 216 667 233 654.5 c 128,-1,5
 250 642 250 642 276 642 c 256,6,7
 302 642 302 642 323 656 c 128,-1,8
 344 670 344 670 350 689 c 1,9,-1
 428 689 l 1,10,11
 411 633 411 633 367.5 599 c 128,-1,12
 324 565 324 565 265 565 c 0,13,0
 209 565 209 565 173.5 598.5 c 128,-1,1
EndSplineSet
Substitution2: "Single Substitution lookup 13 subtable" uni0306.case
Substitution2: "'case' Case-Sensitive Forms in Latin lookup 11 subtable" uni0306.case
AlternateSubs2: "'aalt' Access All Alternates in Latin lookup 0 subtable" uni0306.case
EndChar
StartChar: uni0307
Encoding: 775 775 346
Width: 0
GlyphClass: 4
Flags: W
AnchorPoint: "Anchor-5" 208 713 basemark 0
AnchorPoint: "Anchor-5" 161 496 mark 0
AnchorPoint: "Anchor-1" 161 496 mark 0
LayerCount: 2
Fore
SplineSet
145.5 598.5 m 128,-1,1
 126 618 126 618 126 646 c 256,2,3
 126 674 126 674 145.5 693.5 c 128,-1,4
 165 713 165 713 193 713 c 256,5,6
 221 713 221 713 240.5 693.5 c 128,-1,7
 260 674 260 674 260 646 c 256,8,9
 260 618 260 618 240.5 598.5 c 128,-1,10
 221 579 221 579 193 579 c 256,11,0
 165 579 165 579 145.5 598.5 c 128,-1,1
EndSplineSet
Substitution2: "Single Substitution lookup 13 subtable" uni0307.case
Substitution2: "'case' Case-Sensitive Forms in Latin lookup 11 subtable" uni0307.case
AlternateSubs2: "'aalt' Access All Alternates in Latin lookup 0 subtable" uni0307.case
EndChar
StartChar: uni0308
Encoding: 776 776 344
Width: 0
GlyphClass: 4
Flags: W
AnchorPoint: "Anchor-5" 306 713 basemark 0
AnchorPoint: "Anchor-5" 260 496 mark 0
AnchorPoint: "Anchor-1" 260 496 mark 0
LayerCount: 2
Fore
SplineSet
342.5 598.5 m 128,-1,1
 323 618 323 618 323 646 c 256,2,3
 323 674 323 674 342.5 693.5 c 128,-1,4
 362 713 362 713 390 713 c 0,5,6
 417 713 417 713 436.5 693.5 c 128,-1,7
 456 674 456 674 456 646 c 256,8,9
 456 618 456 618 436.5 598.5 c 128,-1,10
 417 579 417 579 390 579 c 0,11,0
 362 579 362 579 342.5 598.5 c 128,-1,1
145.5 598.5 m 128,-1,13
 126 618 126 618 126 646 c 256,14,15
 126 674 126 674 145.5 693.5 c 128,-1,16
 165 713 165 713 193 713 c 256,17,18
 221 713 221 713 240.5 693.5 c 128,-1,19
 260 674 260 674 260 646 c 256,20,21
 260 618 260 618 240.5 598.5 c 128,-1,22
 221 579 221 579 193 579 c 256,23,12
 165 579 165 579 145.5 598.5 c 128,-1,13
EndSplineSet
Substitution2: "Single Substitution lookup 13 subtable" uni0308.case
Substitution2: "'case' Case-Sensitive Forms in Latin lookup 11 subtable" uni0308.case
AlternateSubs2: "'aalt' Access All Alternates in Latin lookup 0 subtable" uni0308.case
EndChar
StartChar: uni030A
Encoding: 778 778 362
Width: 0
GlyphClass: 4
Flags: W
AnchorPoint: "Anchor-5" 292 789 basemark 0
AnchorPoint: "Anchor-5" 230 496 mark 0
AnchorPoint: "Anchor-1" 230 496 mark 0
LayerCount: 2
Fore
SplineSet
169 581.5 m 128,-1,1
 133 617 133 617 133 668 c 256,2,3
 133 719 133 719 169 754.5 c 128,-1,4
 205 790 205 790 256 790 c 256,5,6
 307 790 307 790 343 754.5 c 128,-1,7
 379 719 379 719 379 668 c 256,8,9
 379 617 379 617 343 581.5 c 128,-1,10
 307 546 307 546 256 546 c 256,11,0
 205 546 205 546 169 581.5 c 128,-1,1
290.5 632.5 m 128,-1,13
 305 647 305 647 305 668 c 256,14,15
 305 689 305 689 290.5 703.5 c 128,-1,16
 276 718 276 718 256 718 c 256,17,18
 236 718 236 718 221.5 703.5 c 128,-1,19
 207 689 207 689 207 668 c 256,20,21
 207 647 207 647 221.5 632.5 c 128,-1,22
 236 618 236 618 256 618 c 256,23,12
 276 618 276 618 290.5 632.5 c 128,-1,13
EndSplineSet
Substitution2: "Single Substitution lookup 13 subtable" uni030A.case
Substitution2: "'case' Case-Sensitive Forms in Latin lookup 11 subtable" uni030A.case
AlternateSubs2: "'aalt' Access All Alternates in Latin lookup 0 subtable" uni030A.case
EndChar
StartChar: uni030B
Encoding: 779 779 353
Width: 0
GlyphClass: 4
Flags: W
AnchorPoint: "Anchor-5" 381 718 basemark 0
AnchorPoint: "Anchor-5" 242 496 mark 0
AnchorPoint: "Anchor-1" 242 496 mark 0
LayerCount: 2
Fore
SplineSet
256.5 710.5 m 128,-1,1
 271 718 271 718 287 718 c 0,2,3
 307 718 307 718 318 708 c 128,-1,4
 329 698 329 698 329 683 c 0,5,6
 329 664 329 664 315 648 c 128,-1,7
 301 632 301 632 276 616 c 2,8,-1
 211 573 l 1,9,-1
 110 573 l 1,10,-1
 224 686 l 2,11,0
 242 703 242 703 256.5 710.5 c 128,-1,1
474 718 m 0,13,14
 494 718 494 718 504.5 708.5 c 128,-1,15
 515 699 515 699 515 683 c 0,16,17
 515 664 515 664 501 648 c 128,-1,18
 487 632 487 632 462 616 c 2,19,-1
 397 573 l 1,20,-1
 297 573 l 1,21,-1
 411 686 l 2,22,12
 443 718 443 718 474 718 c 0,13,14
EndSplineSet
Substitution2: "Single Substitution lookup 13 subtable" uni030B.case
Substitution2: "'case' Case-Sensitive Forms in Latin lookup 11 subtable" uni030B.case
AlternateSubs2: "'aalt' Access All Alternates in Latin lookup 0 subtable" uni030B.case
EndChar
StartChar: uni030C
Encoding: 780 780 358
Width: 0
GlyphClass: 4
Flags: W
AnchorPoint: "Anchor-5" 320 708 basemark 0
AnchorPoint: "Anchor-5" 275 496 mark 0
AnchorPoint: "Anchor-1" 275 496 mark 0
LayerCount: 2
Fore
SplineSet
245 587 m 2,1,-1
 138 708 l 1,2,-1
 247 708 l 1,3,-1
 302 647 l 1,4,-1
 384 708 l 1,5,-1
 502 708 l 1,6,-1
 344 587 l 2,7,8
 319 568 319 568 291 568 c 0,9,0
 262 568 262 568 245 587 c 2,1,-1
EndSplineSet
Substitution2: "Single Substitution lookup 13 subtable" uni030C.case
Substitution2: "'case' Case-Sensitive Forms in Latin lookup 11 subtable" uni030C.case
AlternateSubs2: "'aalt' Access All Alternates in Latin lookup 0 subtable" uni030C.case
EndChar
StartChar: uni0312
Encoding: 786 786 368
Width: 0
GlyphClass: 4
Flags: W
AnchorPoint: "Anchor-5" 250 774 basemark 0
AnchorPoint: "Anchor-5" 186 496 mark 0
AnchorPoint: "Anchor-1" 186 496 mark 0
LayerCount: 2
Fore
SplineSet
130 657 m 0,1,2
 130 711 130 711 175.5 742 c 128,-1,3
 221 773 221 773 281 773 c 0,4,5
 297 773 297 773 304 772 c 1,6,-1
 343 726 l 1,7,8
 336 727 336 727 321 727 c 0,9,10
 282 727 282 727 254.5 710 c 128,-1,11
 227 693 227 693 227 660 c 0,12,13
 227 642 227 642 238 627 c 128,-1,14
 249 612 249 612 268 603 c 1,15,-1
 186 573 l 1,16,0
 130 604 130 604 130 657 c 0,1,2
EndSplineSet
EndChar
StartChar: uni0326
Encoding: 806 806 369
Width: 0
GlyphClass: 4
Flags: W
AnchorPoint: "Anchor-4" 40 -251 basemark 0
AnchorPoint: "Anchor-4" 93 0 mark 0
AnchorPoint: "Anchor-0" 93 0 mark 0
LayerCount: 2
Fore
SplineSet
-35 -205 m 0,1,2
 5 -205 5 -205 33 -187.5 c 128,-1,3
 61 -170 61 -170 61 -135 c 0,4,5
 61 -118 61 -118 50 -103.5 c 128,-1,6
 39 -89 39 -89 20 -80 c 1,7,-1
 102 -49 l 1,8,9
 158 -82 158 -82 158 -133 c 0,10,11
 158 -170 158 -170 136.5 -196.5 c 128,-1,12
 115 -223 115 -223 80.5 -237 c 128,-1,13
 46 -251 46 -251 8 -251 c 0,14,15
 0 -251 0 -251 -16 -249 c 1,16,-1
 -55 -204 l 1,17,0
 -49 -205 -49 -205 -35 -205 c 0,1,2
EndSplineSet
EndChar
StartChar: uni0327
Encoding: 807 807 370
Width: 0
GlyphClass: 4
Flags: W
AnchorPoint: "Anchor-4" 41 -184 basemark 0
AnchorPoint: "Anchor-4" 81 0 mark 0
AnchorPoint: "Anchor-0" 81 0 mark 0
LayerCount: 2
Fore
SplineSet
-46 -161 m 1,1,-1
 -23 -119 l 1,2,3
 9 -139 9 -139 40 -139 c 0,4,5
 59 -139 59 -139 72 -130.5 c 128,-1,6
 85 -122 85 -122 85 -107 c 0,7,8
 85 -95 85 -95 74.5 -88 c 128,-1,9
 64 -81 64 -81 49 -81 c 0,10,11
 37 -81 37 -81 25 -83 c 0,12,13
 14 -85 14 -85 7.5 -80.5 c 128,-1,14
 1 -76 1 -76 1 -68 c 0,15,16
 1 -61 1 -61 8 -52 c 2,17,-1
 75 28 l 1,18,-1
 109 4 l 1,19,-1
 68 -45 l 1,20,-1
 84 -44 l 2,21,22
 120 -44 120 -44 143 -60 c 128,-1,23
 166 -76 166 -76 166 -104 c 0,24,25
 166 -143 166 -143 134 -164 c 128,-1,26
 102 -185 102 -185 55 -185 c 0,27,0
 0 -185 0 -185 -46 -161 c 1,1,-1
EndSplineSet
EndChar
StartChar: uni0328
Encoding: 808 808 371
Width: 0
GlyphClass: 4
Flags: W
AnchorPoint: "Anchor-2" 188 10 mark 0
LayerCount: 2
Fore
SplineSet
9.5 -154 m 128,-1,1
 -31 -134 -31 -134 -31 -95 c 256,2,3
 -31 -56 -31 -56 3 -28 c 128,-1,4
 37 0 37 0 87 17 c 1,5,-1
 186 0 l 1,6,7
 142 -9 142 -9 110 -29 c 128,-1,8
 78 -49 78 -49 78 -72 c 0,9,10
 78 -89 78 -89 92 -97 c 128,-1,11
 106 -105 106 -105 125 -105 c 256,12,13
 144 -105 144 -105 164 -101 c 1,14,-1
 149 -170 l 1,15,16
 127 -174 127 -174 105 -174 c 0,17,0
 50 -174 50 -174 9.5 -154 c 128,-1,1
EndSplineSet
Substitution2: "Single Substitution lookup 13 subtable" uni0328.case
Substitution2: "'case' Case-Sensitive Forms in Latin lookup 11 subtable" uni0328.case
AlternateSubs2: "'aalt' Access All Alternates in Latin lookup 0 subtable" uni0328.case
EndChar
StartChar: uni0394
Encoding: 916 916 225
Width: 665
GlyphClass: 1
Flags: W
LayerCount: 2
Fore
SplineSet
349 668 m 1,0,-1
 494 668 l 1,1,-1
 605 0 l 1,2,-1
 -46 0 l 1,3,-1
 349 668 l 1,0,-1
451 110 m 1,4,-1
 395 528 l 1,5,-1
 160 110 l 1,6,-1
 451 110 l 1,4,-1
EndSplineSet
EndChar
StartChar: uni03A9
Encoding: 937 937 226
Width: 663
GlyphClass: 1
Flags: W
LayerCount: 2
Fore
SplineSet
7 102 m 1,0,-1
 153 102 l 1,1,-1
 161 137 l 1,2,3
 116 166 116 166 90.5 224.5 c 128,-1,4
 65 283 65 283 65 351 c 0,5,6
 65 438 65 438 107 514 c 128,-1,7
 149 590 149 590 223 635 c 128,-1,8
 297 680 297 680 390 680 c 0,9,10
 469 680 469 680 529.5 644.5 c 128,-1,11
 590 609 590 609 623.5 549.5 c 128,-1,12
 657 490 657 490 657 421 c 0,13,14
 657 328 657 328 602 253 c 128,-1,15
 547 178 547 178 455 133 c 1,16,-1
 449 102 l 1,17,-1
 593 102 l 1,18,-1
 572 0 l 1,19,-1
 316 0 l 1,20,-1
 359 205 l 1,21,22
 414 215 414 215 458.5 245.5 c 128,-1,23
 503 276 503 276 528 320 c 128,-1,24
 553 364 553 364 553 414 c 0,25,26
 553 459 553 459 531.5 497 c 128,-1,27
 510 535 510 535 471 557.5 c 128,-1,28
 432 580 432 580 381 580 c 0,29,30
 320 580 320 580 272 550 c 128,-1,31
 224 520 224 520 197.5 471 c 128,-1,32
 171 422 171 422 171 367 c 0,33,34
 171 307 171 307 202 261.5 c 128,-1,35
 233 216 233 216 285 205 c 1,36,-1
 242 0 l 1,37,-1
 -14 0 l 1,38,-1
 7 102 l 1,0,-1
EndSplineSet
EndChar
StartChar: uni03BC
Encoding: 956 956 227
Width: 595
GlyphClass: 1
Flags: W
LayerCount: 2
Fore
SplineSet
113 496 m 1,0,-1
 239 496 l 1,1,-1
 179 214 l 2,2,3
 174 193 174 193 174 168 c 0,4,5
 174 130 174 130 191.5 109.5 c 128,-1,6
 209 89 209 89 245 89 c 0,7,8
 345 89 345 89 378 238 c 2,9,-1
 432 496 l 1,10,-1
 558 498 l 1,11,-1
 488 165 l 2,12,13
 484 148 484 148 484 133 c 0,14,15
 484 116 484 116 493.5 110 c 128,-1,16
 503 104 503 104 528 104 c 2,17,-1
 545 104 l 1,18,-1
 522 0 l 1,19,-1
 458 0 l 2,20,21
 399 0 399 0 375.5 16.5 c 128,-1,22
 352 33 352 33 350 66 c 1,23,24
 326 31 326 31 287 9.5 c 128,-1,25
 248 -12 248 -12 200 -12 c 0,26,27
 162 -12 162 -12 135 9 c 1,28,-1
 99 -162 l 1,29,-1
 -27 -162 l 1,30,-1
 113 496 l 1,0,-1
EndSplineSet
EndChar
StartChar: pi
Encoding: 960 960 228
Width: 603
GlyphClass: 1
Flags: W
LayerCount: 2
Fore
SplineSet
129 393 m 1,0,-1
 45 393 l 1,1,-1
 67 496 l 1,2,-1
 620 496 l 1,3,-1
 599 393 l 1,4,-1
 512 393 l 1,5,-1
 460 152 l 2,6,7
 457 137 457 137 457 127 c 0,8,9
 457 108 457 108 468.5 100.5 c 128,-1,10
 480 93 480 93 508 93 c 2,11,-1
 535 93 l 1,12,-1
 514 0 l 1,13,-1
 475 0 l 2,14,15
 403 0 403 0 373 17 c 128,-1,16
 343 34 343 34 343 78 c 0,17,18
 343 99 343 99 349 129 c 2,19,-1
 405 393 l 1,20,-1
 236 393 l 1,21,-1
 153 0 l 1,22,-1
 45 0 l 1,23,-1
 129 393 l 1,0,-1
EndSplineSet
EndChar
StartChar: uni1E9E
Encoding: 7838 7838 82
Width: 676
GlyphClass: 1
Flags: W
LayerCount: 2
Fore
SplineSet
295.5 19.5 m 128,-1,1
 248 51 248 51 233 110 c 1,2,-1
 338 145 l 1,3,4
 344 120 344 120 363 106 c 128,-1,5
 382 92 382 92 412 92 c 0,6,7
 457 92 457 92 483.5 127 c 128,-1,8
 510 162 510 162 510 206 c 0,9,10
 510 243 510 243 488.5 262.5 c 128,-1,11
 467 282 467 282 430 282 c 0,12,13
 414 282 414 282 396 279 c 1,14,-1
 368 359 l 1,15,-1
 553 561 l 1,16,17
 470 577 470 577 404 577 c 0,18,19
 331 577 331 577 291.5 541 c 128,-1,20
 252 505 252 505 236 435 c 2,21,-1
 144 0 l 1,22,-1
 11 0 l 1,23,-1
 111 475 l 2,24,25
 133 577 133 577 197 628.5 c 128,-1,26
 261 680 261 680 384 680 c 0,27,28
 447 680 447 680 517 670.5 c 128,-1,29
 587 661 587 661 684 636 c 1,30,-1
 662 532 l 1,31,-1
 508 363 l 1,32,33
 566 351 566 351 601.5 311 c 128,-1,34
 637 271 637 271 637 208 c 0,35,36
 637 148 637 148 606.5 97.5 c 128,-1,37
 576 47 576 47 524.5 17.5 c 128,-1,38
 473 -12 473 -12 412 -12 c 0,39,0
 343 -12 343 -12 295.5 19.5 c 128,-1,1
EndSplineSet
EndChar
StartChar: quoteleft
Encoding: 8216 8216 287
Width: 261
GlyphClass: 1
Flags: W
LayerCount: 2
Fore
SplineSet
114.5 394 m 128,-1,1
 90 418 90 418 90 451 c 0,2,3
 90 480 90 480 110 511 c 2,4,-1
 209 668 l 1,5,-1
 286 668 l 1,6,-1
 205 535 l 1,7,8
 229 526 229 526 244 504.5 c 128,-1,9
 259 483 259 483 259 455 c 0,10,11
 259 419 259 419 234 394.5 c 128,-1,12
 209 370 209 370 175 370 c 0,13,0
 139 370 139 370 114.5 394 c 128,-1,1
EndSplineSet
EndChar
StartChar: quoteright
Encoding: 8217 8217 288
Width: 261
GlyphClass: 1
Flags: W
LayerCount: 2
Fore
SplineSet
134.5 545 m 128,-1,1
 119 566 119 566 119 594 c 0,2,3
 119 630 119 630 144 654.5 c 128,-1,4
 169 679 169 679 203 679 c 0,5,6
 239 679 239 679 263.5 655 c 128,-1,7
 288 631 288 631 288 598 c 0,8,9
 288 569 288 569 268 538 c 2,10,-1
 169 381 l 1,11,-1
 92 381 l 1,12,-1
 173 514 l 1,13,0
 150 524 150 524 134.5 545 c 128,-1,1
EndSplineSet
EndChar
StartChar: quotesinglbase
Encoding: 8218 8218 283
Width: 261
GlyphClass: 1
Flags: W
LayerCount: 2
Fore
SplineSet
24 23 m 128,-1,1
 9 45 9 45 9 73 c 0,2,3
 9 108 9 108 33.5 133 c 128,-1,4
 58 158 58 158 93 158 c 0,5,6
 129 158 129 158 153.5 133.5 c 128,-1,7
 178 109 178 109 178 76 c 0,8,9
 178 49 178 49 158 16 c 2,10,-1
 59 -141 l 1,11,-1
 -18 -141 l 1,12,-1
 63 -8 l 1,13,0
 39 1 39 1 24 23 c 128,-1,1
EndSplineSet
EndChar
StartChar: quotedblleft
Encoding: 8220 8220 285
Width: 459
GlyphClass: 1
Flags: W
LayerCount: 2
Fore
SplineSet
313 394 m 128,-1,1
 289 418 289 418 289 451 c 0,2,3
 289 480 289 480 308 511 c 2,4,-1
 408 668 l 1,5,-1
 485 668 l 1,6,-1
 404 535 l 1,7,8
 427 525 427 525 442 504 c 128,-1,9
 457 483 457 483 457 455 c 0,10,11
 457 419 457 419 432.5 394.5 c 128,-1,12
 408 370 408 370 373 370 c 0,13,0
 337 370 337 370 313 394 c 128,-1,1
114.5 394 m 128,-1,15
 90 418 90 418 90 451 c 0,16,17
 90 480 90 480 110 511 c 2,18,-1
 209 668 l 1,19,-1
 286 668 l 1,20,-1
 205 535 l 1,21,22
 229 526 229 526 244 504.5 c 128,-1,23
 259 483 259 483 259 455 c 0,24,25
 259 419 259 419 234 394.5 c 128,-1,26
 209 370 209 370 175 370 c 0,27,14
 139 370 139 370 114.5 394 c 128,-1,15
EndSplineSet
EndChar
StartChar: quotedblright
Encoding: 8221 8221 286
Width: 458
GlyphClass: 1
Flags: W
LayerCount: 2
Fore
SplineSet
333 546 m 128,-1,1
 318 567 318 567 318 595 c 0,2,3
 318 631 318 631 342.5 655.5 c 128,-1,4
 367 680 367 680 401 680 c 0,5,6
 437 680 437 680 461.5 656 c 128,-1,7
 486 632 486 632 486 599 c 0,8,9
 486 570 486 570 467 539 c 2,10,-1
 367 382 l 1,11,-1
 290 382 l 1,12,-1
 371 515 l 1,13,0
 348 525 348 525 333 546 c 128,-1,1
134.5 546 m 128,-1,15
 119 567 119 567 119 595 c 0,16,17
 119 631 119 631 144 655.5 c 128,-1,18
 169 680 169 680 203 680 c 0,19,20
 239 680 239 680 263.5 656 c 128,-1,21
 288 632 288 632 288 599 c 0,22,23
 288 570 288 570 268 539 c 2,24,-1
 169 382 l 1,25,-1
 92 382 l 1,26,-1
 173 515 l 1,27,14
 150 525 150 525 134.5 546 c 128,-1,15
EndSplineSet
EndChar
StartChar: quotedblbase
Encoding: 8222 8222 284
Width: 459
GlyphClass: 1
Flags: W
LayerCount: 2
Fore
SplineSet
222 23 m 128,-1,1
 207 45 207 45 207 73 c 0,2,3
 207 108 207 108 232 133 c 128,-1,4
 257 158 257 158 291 158 c 0,5,6
 327 158 327 158 351.5 133.5 c 128,-1,7
 376 109 376 109 376 76 c 0,8,9
 376 47 376 47 356 16 c 2,10,-1
 257 -141 l 1,11,-1
 180 -141 l 1,12,-1
 261 -8 l 1,13,0
 237 1 237 1 222 23 c 128,-1,1
24 23 m 128,-1,15
 9 45 9 45 9 73 c 0,16,17
 9 108 9 108 33.5 133 c 128,-1,18
 58 158 58 158 93 158 c 0,19,20
 129 158 129 158 153.5 133.5 c 128,-1,21
 178 109 178 109 178 76 c 0,22,23
 178 49 178 49 158 16 c 2,24,-1
 59 -141 l 1,25,-1
 -18 -141 l 1,26,-1
 63 -8 l 1,27,14
 39 1 39 1 24 23 c 128,-1,15
EndSplineSet
EndChar
StartChar: dagger
Encoding: 8224 8224 307
Width: 573
GlyphClass: 1
Flags: W
LayerCount: 2
Fore
SplineSet
258 394 m 1,0,-1
 72 394 l 1,1,-1
 93 496 l 1,2,-1
 279 496 l 1,3,-1
 316 668 l 1,4,-1
 436 668 l 1,5,-1
 399 496 l 1,6,-1
 585 496 l 1,7,-1
 564 394 l 1,8,-1
 377 394 l 1,9,-1
 294 0 l 1,10,-1
 174 0 l 1,11,-1
 258 394 l 1,0,-1
EndSplineSet
EndChar
StartChar: daggerdbl
Encoding: 8225 8225 309
Width: 573
GlyphClass: 1
Flags: W
LayerCount: 2
Fore
SplineSet
212 173 m 1,0,-1
 26 173 l 1,1,-1
 46 274 l 1,2,-1
 233 274 l 1,3,-1
 259 394 l 1,4,-1
 72 394 l 1,5,-1
 94 496 l 1,6,-1
 280 496 l 1,7,-1
 317 668 l 1,8,-1
 436 668 l 1,9,-1
 399 496 l 1,10,-1
 586 496 l 1,11,-1
 564 394 l 1,12,-1
 378 394 l 1,13,-1
 352 274 l 1,14,-1
 539 274 l 1,15,-1
 518 173 l 1,16,-1
 331 173 l 1,17,-1
 294 0 l 1,18,-1
 175 0 l 1,19,-1
 212 173 l 1,0,-1
EndSplineSet
EndChar
StartChar: bullet
Encoding: 8226 8226 268
Width: 438
GlyphClass: 1
Flags: W
LayerCount: 2
Fore
SplineSet
137 110.5 m 128,-1,1
 99 133 99 133 76.5 171 c 128,-1,2
 54 209 54 209 54 254 c 256,3,4
 54 299 54 299 76.5 337 c 128,-1,5
 99 375 99 375 137 397.5 c 128,-1,6
 175 420 175 420 220 420 c 256,7,8
 265 420 265 420 303 397.5 c 128,-1,9
 341 375 341 375 363.5 337 c 128,-1,10
 386 299 386 299 386 254 c 256,11,12
 386 209 386 209 363.5 171 c 128,-1,13
 341 133 341 133 303 110.5 c 128,-1,14
 265 88 265 88 220 88 c 256,15,0
 175 88 175 88 137 110.5 c 128,-1,1
EndSplineSet
EndChar
StartChar: perthousand
Encoding: 8240 8240 342
Width: 1425
GlyphClass: 1
Flags: W
LayerCount: 2
Fore
SplineSet
764 668 m 1,0,-1
 882 668 l 1,1,-1
 278 0 l 1,2,-1
 160 0 l 1,3,-1
 764 668 l 1,0,-1
181.5 322.5 m 128,-1,5
 138 348 138 348 112 392 c 128,-1,6
 86 436 86 436 86 488 c 256,7,8
 86 540 86 540 112 584 c 128,-1,9
 138 628 138 628 181.5 654 c 128,-1,10
 225 680 225 680 277 680 c 256,11,12
 329 680 329 680 372.5 654 c 128,-1,13
 416 628 416 628 441.5 584 c 128,-1,14
 467 540 467 540 467 488 c 256,15,16
 467 436 467 436 441.5 392 c 128,-1,17
 416 348 416 348 372.5 322.5 c 128,-1,18
 329 297 329 297 277 297 c 256,19,4
 225 297 225 297 181.5 322.5 c 128,-1,5
340 424.5 m 128,-1,21
 366 451 366 451 366 488 c 0,22,23
 366 526 366 526 340 552.5 c 128,-1,24
 314 579 314 579 277 579 c 256,25,26
 240 579 240 579 214 552.5 c 128,-1,27
 188 526 188 526 188 488 c 0,28,29
 188 451 188 451 214 424.5 c 128,-1,30
 240 398 240 398 277 398 c 256,31,20
 314 398 314 398 340 424.5 c 128,-1,21
670.5 14 m 128,-1,33
 627 40 627 40 601.5 84 c 128,-1,34
 576 128 576 128 576 180 c 256,35,36
 576 232 576 232 601.5 276 c 128,-1,37
 627 320 627 320 670.5 346 c 128,-1,38
 714 372 714 372 766 372 c 256,39,40
 818 372 818 372 862 346 c 128,-1,41
 906 320 906 320 931.5 276 c 128,-1,42
 957 232 957 232 957 180 c 256,43,44
 957 128 957 128 931.5 84 c 128,-1,45
 906 40 906 40 862 14 c 128,-1,46
 818 -12 818 -12 766 -12 c 256,47,32
 714 -12 714 -12 670.5 14 c 128,-1,33
829.5 116 m 128,-1,49
 856 143 856 143 856 180 c 256,50,51
 856 217 856 217 829.5 243.5 c 128,-1,52
 803 270 803 270 766 270 c 256,53,54
 729 270 729 270 703 243.5 c 128,-1,55
 677 217 677 217 677 180 c 0,56,57
 677 142 677 142 703 115.5 c 128,-1,58
 729 89 729 89 766 89 c 256,59,48
 803 89 803 89 829.5 116 c 128,-1,49
1088.5 14 m 128,-1,61
 1045 40 1045 40 1019.5 84 c 128,-1,62
 994 128 994 128 994 180 c 256,63,64
 994 232 994 232 1019.5 276 c 128,-1,65
 1045 320 1045 320 1088.5 346 c 128,-1,66
 1132 372 1132 372 1184 372 c 256,67,68
 1236 372 1236 372 1279.5 346 c 128,-1,69
 1323 320 1323 320 1349 276 c 128,-1,70
 1375 232 1375 232 1375 180 c 256,71,72
 1375 128 1375 128 1349 84 c 128,-1,73
 1323 40 1323 40 1279.5 14 c 128,-1,74
 1236 -12 1236 -12 1184 -12 c 256,75,60
 1132 -12 1132 -12 1088.5 14 c 128,-1,61
1247 115.5 m 128,-1,77
 1273 142 1273 142 1273 180 c 0,78,79
 1273 217 1273 217 1247 243.5 c 128,-1,80
 1221 270 1221 270 1184 270 c 256,81,82
 1147 270 1147 270 1121 243.5 c 128,-1,83
 1095 217 1095 217 1095 180 c 0,84,85
 1095 142 1095 142 1121 115.5 c 128,-1,86
 1147 89 1147 89 1184 89 c 256,87,76
 1221 89 1221 89 1247 115.5 c 128,-1,77
EndSplineSet
EndChar
StartChar: Euro
Encoding: 8364 8364 314
Width: 674
GlyphClass: 1
Flags: W
LayerCount: 2
Fore
SplineSet
183 57 m 128,-1,1
 117 126 117 126 110 235 c 1,2,-1
 6 235 l 1,3,-1
 55 300 l 1,4,-1
 111 300 l 1,5,6
 112 331 112 331 122 370 c 1,7,-1
 35 370 l 1,8,-1
 83 435 l 1,9,-1
 142 435 l 1,10,11
 181 542 181 542 262 611 c 128,-1,12
 343 680 343 680 458 680 c 0,13,14
 540 680 540 680 599.5 639 c 128,-1,15
 659 598 659 598 684 523 c 1,16,-1
 576 486 l 1,17,18
 545 570 545 570 442 570 c 0,19,20
 382 570 382 570 339 532.5 c 128,-1,21
 296 495 296 495 270 435 c 1,22,-1
 505 435 l 1,23,-1
 456 370 l 1,24,-1
 248 370 l 1,25,26
 239 335 239 335 236 300 c 1,27,-1
 405 300 l 1,28,-1
 357 235 l 1,29,-1
 237 235 l 1,30,31
 244 172 244 172 279 135 c 128,-1,32
 314 98 314 98 377 98 c 0,33,34
 478 98 478 98 523 178 c 1,35,-1
 632 135 l 1,36,37
 582 58 582 58 512.5 23 c 128,-1,38
 443 -12 443 -12 366 -12 c 0,39,0
 249 -12 249 -12 183 57 c 128,-1,1
EndSplineSet
EndChar
StartChar: uni20B9
Encoding: 8377 8377 315
Width: 605
GlyphClass: 1
Flags: W
LayerCount: 2
Fore
SplineSet
85 289 m 1,0,-1
 98 349 l 1,1,-1
 249 349 l 2,2,3
 297 349 297 349 326.5 369 c 128,-1,4
 356 389 356 389 367 424 c 1,5,-1
 114 424 l 1,6,-1
 128 489 l 1,7,-1
 376 489 l 1,8,9
 372 524 372 524 343.5 543.5 c 128,-1,10
 315 563 315 563 266 563 c 2,11,-1
 144 563 l 1,12,-1
 166 668 l 1,13,-1
 640 668 l 1,14,-1
 627 603 l 1,15,-1
 450 603 l 1,16,17
 503 558 503 558 506 489 c 1,18,-1
 602 489 l 1,19,-1
 589 424 l 1,20,-1
 499 424 l 1,21,22
 482 347 482 347 421 299.5 c 128,-1,23
 360 252 360 252 270 248 c 1,24,-1
 473 0 l 1,25,-1
 318 0 l 1,26,-1
 85 289 l 1,0,-1
EndSplineSet
EndChar
StartChar: uni2113
Encoding: 8467 8467 308
Width: 483
GlyphClass: 1
Flags: W
LayerCount: 2
Fore
SplineSet
129.5 22 m 128,-1,1
 90 56 90 56 90 120 c 0,2,3
 90 142 90 142 94 162 c 2,4,-1
 95 170 l 1,5,-1
 20 123 l 1,6,-1
 39 215 l 1,7,-1
 115 263 l 1,8,-1
 163 489 l 2,9,10
 184 589 184 589 232.5 634.5 c 128,-1,11
 281 680 281 680 348 680 c 0,12,13
 418 680 418 680 455 647.5 c 128,-1,14
 492 615 492 615 492 559 c 0,15,16
 492 495 492 495 455.5 440.5 c 128,-1,17
 419 386 419 386 365.5 344.5 c 128,-1,18
 312 303 312 303 237 257 c 1,19,-1
 221 180 l 2,20,21
 217 156 217 156 217 145 c 0,22,23
 217 91 217 91 274 91 c 0,24,25
 315 91 315 91 354 115 c 1,26,-1
 386 33 l 1,27,28
 360 14 360 14 321 1 c 128,-1,29
 282 -12 282 -12 243 -12 c 0,30,0
 169 -12 169 -12 129.5 22 c 128,-1,1
351 442.5 m 128,-1,32
 389 495 389 495 389 543 c 0,33,34
 389 565 389 565 378 576 c 128,-1,35
 367 587 367 587 350 587 c 0,36,37
 329 587 329 587 314 569 c 128,-1,38
 299 551 299 551 290 510 c 2,39,-1
 257 354 l 1,40,31
 313 390 313 390 351 442.5 c 128,-1,32
EndSplineSet
EndChar
StartChar: trademark
Encoding: 8482 8482 303
Width: 926
GlyphClass: 1
Flags: W
LayerCount: 2
Fore
SplineSet
502 668 m 1,0,-1
 647 668 l 1,1,-1
 669 416 l 1,2,-1
 800 668 l 1,3,-1
 951 668 l 1,4,-1
 873 303 l 1,5,-1
 781 303 l 1,6,-1
 838 569 l 1,7,-1
 692 303 l 1,8,-1
 605 303 l 1,9,-1
 571 569 l 1,10,-1
 515 303 l 1,11,-1
 424 303 l 1,12,-1
 502 668 l 1,0,-1
227 588 m 1,13,-1
 108 588 l 1,14,-1
 125 668 l 1,15,-1
 457 668 l 1,16,-1
 439 588 l 1,17,-1
 320 588 l 1,18,-1
 259 303 l 1,19,-1
 167 303 l 1,20,-1
 227 588 l 1,13,-1
EndSplineSet
EndChar
StartChar: estimated
Encoding: 8494 8494 310
Width: 611
GlyphClass: 1
Flags: W
LayerCount: 2
Fore
SplineSet
181 21.5 m 128,-1,1
 121 55 121 55 85 115.5 c 128,-1,2
 49 176 49 176 49 252 c 0,3,4
 49 319 49 319 83.5 378 c 128,-1,5
 118 437 118 437 177.5 472.5 c 128,-1,6
 237 508 237 508 309 508 c 0,7,8
 379 508 379 508 438.5 473 c 128,-1,9
 498 438 498 438 533 378.5 c 128,-1,10
 568 319 568 319 568 249 c 1,11,-1
 174 249 l 1,12,-1
 174 94 l 1,13,14
 201 70 201 70 235.5 56.5 c 128,-1,15
 270 43 270 43 309 43 c 0,16,17
 355 43 355 43 396 62.5 c 128,-1,18
 437 82 437 82 465 116 c 1,19,-1
 519 97 l 1,20,21
 483 46 483 46 428 17 c 128,-1,22
 373 -12 373 -12 309 -12 c 0,23,0
 241 -12 241 -12 181 21.5 c 128,-1,1
443 301 m 1,24,-1
 443 401 l 1,25,26
 417 426 417 426 382 439.5 c 128,-1,27
 347 453 347 453 309 453 c 0,28,29
 270 453 270 453 235 439.5 c 128,-1,30
 200 426 200 426 174 401 c 1,31,-1
 174 301 l 1,32,-1
 443 301 l 1,24,-1
EndSplineSet
EndChar
StartChar: partialdiff
Encoding: 8706 8706 340
Width: 594
GlyphClass: 1
Flags: W
LayerCount: 2
Fore
SplineSet
104 43.5 m 128,-1,1
 42 99 42 99 42 193 c 0,2,3
 42 265 42 265 74.5 328 c 128,-1,4
 107 391 107 391 165 428.5 c 128,-1,5
 223 466 223 466 296 466 c 0,6,7
 357 466 357 466 402 438.5 c 128,-1,8
 447 411 447 411 461 356 c 1,9,10
 468 462 468 462 392 518 c 128,-1,11
 316 574 316 574 195 577 c 1,12,-1
 216 680 l 1,13,14
 377 665 377 665 470 594.5 c 128,-1,15
 563 524 563 524 563 385 c 0,16,17
 563 298 563 298 534 206.5 c 128,-1,18
 505 115 505 115 438.5 51.5 c 128,-1,19
 372 -12 372 -12 267 -12 c 0,20,0
 166 -12 166 -12 104 43.5 c 128,-1,1
349.5 115.5 m 128,-1,22
 381 142 381 142 396 181 c 128,-1,23
 411 220 411 220 411 256 c 0,24,25
 411 305 411 305 383.5 334.5 c 128,-1,26
 356 364 356 364 307 364 c 0,27,28
 264 364 264 364 232.5 339.5 c 128,-1,29
 201 315 201 315 185 277.5 c 128,-1,30
 169 240 169 240 169 202 c 0,31,32
 169 152 169 152 196 120.5 c 128,-1,33
 223 89 223 89 272 89 c 0,34,21
 318 89 318 89 349.5 115.5 c 128,-1,22
EndSplineSet
EndChar
StartChar: product
Encoding: 8719 8719 337
Width: 603
GlyphClass: 1
Flags: W
LayerCount: 2
Fore
SplineSet
135 668 m 1,0,-1
 646 668 l 1,1,-1
 470 -162 l 1,2,-1
 360 -162 l 1,3,-1
 514 566 l 1,4,-1
 223 566 l 1,5,-1
 68 -162 l 1,6,-1
 -41 -162 l 1,7,-1
 135 668 l 1,0,-1
EndSplineSet
EndChar
StartChar: summation
Encoding: 8721 8721 338
Width: 605
GlyphClass: 1
Flags: W
LayerCount: 2
Fore
SplineSet
-18 -52 m 1,0,-1
 290 264 l 1,1,-1
 112 558 l 1,2,-1
 135 668 l 1,3,-1
 649 668 l 1,4,-1
 626 558 l 1,5,-1
 245 558 l 1,6,-1
 433 254 l 1,7,-1
 134 -52 l 1,8,-1
 496 -52 l 1,9,-1
 473 -162 l 1,10,-1
 -41 -162 l 1,11,-1
 -18 -52 l 1,0,-1
EndSplineSet
EndChar
StartChar: minus
Encoding: 8722 8722 321
Width: 597
GlyphClass: 1
Flags: W
LayerCount: 2
Fore
SplineSet
58 303 m 1,0,-1
 564 303 l 1,1,-1
 540 193 l 1,2,-1
 34 193 l 1,3,-1
 58 303 l 1,0,-1
EndSplineSet
EndChar
StartChar: uni2215
Encoding: 8725 8725 319
Width: 630
GlyphClass: 1
Flags: W
LayerCount: 2
Fore
SplineSet
561 668 m 1,0,-1
 704 668 l 1,1,-1
 105 0 l 1,2,-1
 -38 0 l 1,3,-1
 561 668 l 1,0,-1
EndSplineSet
EndChar
StartChar: radical
Encoding: 8730 8730 339
Width: 662
GlyphClass: 1
Flags: W
LayerCount: 2
Fore
SplineSet
146 113 m 1,0,-1
 18 113 l 1,1,-1
 41 225 l 1,2,-1
 243 225 l 1,3,-1
 285 4 l 1,4,-1
 578 668 l 1,5,-1
 703 668 l 1,6,-1
 335 -162 l 1,7,-1
 201 -162 l 1,8,-1
 146 113 l 1,0,-1
EndSplineSet
EndChar
StartChar: infinity
Encoding: 8734 8734 335
Width: 759
GlyphClass: 1
Flags: W
LayerCount: 2
Fore
SplineSet
121.5 118.5 m 128,-1,1
 87 137 87 137 67.5 169.5 c 128,-1,2
 48 202 48 202 48 241 c 0,3,4
 48 286 48 286 72 325.5 c 128,-1,5
 96 365 96 365 138.5 388.5 c 128,-1,6
 181 412 181 412 234 412 c 0,7,8
 330 412 330 412 391 325 c 1,9,10
 438 370 438 370 480 391 c 128,-1,11
 522 412 522 412 565 412 c 0,12,13
 607 412 607 412 641.5 393.5 c 128,-1,14
 676 375 676 375 695.5 342.5 c 128,-1,15
 715 310 715 310 715 271 c 0,16,17
 715 226 715 226 691 186.5 c 128,-1,18
 667 147 667 147 624.5 123.5 c 128,-1,19
 582 100 582 100 529 100 c 0,20,21
 432 100 432 100 372 187 c 1,22,23
 325 142 325 142 283 121 c 128,-1,24
 241 100 241 100 198 100 c 0,25,0
 156 100 156 100 121.5 118.5 c 128,-1,1
267.5 211 m 128,-1,27
 293 227 293 227 325 260 c 1,28,29
 307 288 307 288 285 302.5 c 128,-1,30
 263 317 263 317 233 317 c 0,31,32
 195 317 195 317 174 297.5 c 128,-1,33
 153 278 153 278 153 248 c 0,34,35
 153 224 153 224 170.5 209.5 c 128,-1,36
 188 195 188 195 213 195 c 0,37,26
 242 195 242 195 267.5 211 c 128,-1,27
588.5 214.5 m 128,-1,39
 610 234 610 234 610 264 c 0,40,41
 610 288 610 288 592.5 302.5 c 128,-1,42
 575 317 575 317 550 317 c 0,43,44
 521 317 521 317 495.5 301 c 128,-1,45
 470 285 470 285 438 252 c 1,46,47
 456 224 456 224 478 209.5 c 128,-1,48
 500 195 500 195 530 195 c 0,49,38
 567 195 567 195 588.5 214.5 c 128,-1,39
EndSplineSet
EndChar
StartChar: integral
Encoding: 8747 8747 336
Width: 475
GlyphClass: 1
Flags: W
LayerCount: 2
Fore
SplineSet
-3 -155 m 128,-1,1
 -32 -136 -32 -136 -32 -102 c 0,2,3
 -32 -79 -32 -79 -15 -60 c 128,-1,4
 2 -41 2 -41 30 -41 c 0,5,6
 52 -41 52 -41 66.5 -53.5 c 128,-1,7
 81 -66 81 -66 81 -86 c 0,8,9
 81 -102 81 -102 73 -116 c 1,10,11
 88 -110 88 -110 99 -89 c 128,-1,12
 110 -68 110 -68 118 -27 c 2,13,-1
 228 460 l 2,14,15
 277 680 277 680 413 680 c 0,16,17
 451 680 451 680 480.5 662 c 128,-1,18
 510 644 510 644 510 609 c 0,19,20
 510 586 510 586 493 567.5 c 128,-1,21
 476 549 476 549 448 549 c 0,22,23
 425 549 425 549 411 561 c 128,-1,24
 397 573 397 573 397 594 c 0,25,26
 397 600 397 600 399.5 608.5 c 128,-1,27
 402 617 402 617 405 624 c 1,28,29
 390 618 390 618 379.5 598 c 128,-1,30
 369 578 369 578 358 534 c 2,31,-1
 250 47 l 2,32,33
 199 -174 199 -174 65 -174 c 0,34,0
 26 -174 26 -174 -3 -155 c 128,-1,1
EndSplineSet
EndChar
StartChar: approxequal
Encoding: 8776 8776 331
Width: 539
GlyphClass: 1
Flags: W
LayerCount: 2
Fore
SplineSet
159 235 m 0,1,2
 187 235 187 235 208.5 227 c 128,-1,3
 230 219 230 219 260 202 c 0,4,5
 286 188 286 188 302.5 181 c 128,-1,6
 319 174 319 174 339 174 c 0,7,8
 392 174 392 174 408 240 c 1,9,-1
 491 209 l 1,10,11
 470 141 470 141 433.5 104 c 128,-1,12
 397 67 397 67 340 67 c 0,13,14
 312 67 312 67 289.5 75.5 c 128,-1,15
 267 84 267 84 239 100 c 0,16,17
 215 114 215 114 197.5 121 c 128,-1,18
 180 128 180 128 160 128 c 0,19,20
 106 128 106 128 91 63 c 1,21,-1
 7 94 l 1,22,0
 50 235 50 235 159 235 c 0,1,2
202 436 m 0,24,25
 230 436 230 436 251.5 428 c 128,-1,26
 273 420 273 420 303 403 c 0,27,28
 329 389 329 389 345.5 382 c 128,-1,29
 362 375 362 375 382 375 c 0,30,31
 435 375 435 375 451 441 c 1,32,-1
 534 409 l 1,33,34
 491 268 491 268 382 268 c 0,35,36
 354 268 354 268 332.5 276 c 128,-1,37
 311 284 311 284 281 301 c 0,38,39
 255 315 255 315 238.5 322 c 128,-1,40
 222 329 222 329 202 329 c 0,41,42
 176 329 176 329 159 314 c 128,-1,43
 142 299 142 299 133 264 c 1,44,-1
 50 295 l 1,45,23
 93 436 93 436 202 436 c 0,24,25
EndSplineSet
EndChar
StartChar: lessequal
Encoding: 8804 8804 329
Width: 588
GlyphClass: 1
Flags: W
LayerCount: 2
Fore
SplineSet
49 262 m 1,0,-1
 72 369 l 1,1,-1
 597 503 l 1,2,-1
 572 387 l 1,3,-1
 211 312 l 1,4,-1
 540 236 l 1,5,-1
 518 127 l 1,6,-1
 49 262 l 1,0,-1
17 109 m 1,7,-1
 513 109 l 1,8,-1
 490 0 l 1,9,-1
 -6 0 l 1,10,-1
 17 109 l 1,7,-1
EndSplineSet
EndChar
StartChar: greaterequal
Encoding: 8805 8805 328
Width: 588
GlyphClass: 1
Flags: W
LayerCount: 2
Fore
SplineSet
45 244 m 1,0,-1
 405 320 l 1,1,-1
 77 395 l 1,2,-1
 100 503 l 1,3,-1
 568 369 l 1,4,-1
 545 262 l 1,5,-1
 20 127 l 1,6,-1
 45 244 l 1,0,-1
16 109 m 1,7,-1
 513 109 l 1,8,-1
 489 0 l 1,9,-1
 -7 0 l 1,10,-1
 16 109 l 1,7,-1
EndSplineSet
EndChar
StartChar: lozenge
Encoding: 9674 9674 343
Width: 589
GlyphClass: 1
Flags: W
LayerCount: 2
Fore
SplineSet
60 314 m 1,0,-1
 393 712 l 1,1,-1
 557 314 l 1,2,-1
 224 -84 l 1,3,-1
 60 314 l 1,0,-1
440 324 m 1,4,-1
 359 522 l 1,5,-1
 177 305 l 1,6,-1
 259 106 l 1,7,-1
 440 324 l 1,4,-1
EndSplineSet
EndChar
StartChar: acutecomb.case
Encoding: 65553 -1 352
Width: 0
GlyphClass: 4
Flags: W
AnchorPoint: "Anchor-5" 225 877 basemark 0
AnchorPoint: "Anchor-5" 180 668 mark 0
AnchorPoint: "Anchor-1" 180 668 mark 0
LayerCount: 2
Fore
SplineSet
300.5 867.5 m 128,-1,1
 315 875 315 875 331 875 c 0,2,3
 351 875 351 875 362.5 865 c 128,-1,4
 374 855 374 855 374 839 c 0,5,6
 374 819 374 819 361 804.5 c 128,-1,7
 348 790 348 790 323 775 c 2,8,-1
 256 736 l 1,9,-1
 144 736 l 1,10,-1
 265 842 l 2,11,0
 286 860 286 860 300.5 867.5 c 128,-1,1
EndSplineSet
EndChar
StartChar: gravecomb.case
Encoding: 65552 -1 350
Width: 0
GlyphClass: 4
Flags: W
AnchorPoint: "Anchor-5" 326 877 basemark 0
AnchorPoint: "Anchor-5" 281 668 mark 0
AnchorPoint: "Anchor-1" 281 668 mark 0
LayerCount: 2
Fore
SplineSet
170.5 798.5 m 128,-1,1
 164 810 164 810 164 823 c 0,2,3
 164 844 164 844 180 859.5 c 128,-1,4
 196 875 196 875 217 875 c 0,5,6
 230 875 230 875 241 867.5 c 128,-1,7
 252 860 252 860 265 841 c 2,8,-1
 338 736 l 1,9,-1
 243 736 l 1,10,-1
 192 775 l 2,11,0
 177 787 177 787 170.5 798.5 c 128,-1,1
EndSplineSet
EndChar
StartChar: one.tf
Encoding: 65540 -1 240
Width: 632
GlyphClass: 1
Flags: W
LayerCount: 2
Fore
SplineSet
75 106 m 1,0,-1
 236 106 l 1,1,-1
 314 470 l 1,2,-1
 152 470 l 1,3,-1
 173 571 l 1,4,5
 247 571 247 571 281.5 577 c 128,-1,6
 316 583 316 583 338.5 602 c 128,-1,7
 361 621 361 621 389 668 c 1,8,-1
 481 668 l 1,9,-1
 361 106 l 1,10,-1
 502 106 l 1,11,-1
 480 0 l 1,12,-1
 53 0 l 1,13,-1
 75 106 l 1,0,-1
EndSplineSet
Substitution2: "'pnum' Proportional Numbers in Latin lookup 9 subtable" one
AlternateSubs2: "'aalt' Access All Alternates in Latin lookup 0 subtable" one
EndChar
StartChar: uni0307.case
Encoding: 65550 -1 347
Width: 0
GlyphClass: 4
Flags: W
AnchorPoint: "Anchor-5" 240 861 basemark 0
AnchorPoint: "Anchor-5" 198 668 mark 0
AnchorPoint: "Anchor-1" 198 668 mark 0
LayerCount: 2
Fore
SplineSet
177.5 747.5 m 128,-1,1
 158 767 158 767 158 795 c 0,2,3
 158 822 158 822 177.5 841.5 c 128,-1,4
 197 861 197 861 225 861 c 256,5,6
 253 861 253 861 272.5 841.5 c 128,-1,7
 292 822 292 822 292 795 c 0,8,9
 292 767 292 767 272.5 747.5 c 128,-1,10
 253 728 253 728 225 728 c 256,11,0
 197 728 197 728 177.5 747.5 c 128,-1,1
EndSplineSet
EndChar
StartChar: uni0307.large
Encoding: 65551 -1 348
Width: 0
GlyphClass: 4
Flags: W
AnchorPoint: "Anchor-5" 226 741 basemark 0
AnchorPoint: "Anchor-5" 174 496 mark 0
AnchorPoint: "Anchor-1" 174 496 mark 0
LayerCount: 2
Fore
SplineSet
153 606 m 128,-1,1
 130 629 130 629 130 662 c 256,2,3
 130 695 130 695 153 718 c 128,-1,4
 176 741 176 741 209 741 c 256,5,6
 242 741 242 741 265 718 c 128,-1,7
 288 695 288 695 288 662 c 256,8,9
 288 629 288 629 265 606 c 128,-1,10
 242 583 242 583 209 583 c 256,11,0
 176 583 176 583 153 606 c 128,-1,1
EndSplineSet
EndChar
StartChar: uni030A.case
Encoding: 65559 -1 363
Width: 0
GlyphClass: 4
Flags: W
AnchorPoint: "Anchor-5" 278 852 basemark 0
AnchorPoint: "Anchor-5" 264 668 mark 0
AnchorPoint: "Anchor-1" 264 668 mark 0
LayerCount: 2
Fore
SplineSet
181.5 642 m 128,-1,1
 146 678 146 678 146 729 c 256,2,3
 146 780 146 780 181.5 816 c 128,-1,4
 217 852 217 852 269 852 c 0,5,6
 320 852 320 852 356 816 c 128,-1,7
 392 780 392 780 392 729 c 256,8,9
 392 678 392 678 356 642 c 128,-1,10
 320 606 320 606 269 606 c 0,11,0
 217 606 217 606 181.5 642 c 128,-1,1
303.5 694.5 m 128,-1,13
 318 709 318 709 318 729 c 256,14,15
 318 749 318 749 303.5 763.5 c 128,-1,16
 289 778 289 778 269 778 c 0,17,18
 248 778 248 778 234 763.5 c 128,-1,19
 220 749 220 749 220 729 c 256,20,21
 220 709 220 709 234 694.5 c 128,-1,22
 248 680 248 680 269 680 c 0,23,12
 289 680 289 680 303.5 694.5 c 128,-1,13
EndSplineSet
EndChar
StartChar: uni030C.alt
Encoding: 65555 -1 355
Width: 0
GlyphClass: 4
Flags: W
AnchorPoint: "Anchor-3" 77 496 mark 0
LayerCount: 2
Fore
SplineSet
216 718 m 0,1,2
 237 718 237 718 249 707 c 128,-1,3
 261 696 261 696 261 681 c 0,4,5
 261 662 261 662 234 621 c 2,6,-1
 176 530 l 1,7,-1
 100 530 l 1,8,-1
 155 671 l 2,9,0
 173 718 173 718 216 718 c 0,1,2
EndSplineSet
EndChar
StartChar: uni0328.alt
Encoding: 65562 -1 372
Width: 0
GlyphClass: 4
Flags: W
AnchorPoint: "Anchor-2" 187 10 mark 0
LayerCount: 2
Fore
SplineSet
10 -153 m 128,-1,1
 -30 -132 -30 -132 -30 -90 c 0,2,3
 -30 -51 -30 -51 12 -15 c 128,-1,4
 54 21 54 21 111 35 c 1,5,-1
 177 35 l 1,6,7
 137 11 137 11 107.5 -14.5 c 128,-1,8
 78 -40 78 -40 78 -68 c 0,9,10
 78 -87 78 -87 91 -96 c 128,-1,11
 104 -105 104 -105 126 -105 c 0,12,13
 151 -105 151 -105 164 -100 c 1,14,-1
 149 -171 l 1,15,16
 130 -174 130 -174 108 -174 c 0,17,0
 50 -174 50 -174 10 -153 c 128,-1,1
EndSplineSet
EndChar
StartChar: uni0328.case
Encoding: 65563 -1 373
Width: 0
GlyphClass: 4
Flags: W
AnchorPoint: "Anchor-2" 187 10 mark 0
LayerCount: 2
Fore
SplineSet
9.5 -153.5 m 128,-1,1
 -30 -133 -30 -133 -30 -92 c 0,2,3
 -30 -58 -30 -58 -0.5 -31 c 128,-1,4
 29 -4 29 -4 71 10 c 1,5,-1
 185 0 l 1,6,7
 145 -8 145 -8 111.5 -28.5 c 128,-1,8
 78 -49 78 -49 78 -74 c 0,9,10
 78 -90 78 -90 91 -97.5 c 128,-1,11
 104 -105 104 -105 124 -105 c 0,12,13
 147 -105 147 -105 164 -100 c 1,14,-1
 150 -170 l 1,15,16
 126 -174 126 -174 105 -174 c 0,17,0
 49 -174 49 -174 9.5 -153.5 c 128,-1,1
EndSplineSet
EndChar
